<svg xmlns="http://www.w3.org/2000/svg" xmlns:xlink="http://www.w3.org/1999/xlink" width="540.626" height="400.82" viewBox="0 0 540.626 400.82">
  <defs>
    <linearGradient id="linear-gradient" x1="0.5" x2="0.5" y2="1" gradientUnits="objectBoundingBox">
      <stop offset="0" stop-color="#128c7e"/>
      <stop offset="1" stop-color="#09463f"/>
    </linearGradient>
  </defs>
  <g id="undraw_personal_opinions_re_qw29" transform="translate(0)">
    <path id="Path_707" data-name="Path 707" d="M0,143.388H190.437l35.4,39.432V143.388H258.7V0H0Z" transform="translate(281.93)" fill="#e5e5e5"/>
    <rect id="Rectangle_159" data-name="Rectangle 159" width="173.858" height="7.767" transform="translate(324.348 42.121)" fill="#fff"/>
    <rect id="Rectangle_160" data-name="Rectangle 160" width="173.858" height="7.767" transform="translate(324.348 67.811)" fill="#fff"/>
    <rect id="Rectangle_161" data-name="Rectangle 161" width="173.858" height="7.767" transform="translate(324.348 93.501)" fill="#fff"/>
    <ellipse id="Ellipse_83" data-name="Ellipse 83" cx="6.538" cy="6.538" rx="6.538" ry="6.538" transform="translate(500.705 193.879)" fill="#1cd244"/>
    <path id="Path_708" data-name="Path 708" d="M613.717,529.623h7.325l3.486-28.256H613.716Z" transform="translate(-529.737 -137.148)" fill="#ffb6b6"/>
    <path id="Path_709" data-name="Path 709" d="M826.554,720.589h23.621v-.3a9.194,9.194,0,0,0-9.193-9.194H826.553Z" transform="translate(-744.442 -321.012)" fill="#2f2e41"/>
    <path id="Path_710" data-name="Path 710" d="M529.734,528.082l6.946-2.328L531,497.855l-10.251,3.437Z" transform="translate(-374.356 -136.187)" fill="#ffb6b6"/>
    <path id="Path_711" data-name="Path 711" d="M729.734,718.378l22.4-7.508-.095-.283a9.194,9.194,0,0,0-11.639-5.795h0l-13.678,4.586Z" transform="translate(-573.869 -319.157)" fill="#2f2e41"/>
    <path id="Path_712" data-name="Path 712" d="M813.182,503.02l15.864,134.2-15.559,1.312s-24.474-131.941-32.02-116.311S764.677,635.6,764.677,635.6H749.235s-3.96-152.521,12.208-160.066Z" transform="translate(-666.834 -256.575)" fill="#2f2e41"/>
    <ellipse id="Ellipse_84" data-name="Ellipse 84" cx="15.629" cy="15.629" rx="15.629" ry="15.629" transform="matrix(-0.174, -0.985, 0.985, -0.174, 107.942, 151.278)" fill="#ffb6b6"/>
    <path id="Path_713" data-name="Path 713" d="M809.58,386.879,789.639,388.5s-15.9.269-22.366,4.581,6.2,30.989,6.2,30.989,3.292,10.577.808,15.36c-8.061,15.519-6.865,27.469-6.865,27.469s16.566,3.789,45.13,11.335c0,0,17.785,7.006,17.246,3.234s-5.928-46.888-5.928-46.888V389.843Z" transform="translate(-679.669 -232.324)" fill="#3f3d56"/>
    <path id="Path_714" data-name="Path 714" d="M777.334,343.9c.8-4.451,2.585-10.765,6.567-15.552-.125,0-.25.006-.376,0-1.368-.04-2.925-.471-3.491-1.718a2.982,2.982,0,0,1,.546-2.974,8.778,8.778,0,0,1,2.491-1.946c-.96.583-2.317,1.124-3.084.3a1.664,1.664,0,0,1-.188-1.776A4.405,4.405,0,0,1,781,318.8a29.447,29.447,0,0,1,5.267-3.716c1.46-.807,3.381-1.455,4.692-.423,1.335,1.051,1.121,3.1.778,4.764a5.482,5.482,0,0,1,2.453-.74,1.879,1.879,0,0,1,1.882,1.446,1.93,1.93,0,0,1-.869,1.685c5.153-.847,11.737.114,20.156,4.009,0,0,8.162,2.721,8.577,13.465a19.05,19.05,0,0,1-.567,5.1c-.46,1.948-2.1,11.5-.134,15.365l-9.83,3.5-.113-5.888c7.64-11.028,3.866-15.074.891-21.707a.071.071,0,0,0-.06-.044.07.07,0,0,0-.066.034c-.55.943-2.656,4.176-9.905,4.176l2.8-2.8s-12.325,5.042-16.808,5.042c0,0-3.361,2.241,0,5.6s10.719,8.309,6.8,14.472-3.584,8.349-3.584,8.349l-8.964-5.042s-5.475-10.833-6.446-14.023a16.089,16.089,0,0,1-.612-7.525Z" transform="translate(-682.307 -212.422)" fill="#2f2e41"/>
    <path id="Path_715" data-name="Path 715" d="M643.447,348.182H465.118v98.843h22.651v27.182l24.4-27.182H643.447Z" transform="translate(-440.707 -95.244)" fill="url(#linear-gradient)"/>
    <rect id="Rectangle_162" data-name="Rectangle 162" width="119.847" height="5.354" transform="translate(53.652 281.973)" fill="#fff"/>
    <rect id="Rectangle_163" data-name="Rectangle 163" width="119.847" height="5.354" transform="translate(53.652 299.682)" fill="#fff"/>
    <rect id="Rectangle_164" data-name="Rectangle 164" width="119.847" height="5.354" transform="translate(53.652 317.391)" fill="#fff"/>
    <path id="Path_716" data-name="Path 716" d="M822.149,435.125l10.46,2.543.079,21.169,11.764,40.6a6.572,6.572,0,1,1-10.328,3.128l-14.064-42.034Z" transform="translate(-736.499 -245.521)" fill="#ffb6b6"/>
    <path id="Path_717" data-name="Path 717" d="M785.257,434.513,772.709,438.1l-.079,21.169-11.764,40.6A6.572,6.572,0,1,0,771.193,503l14.064-42.035Z" transform="translate(-629.991 -245.354)" fill="#ffb6b6"/>
    <path id="Path_718" data-name="Path 718" d="M851.92,392.015l-2.592-.845a5.9,5.9,0,0,0-4.414.306h0s-7.545.539-8.623,5.928-3.7,52.5-3.7,52.5l15.982-5.085Z" transform="translate(-750.573 -233.418)" fill="#3f3d56"/>
    <path id="Path_719" data-name="Path 719" d="M755.2,392.082l4.588-.231,1.453-.727s8.51.957,9.588,6.347,4.214,53.949,4.214,53.949l-15.982-4.359Z" transform="translate(-617.473 -233.485)" fill="#3f3d56"/>
    <path id="Path_720" data-name="Path 720" d="M388.731,643.263l-7.576-6.608a126.525,126.525,0,0,1,1.772-14.152l4.181,1.769-3.879-3.383c1.116-5.777,2.221-9.531,2.221-9.531s15.285,13.573,23.837,30.131l-3.752,12.342,5.731-8.161a51.157,51.157,0,0,1,2.178,6.053c5.964,20.8,4,39.617-4.377,42.02s-20.011-12.515-25.975-33.319a67.4,67.4,0,0,1-2.1-20.434Z" transform="translate(12.579 -293.729)" fill="url(#linear-gradient)"/>
    <path id="Path_721" data-name="Path 721" d="M404.022,667.9l-9.9-1.741a126.549,126.549,0,0,1-5.8-13.03l4.493-.647-5.069-.892c-2.031-5.522-3.025-9.307-3.025-9.307s20.1,3.719,35.981,13.472l3.168,12.5.687-9.949a51.16,51.16,0,0,1,4.994,4.056c15.859,14.727,23.906,31.845,17.973,38.234s-23.6-.37-39.458-15.1A67.394,67.394,0,0,1,395.7,669.1Z" transform="translate(-22.772 -302.188)" fill="url(#linear-gradient)"/>
    <path id="Path_722" data-name="Path 722" d="M352.826,724.578H801.774a.726.726,0,1,0,0-1.453H352.826a.726.726,0,1,0,0,1.453Z" transform="translate(-352.1 -324.303)" fill="#cbcbcb"/>
  </g>
</svg>
