<svg xmlns="http://www.w3.org/2000/svg" width="22.559" height="22.622" viewBox="0 0 22.559 22.622">
  <g id="Group_40971" data-name="Group 40971" transform="translate(-1256.75 -692.461)">
    <path id="Path_16700" data-name="Path 16700" d="M8.844,19.9H8.318C4.106,19.9,2,18.847,2,13.582V8.318Q2,2,8.318,2h8.423q6.318,0,6.318,6.318v5.265q0,6.318-6.318,6.318h-.526a1.067,1.067,0,0,0-.842.421l-1.579,2.106a1.5,1.5,0,0,1-2.527,0L9.686,20.321A1.19,1.19,0,0,0,8.844,19.9Z" transform="translate(1255.5 691.211)" fill="none" stroke="#128a7c" stroke-linecap="round" stroke-linejoin="round" stroke-miterlimit="10" stroke-width="1.5"/>
    <path id="Path_16701" data-name="Path 16701" d="M16.42,11h.011m-4.223,0h.011M8,11H8" transform="translate(1256.505 691.688)" fill="none" stroke="#128a7c" stroke-linecap="round" stroke-linejoin="round" stroke-width="1.5"/>
  </g>
</svg>
