<svg xmlns="http://www.w3.org/2000/svg" width="31.884" height="31.884" viewBox="0 0 31.884 31.884">
  <g id="Group_9190" data-name="Group 9190" transform="translate(1.5 1.5)">
    <path id="Path_16750" data-name="Path 16750" d="M14,19.416H24.832m-5.416,5.416V14" transform="translate(4.053 4.053)" fill="none" stroke="#fff" stroke-linecap="round" stroke-miterlimit="10" stroke-width="3"/>
    <path id="Path_16751" data-name="Path 16751" d="M11.943,4H6.888A2.888,2.888,0,0,0,4,6.888v5.055a2.888,2.888,0,0,0,2.888,2.888h5.055a2.888,2.888,0,0,0,2.888-2.888V6.888A2.888,2.888,0,0,0,11.943,4Z" transform="translate(-4 -4)" fill="none" stroke="#fff" stroke-miterlimit="10" stroke-width="3"/>
    <path id="Path_16752" data-name="Path 16752" d="M11.943,22.053H6.888A2.888,2.888,0,0,0,4,24.941V30a2.888,2.888,0,0,0,2.888,2.888h5.055A2.888,2.888,0,0,0,14.832,30V24.941a2.888,2.888,0,0,0-2.888-2.888ZM30,4H24.941a2.888,2.888,0,0,0-2.888,2.888v5.055a2.888,2.888,0,0,0,2.888,2.888H30a2.888,2.888,0,0,0,2.888-2.888V6.888A2.888,2.888,0,0,0,30,4Z" transform="translate(-4 -4)" fill="none" stroke="#fff" stroke-miterlimit="10" stroke-width="3"/>
  </g>
</svg>
