<svg xmlns="http://www.w3.org/2000/svg" width="582.167" height="417.256" viewBox="0 0 582.167 417.256">
  <g id="undraw_agree_re_hor9" transform="translate(-41.903 0)">
    <path id="Path_729" data-name="Path 729" d="M359.276,631.254a2.725,2.725,0,0,1-1.975-4.723l.187-.742-.074-.178a7.317,7.317,0,0,0-13.5.05c-2.207,5.317-5.018,10.642-5.71,16.264a21.645,21.645,0,0,0,.38,7.444,86.785,86.785,0,0,1-7.894-36.044,83.756,83.756,0,0,1,.52-9.345q.43-3.815,1.194-7.576a87.79,87.79,0,0,1,17.41-37.208,23.364,23.364,0,0,0,9.717-10.082,17.823,17.823,0,0,0,1.621-4.87c-.473.062-1.784-7.142-1.427-7.584-.659-1-1.839-1.5-2.559-2.474-3.581-4.855-8.514-4.007-11.089,2.59-5.5,2.777-5.555,7.382-2.179,11.811,2.148,2.818,2.443,6.63,4.327,9.647-.194.248-.4.489-.589.737a88.359,88.359,0,0,0-9.222,14.61,36.731,36.731,0,0,0-2.193-17.061c-2.1-5.063-6.033-9.328-9.5-13.705-4.161-5.258-12.695-2.963-13.428,3.7q-.011.1-.021.193.772.436,1.511.924a3.7,3.7,0,0,1-1.49,6.726l-.075.012a36.774,36.774,0,0,0,.969,5.5c-4.445,17.188,5.151,23.449,18.852,23.73.3.155.6.31.9.458a90.185,90.185,0,0,0-4.855,22.846,85.542,85.542,0,0,0,.062,13.811l-.023-.163a22.6,22.6,0,0,0-7.716-13.051c-5.938-4.878-14.327-6.674-20.733-10.595a4.242,4.242,0,0,0-6.5,4.127q.013.086.026.171a24.838,24.838,0,0,1,2.784,1.341q.772.436,1.511.924a3.7,3.7,0,0,1-1.49,6.726l-.076.012-.155.023a36.806,36.806,0,0,0,6.77,10.6c2.779,15,14.715,16.428,27.483,12.059h.008a90.158,90.158,0,0,0,6.056,17.681h21.636c.078-.24.147-.489.217-.729a24.582,24.582,0,0,1-5.987-.357c1.605-1.97,3.211-3.955,4.816-5.925a1.349,1.349,0,0,0,.1-.116c.814-1.008,1.636-2.008,2.451-3.016h0a36.006,36.006,0,0,0-1.055-9.173Z" transform="translate(-252.242 -233.316)" fill="#f2f2f2"/>
    <path id="Path_730" data-name="Path 730" d="M826.819,631.254a2.725,2.725,0,0,0,1.975-4.723l-.187-.742.074-.178a7.317,7.317,0,0,1,13.5.05c2.207,5.317,5.018,10.642,5.71,16.264a21.646,21.646,0,0,1-.38,7.444,86.782,86.782,0,0,0,7.895-36.044,83.77,83.77,0,0,0-.52-9.345q-.43-3.815-1.194-7.576a87.79,87.79,0,0,0-17.41-37.208,23.364,23.364,0,0,1-9.716-10.082,17.818,17.818,0,0,1-1.621-4.87c.473.062,1.784-7.142,1.427-7.584.659-1,1.839-1.5,2.559-2.474,3.581-4.855,8.514-4.007,11.089,2.59,5.5,2.777,5.555,7.382,2.179,11.811-2.148,2.818-2.443,6.63-4.327,9.647.194.248.4.489.589.737a88.349,88.349,0,0,1,9.222,14.61,36.731,36.731,0,0,1,2.193-17.061c2.1-5.063,6.033-9.328,9.5-13.705,4.161-5.258,12.695-2.963,13.428,3.7q.011.1.021.193-.772.436-1.511.924a3.7,3.7,0,0,0,1.49,6.726l.075.012a36.788,36.788,0,0,1-.969,5.5c4.445,17.188-5.151,23.449-18.852,23.73-.3.155-.6.31-.9.458a90.186,90.186,0,0,1,4.854,22.846,85.531,85.531,0,0,1-.062,13.811l.023-.163a22.6,22.6,0,0,1,7.716-13.051c5.938-4.878,14.327-6.674,20.733-10.595a4.242,4.242,0,0,1,6.5,4.127q-.013.086-.026.171a24.845,24.845,0,0,0-2.784,1.341q-.772.436-1.511.924a3.7,3.7,0,0,0,1.49,6.726l.075.012.155.023a36.807,36.807,0,0,1-6.77,10.6c-2.779,15-14.715,16.428-27.483,12.059h-.008A90.145,90.145,0,0,1,849,650.571H827.362c-.078-.24-.147-.489-.217-.729a24.581,24.581,0,0,0,5.987-.357c-1.605-1.97-3.21-3.955-4.816-5.925a1.334,1.334,0,0,1-.1-.116c-.814-1.008-1.636-2.008-2.45-3.017h0a36.005,36.005,0,0,1,1.055-9.173Z" transform="translate(-267.883 -233.316)" fill="#f2f2f2"/>
    <path id="Path_731" data-name="Path 731" d="M386.9,641.045h34.913c5.971-20.106.032-67.622,7.9-87.044,15.1-37.238,34.391-76.529,70.4-94.712,15.373-7.764,32.136-10.8,49.254-10.631,23.648.224,47.96,6.572,70.219,14.985,9.105,3.434,18.127,7.209,27.114,11.068,33.857,14.548,67.346,30.395,103.756,34.678,46.073,5.416,100.241-15.2,112.825-59.6,9.6-33.993-7.693-69.285-25.832-99.644s-38.416-62.842-35.1-97.992c.012-.118.024-.248.047-.366,1.246-12.625,8.785-21.7,19.315-27.515H775.854c-.605,32.79,18.365,61.733,35.436,90.31,18.139,30.347,35.436,65.65,25.832,99.644-12.584,44.388-116.781-7.644-162.854-13.072-13.011-1.522,7.657,3.894-4.748,0-19.457-6.1-21.614,49.85-40.549,41.637-11.788-5.121-23.588-10.206-35.543-14.725-4.95-1.876-10.008-3.634-15.124-5.262-.012,0-.012,0-.024-.012-34.356-10.879-71.928-15.115-103.672.614-.214.106-.439.212-.653.319-36.006,18.171-55.3,57.462-70.4,94.7C391.082,549.211,393.044,608.574,386.9,641.045Z" transform="translate(-254.975 -224.275)" fill="#f2f2f2"/>
    <circle id="Ellipse_85" data-name="Ellipse 85" cx="160.354" cy="160.354" r="160.354" transform="translate(165.545 95.032)" fill="#fff"/>
    <path id="Path_732" data-name="Path 732" d="M581.642,643.862c-158.655,3.645-162.133-71.73-162.133-161.384s72.938-162.59,162.591-162.59,162.591,72.938,162.591,162.59S671.3,643.862,581.642,643.862Zm.458-319.5c-87.187,0-156.65,70.943-158.117,158.116C422.617,563.56,508.754,664.739,582.1,640.6c39.334-43.32,150.541-89.977,158.118-158.119,9.634-86.651-70.931-158.116-158.118-158.116Z" transform="translate(-255.936 -227.092)" fill="#3f3d56"/>
    <path id="Path_735" data-name="Path 735" d="M451.3,416.787H441.91l-4.466-36.217H451.3Z" transform="translate(-22.736 -11.214)" fill="#ffb6b6"/>
    <path id="Path_736" data-name="Path 736" d="M692.009,651.781H663.136v-.365a11.239,11.239,0,0,1,11.238-11.238h0l5.274-4,9.841,4h2.52Z" transform="translate(-263.115 -236.412)" fill="#2f2e41"/>
    <path id="Path_737" data-name="Path 737" d="M408.85,370.623l-8.673,3.6-18-31.743,12.8-5.308Z" transform="translate(-21.107 -9.935)" fill="#ffb6b6"/>
    <path id="Path_738" data-name="Path 738" d="M653.826,604.781l-26.672,11.06-.14-.337a11.239,11.239,0,0,1,6.076-14.686h0l3.339-5.716,10.623-.073,2.328-.965Z" transform="translate(-262.025 -235.171)" fill="#2f2e41"/>
    <path id="Path_739" data-name="Path 739" d="M700.376,429.884l-66.635,6.963-8.914,30.021-30.869,49.607s21.54,36.254,19.517,35.859,2.02,9.487,4.852,8.914,5.776,5.87,3.818,7.015,5.9,10.833,5.9,10.833l12-10.773c2.553-19.258-.531-36.4-11.521-50.567l34.389-37.126,6.521-2.706h0l5.176,137.764,19.145.314c5.283-27.176,7.937-51.635,3.807-69.083,0,0,.593-52.417,2.857-51.844s.345-6.255.345-6.255-1.983-5.816.454-8.228.915-16.6.915-16.6C706.158,450.558,704.947,439.471,700.376,429.884Z" transform="translate(-261.076 -230.334)" fill="#2f2e41"/>
    <path id="Path_740" data-name="Path 740" d="M650.227,315.228l18.421-4.773,8.6-11.86,20.421,2.51,4.347,16.177,14.538,8.439s-8.035,84.991-6.124,89.658,8.765,4.282,2.912,10.3-6.628,3.593-5.27,10.142,11.259,13.481,0,13.412-79.2-1.039-77.255-8.8,1.911-5.793,4.837-10.661,4.9-2.148,3.912-9.331-.014-12.036-.014-15.918,3.252-39.16,3.252-39.16Z" transform="translate(-262.161 -226.465)" fill="#e6e6e6"/>
    <circle id="Ellipse_86" data-name="Ellipse 86" cx="21.641" cy="21.641" r="21.641" transform="translate(403.604 26.657)" fill="#ffb6b6"/>
    <path id="Path_741" data-name="Path 741" d="M665.761,260.1c1.9,1.536,1.465,9,3.583,7.786s2.558-3.4,5-3.42a7.984,7.984,0,0,1,5.257,2.379c.259.234.506.48.746.724.219-.077.436-.147.664-.2a6.876,6.876,0,0,1,5.043.71,6.747,6.747,0,0,0-3.841,1.549c.465.522.938,1.046,1.434,1.531,4.145,4.062,12.643-.264,18.356-1.24-4.759,5.2-3.821,8.1-2.637,15.042l.005.379c.243-1.6,5.373-1.522,4.527.6a27.318,27.318,0,0,1-3.954,5.812c6.99-4.842,12.632-11.517,13.879-19.579.256-1.7.755-3.425.272-5.078a3.894,3.894,0,0,0-3.719-2.965,14.348,14.348,0,0,0-17.646-18.1,54.838,54.838,0,0,0-6.638,2.865,11.931,11.931,0,0,1-7.03,1.191c-1.5-.31-3.022-1.087-4.494-.647-1.705.511-2.438,2.312-3.122,4.051a6.869,6.869,0,0,1,3.2,2.414,6.721,6.721,0,0,0-4.134-.168.426.426,0,0,0-.074.02C668.891,258.523,668.8,259.2,665.761,260.1Z" transform="translate(-263.192 -224.9)" fill="#2f2e41"/>
    <path id="Path_742" data-name="Path 742" d="M671.713,304.84c-11.084-.892-21.2,7.585-25.819,17.7s-4.917,21.6-5.141,32.713l-.7,34.559c-.1,5.114-.206,10.229-.461,15.338a74.994,74.994,0,0,1-1.867,14.764c-2.26,8.895-7.231,16.821-12.13,24.582a332.375,332.375,0,0,0,38.2,9.122c6.443-20.839,12.959-42.276,11.375-64.031-.838-11.512-3.934-22.751-5.111-34.233-1.667-16.262.542-32.643,2.747-48.84" transform="translate(-262.009 -226.647)" fill="#3f3d56"/>
    <path id="Path_743" data-name="Path 743" d="M699.965,306.845c10.979,1.765,18.8,12.4,20.877,23.327s-.352,22.145-2.775,33l-7.53,33.736c-1.114,4.992-2.229,9.985-3.195,15.008-.938,4.88,2.991,11.138,3.036,16.107.083,9.177-1.7,16.735,1.216,25.437a332.357,332.357,0,0,1-39.271-.209c-1.31-21.773-2.549-44.144,4.156-64.9,3.548-10.983,9.224-21.166,13.094-32.04,5.481-15.4,7.225-31.838,8.929-48.1" transform="translate(-263.355 -226.708)" fill="#3f3d56"/>
    <path id="Path_744" data-name="Path 744" d="M708.352,466.66a6.289,6.289,0,0,1,2.177-8.5,6.036,6.036,0,0,1,.9-.434l-1.4-47.669,15.166-3.86-5.783,55.535a6.272,6.272,0,0,1-2.746,7.147,6,6,0,0,1-8.229-2.081Q708.392,466.732,708.352,466.66Z" transform="translate(-264.423 -229.636)" fill="#ffb6b6"/>
    <path id="Path_745" data-name="Path 745" d="M707.147,326.4s10.586-8.952,19.494,8.948,3.93,58.793,2.676,60.975-2.019-.858-1.332,4.96c.559,4.731-2.762,4.14-1.571,5.149,3.141,2.662-5.655,2.966-1.138,5.311s-15.7,2.785-15.7,2.785-2.445-1.747-.747-8.333c.954-3.7,3.342-5.052.795-6.764s2.631-7,2.635-8.165-8.075-26.557-8.075-26.557Z" transform="translate(-264.324 -227.218)" fill="#3f3d56"/>
    <path id="Path_747" data-name="Path 747" d="M650.928,458.1a6.289,6.289,0,0,0-1.7-8.6,6.043,6.043,0,0,0-.873-.483l4.032-47.518-14.929-4.692,2.705,55.771a6.272,6.272,0,0,0,2.347,7.288,6,6,0,0,0,8.332-1.623Z" transform="translate(-262.358 -229.359)" fill="#ffb6b6"/>
    <path id="Path_748" data-name="Path 748" d="M659.513,318.237s-10.075-9.524-19.958,7.857-7.173,58.486-6.042,60.734,2.063-.745,1.056,5.026c-.819,4.693,2.529,4.286,1.284,5.228-3.284,2.485,5.482,3.274.842,5.366s15.523,3.649,15.523,3.649,2.538-1.609,1.206-8.279c-.748-3.746-3.058-5.229-.42-6.8s-2.24-7.138-2.18-8.3,9.531-26.07,9.531-26.07Z" transform="translate(-262.206 -226.967)" fill="#3f3d56"/>
  </g>
</svg>
