<svg xmlns="http://www.w3.org/2000/svg" xmlns:xlink="http://www.w3.org/1999/xlink" width="472.632" height="340.393" viewBox="0 0 472.632 340.393">
  <defs>
    <linearGradient id="linear-gradient" x1="0.5" x2="0.5" y2="1" gradientUnits="objectBoundingBox">
      <stop offset="0" stop-color="#128c7e"/>
      <stop offset="1" stop-color="#09463f"/>
    </linearGradient>
  </defs>
  <g id="undraw_signal_searching_re_yl8n" transform="translate(0 0.006)">
    <path id="Path_16478" data-name="Path 16478" d="M97.515,460.905a1.849,1.849,0,0,1-1.34-3.2l.127-.5-.05-.121a4.965,4.965,0,0,0-9.158.034c-1.5,3.608-3.405,7.221-3.875,11.036a14.688,14.688,0,0,0,.258,5.052A58.888,58.888,0,0,1,78.12,448.74a56.838,56.838,0,0,1,.353-6.341q.292-2.589.81-5.141A59.571,59.571,0,0,1,91.1,412.009a15.853,15.853,0,0,0,6.593-6.841,12.093,12.093,0,0,0,1.1-3.3c-.321.042-1.21-4.846-.968-5.146-.447-.679-1.248-1.016-1.737-1.679-2.43-3.294-5.777-2.719-7.525,1.758-3.733,1.884-3.769,5.009-1.479,8.014,1.457,1.912,1.658,4.5,2.936,6.546-.132.168-.268.332-.4.5a59.954,59.954,0,0,0-6.258,9.914,24.924,24.924,0,0,0-1.488-11.577c-1.424-3.436-4.094-6.33-6.445-9.3a5.116,5.116,0,0,0-9.112,2.512q-.007.066-.014.131.524.3,1.025.627a2.508,2.508,0,0,1-1.011,4.564l-.051.008a24.955,24.955,0,0,0,.658,3.731c-3.016,11.664,3.5,15.911,12.792,16.1.205.105.405.21.61.31a61.2,61.2,0,0,0-3.294,15.5,58.042,58.042,0,0,0,.042,9.372l-.016-.11a15.337,15.337,0,0,0-5.236-8.856c-4.029-3.31-9.722-4.529-14.069-7.189a2.878,2.878,0,0,0-4.409,2.8l.018.116a16.851,16.851,0,0,1,1.889.91q.524.3,1.025.627a2.508,2.508,0,0,1-1.011,4.564l-.051.008-.105.016a24.975,24.975,0,0,0,4.594,7.193c1.886,10.182,9.985,11.148,18.649,8.183h.005a61.177,61.177,0,0,0,4.11,12H97.148c.053-.163.1-.332.147-.495a16.681,16.681,0,0,1-4.062-.242c1.089-1.337,2.179-2.684,3.268-4.02a.9.9,0,0,0,.068-.079c.553-.684,1.11-1.363,1.663-2.047h0a24.433,24.433,0,0,0-.716-6.224h0Z" transform="translate(-18.205 -134.165)" fill="#f2f2f2"/>
    <path id="Path_16479" data-name="Path 16479" d="M146.07,368.926h23.691c4.052-13.643.022-45.886,5.362-59.064,10.246-25.268,23.336-51.93,47.768-64.268,10.432-5.268,21.806-7.326,33.422-7.214,16.046.152,32.544,4.46,47.648,10.168,6.178,2.33,12.3,4.892,18.4,7.51,22.974,9.872,45.7,20.625,70.4,23.531,31.263,3.675,68.02-10.312,76.558-40.44,6.517-23.067-5.22-47.014-17.529-67.614s-26.067-42.642-23.82-66.493c.008-.08.016-.168.032-.248.846-8.567,5.961-14.724,13.106-18.671H410c-.411,22.25,12.462,41.889,24.045,61.281,12.309,20.593,24.045,44.548,17.529,67.614-8.539,30.12-79.243-5.187-110.506-8.87-8.829-1.033,5.2,2.642-3.222,0-13.2-4.139-14.666,33.826-27.515,28.253-8-3.475-16.006-6.926-24.118-9.992-3.359-1.273-6.791-2.466-10.263-3.571a.023.023,0,0,1-.016-.008c-23.312-7.382-48.808-10.256-70.348.416-.145.072-.3.144-.443.216-24.432,12.33-37.522,38.991-47.768,64.26-8.466,20.889-7.135,61.17-11.307,83.2Z" transform="translate(-49.874 -29.407)" fill="#f2f2f2"/>
    <path id="Path_16480" data-name="Path 16480" d="M298.054,402.6C182.433,405.052,179.9,354.405,179.9,294.165S232.622,186.8,297.958,186.8s117.224,47.107,117.224,107.346S363.389,402.6,298.054,402.6Z" transform="translate(-61.424 -63.782)" fill="#fff"/>
    <path id="Path_16481" data-name="Path 16481" d="M297.054,402.627C181.433,405.076,178.9,354.43,178.9,294.189s53.154-109.247,118.49-109.247,118.49,49.009,118.49,109.247S362.389,402.627,297.054,402.627Zm.334-214.679c-63.538,0-114.16,47.668-115.23,106.242-1,54.481,61.777,122.465,115.23,106.243,28.665-29.107,109.708-60.457,115.23-106.243,7.021-58.223-51.691-106.242-115.23-106.242Z" transform="translate(-61.082 -63.148)" fill="#3f3d56"/>
    <path id="Path_16482" data-name="Path 16482" d="M0,515.27a.781.781,0,0,0,.784.784H471.848a.784.784,0,0,0,0-1.567H.784A.781.781,0,0,0,0,515.27Z" transform="translate(0 -175.666)" fill="#ccc"/>
    <path id="Path_16483" data-name="Path 16483" d="M475.75,484.177h-8.135l-3.87-31.377h12.006Z" transform="translate(-158.339 -154.604)" fill="#ffb6b6"/>
    <path id="Path_16484" data-name="Path 16484" d="M469.44,506.321H444.425V506a9.737,9.737,0,0,1,9.736-9.736h0l4.569-3.467,8.525,3.467h2.184v10.053Z" transform="translate(-151.742 -168.262)" fill="#2f2e41"/>
    <path id="Path_16485" data-name="Path 16485" d="M375.172,372.325a121.15,121.15,0,0,0-31.62-22.134l-5.944,6.71,3.786-7.731a121.148,121.148,0,0,0-99.479-.526L245,355.353l-4.743-5.962a121.063,121.063,0,0,0-33.149,22.791,5.493,5.493,0,0,0-1.729,3.555,5.166,5.166,0,0,0,1.512,4.012c1.495.708,3.625,2.332,6.79,6.789a5.229,5.229,0,0,0,7.3.045,100.768,100.768,0,0,1,140.172,0,5.229,5.229,0,0,0,7.3-.045c3.185-2.864,3.929-6.913,6.665-6.665a5.428,5.428,0,0,0,1.641-3.524,5.191,5.191,0,0,0-1.585-4.023Z" transform="translate(-70.121 -115.484)" fill="url(#linear-gradient)"/>
    <path id="Path_16486" data-name="Path 16486" d="M362.807,388.564h-8.135l-3.87-31.377h12.006Z" transform="translate(-119.777 -121.958)" fill="#ffb6b6"/>
    <path id="Path_16487" data-name="Path 16487" d="M356.5,410.708H331.482v-.316a9.737,9.737,0,0,1,9.736-9.736h0l4.569-3.467,8.525,3.467H356.5Z" transform="translate(-113.18 -135.616)" fill="#2f2e41"/>
    <path id="Path_16488" data-name="Path 16488" d="M440.089,229.417l-57.73,6.031-14.185,14.016-22.563,7.368a14.672,14.672,0,0,0-10.105,13.324c-.587,13.761-1.748,36.609-2.973,36.369-1.752-.342,1.75,8.219,4.2,7.722s5,5.085,3.308,6.078,1.129,9.484,1.129,9.484l17.671-2.847c2.212-16.684,10.29-34.27.769-46.545,16.125-5.233,30.33-9.608,40.775-12.305l5.649-2.344h0l11.729,124.621,16.587.272c4.577-23.544,6.876-44.734,3.3-59.851,0,0,.514-45.412,2.475-44.916s.3-5.419.3-5.419-1.718-5.038.393-7.129.793-14.384.793-14.384c3.488-11.634,2.438-21.24-1.522-29.546Z" transform="translate(-113.377 -78.333)" fill="#2f2e41"/>
    <path id="Path_16489" data-name="Path 16489" d="M472.217,146.753l1.715-7.693h0q2.409-10.772,4.81-21.534c2.1-9.4,4.213-19.129,2.4-28.588a28.406,28.406,0,0,0-1.135-4.187c-2.708-7.744-8.686-14.53-16.615-15.959l-1.3-4.827L444.41,61.788l-3.348,4.618c-7.207-.576-11.485,6.6-16.456,12.513l-1.976,1.976c-1.44,1.8-1.735,8.566-2.634,10.537-4,8.765,1.511.247,1.317,9.878-.2,9.981-2.163,19.666-2.365,29.646-.021,1.071-2.326,1.887-2.722,3.765-.214,1.013,1.571,2.893,1.3,4.026-.231.967.923,4.853.675,5.852-1.148,4.636-3.749,6.462-3.863,8.748a14.717,14.717,0,0,1-.392,2.61c-.142.608-2.136-.121-2.331.5-.326,1.037,1.109,3.425.716,4.462-.762,2.009-.249,5.556-.716,7.392-1.958,7.706-1.206,4.648-5.45,11.372,10.862,3.284,15.554,14.281,26.728,16.261q.755-2.442,1.506-4.9c1.481.1,2.971.184,4.461.266h0c.084,1.421.168,2.842.252,4.254a288.792,288.792,0,0,0,34.02.185,27.013,27.013,0,0,1-.908-3.481c-.622-3.279.715-6.836.858-10.082.1-2.4-1.042-4.448-1.009-7.038.008-.479,2.7-.882,2.691-1.371-.042-4.305-2.489-10.065-1.682-14.294.841-4.347-1.825-8.408-.866-12.729h0Z" transform="translate(-138.679 -21.098)" fill="#3f3d56"/>
    <path id="Path_16490" data-name="Path 16490" d="M377.872,32.905a5.664,5.664,0,0,0-5.658,5.658v34.09a5.664,5.664,0,0,0,5.658,5.658h10.547a5.664,5.664,0,0,0,5.658-5.658c1.681-17.129,1.063-26.373,0-34.09a5.664,5.664,0,0,0-5.658-5.658H377.872Z" transform="translate(-127.087 -11.237)" fill="#1cd244"/>
    <path id="Path_16491" data-name="Path 16491" d="M375.549,32.905a5.664,5.664,0,0,0-5.658,5.657c-.606,13.4-1.027,26.18,0,34.09a5.664,5.664,0,0,0,5.658,5.658H386.1a5.664,5.664,0,0,0,5.658-5.658V38.563a5.664,5.664,0,0,0-5.658-5.658Z" transform="translate(-126.082 -11.237)" fill="#3f3d56"/>
    <path id="Path_16492" data-name="Path 16492" d="M404.84,102.743s9.975-.4,4.9,3.9c-3.3,2.8-10.744,22.314-18.473,24.675a6.87,6.87,0,0,1-8.722-5.134l-7.007-32.658,9.152-1.392,5.578,25.847Z" transform="translate(-128.221 -31.46)" fill="#ffb6b6"/>
    <circle id="Ellipse_109" data-name="Ellipse 109" cx="6.473" cy="6.473" r="6.473" transform="translate(245.924 51.507)" fill="#ffb6b6"/>
    <path id="Path_16493" data-name="Path 16493" d="M418.478,79.661h0c5.93,4.453,7.676,19.056,3.95,25.468-7.123,12.256-21.166,21.693-21.765,20.382-.82-1.795-2.249.615-2.2,1.4s-2.657.554-2.342,1.389-1.82,1.016-2.747,1.5c0,0-8.486.143-11.163-3.729a21.041,21.041,0,0,1-3.036-9.224l-3.324-3.911,17.621-10.3-1.453,6.953,8.79-10.236,1.86-4.106,2.968-1.516.983-3.094,2.737-1.237,10.824-12.6-1.7,2.861Z" transform="translate(-128.329 -26.224)" fill="#3f3d56"/>
    <path id="Path_16494" data-name="Path 16494" d="M509.6,229.806a6.061,6.061,0,0,0,1.057-9.233L511.9,165.2l-10.942,1.7.772,53.711a6.094,6.094,0,0,0,7.868,9.2Z" transform="translate(-170.757 -56.406)" fill="#ffb6b6"/>
    <path id="Path_16495" data-name="Path 16495" d="M507.376,93.525s-.726.549,3,6.22c.738,1.125,1.238,5.66,1.588,11.578.114,1.928,1.212,3.282,1.3,5.434.072,1.826-.864,4.427-.808,6.321.03,1.01.783,1.889.808,2.9.011.421-.7.977-.694,1.4q.016.679.032,1.354c.256,11.248.311,21.406.565,21.235.542-.366-.8,1.525-.131,1.841s-.574,1.882-.253,2.694c.392.989-.1,2.081-.4,3.074-.888,2.867-1.079,5.33-1.852,6.692a4.761,4.761,0,0,1,2.22,5.4l-15.421-2.788c-1.88-3.012-1.609-6.173-.327-6.724l-.382-9.8-4.392-50.709,12.872-5.747,2.286-.366Z" transform="translate(-168.061 -31.935)" fill="#3f3d56"/>
    <path id="Path_16496" data-name="Path 16496" d="M369.69,46.181c-.221,0-.4.105-.4.235V48.3c0,.13.18.235.4.235s.4-.105.4-.235V46.417C370.092,46.287,369.911,46.181,369.69,46.181Z" transform="translate(-126.088 -15.77)" fill="#3f3d56"/>
    <path id="Path_16497" data-name="Path 16497" d="M369.69,53.752c-.221,0-.4.105-.4.235v3.645c0,.13.18.235.4.235s.4-.105.4-.235V53.987C370.092,53.858,369.911,53.752,369.69,53.752Z" transform="translate(-126.088 -18.355)" fill="#3f3d56"/>
    <path id="Path_16498" data-name="Path 16498" d="M403.685,54.752a.455.455,0,0,0-.4.493V62.89a.41.41,0,1,0,.8,0V55.245A.455.455,0,0,0,403.685,54.752Z" transform="translate(-137.693 -18.696)" fill="#3f3d56"/>
    <path id="Path_16499" data-name="Path 16499" d="M368.69,62.609c-.221,0-.4.105-.4.235v3.645c0,.13.18.235.4.235s.4-.105.4-.235V62.844C369.092,62.714,368.911,62.609,368.69,62.609Z" transform="translate(-125.747 -21.379)" fill="#3f3d56"/>
    <circle id="Ellipse_110" data-name="Ellipse 110" cx="16.533" cy="16.533" r="16.533" transform="translate(296.805 5.914)" fill="#ffb6b6"/>
    <path id="Path_16500" data-name="Path 16500" d="M483.81,30.043a12.743,12.743,0,0,1-4.751,5.642,7.889,7.889,0,0,1-.274-1.007c-.237.531-.469,1.061-.712,1.593-1.412.788.112-.428-2.2.454l-1.944-3.336c-.532-1.584.222-3.308,1.181-4.679a16.974,16.974,0,0,0,2.677-4.2c.521-1.587.059-3.689-1.5-4.279-1.537-.59-3.235.529-4.869.335-1.886-.222-3.169-2.2-3.271-4.094a12.32,12.32,0,0,1,1.43-5.458c-2.284,1.637-9.358,4.569-13.209,4.709a4.768,4.768,0,0,0-1.554-3.127,4.34,4.34,0,0,1-.744,3.11c-3.77-.193-4.479,5.283-6.426,3.3.608-.306-1.632-7.112-1.024-7.418q-.7-1.922-1.4-3.833c.866.218,1.739.441,2.611.658a3.731,3.731,0,0,1,.417-1.331,9.027,9.027,0,0,1,1.97-.832c.222-.059.449-.12.678-.169a9.069,9.069,0,0,1,1.029-.168c-.5-.291-1.007-.575-1.51-.871-.06-.034-.114-.069-.174-.1a19.286,19.286,0,0,1,2.207-1.31c3.222-1.685,6.565-3.4,10.2-3.613a10.212,10.212,0,0,1,6.617,1.9,9.156,9.156,0,0,0,5.693,1.713,6.521,6.521,0,0,1,2.862.637,9.17,9.17,0,0,1-1.337,1.112c1.048.027,2.09.056,3.139.089a14.472,14.472,0,0,1,2.933,3.715c3.675,6.279,4.515,14.353,1.26,20.857Z" transform="translate(-152.013 0)" fill="#2f2e41"/>
    <path id="Path_16501" data-name="Path 16501" d="M363.278,427.854a5.242,5.242,0,0,0-2.813-3.889,119.311,119.311,0,0,0-21.869-8.594l-7.07,9.32,5.225-9.834a120.522,120.522,0,0,0-59.143-.839l2.719,7.5-4.441-7.067a119.6,119.6,0,0,0-25.314,9.518,5.285,5.285,0,0,0-1.331,8.439c3.056.188,5.075,3.028,7.089,7.089a5.259,5.259,0,0,0,5.976.995,100.609,100.609,0,0,1,86.426,0,5.256,5.256,0,0,0,5.975-.995c1.211-3.284,3.707-5.226,7.09-7.089a5.225,5.225,0,0,0,1.482-4.549Z" transform="translate(-84.572 -140.243)" fill="url(#linear-gradient)"/>
    <path id="Path_16502" data-name="Path 16502" d="M342.557,484.715q-2.322-.365-4.672-.637l-6.142,9.772,4.576-9.939a122.714,122.714,0,0,0-22.376-.235l4.684,10.175-6.306-10.034q-3.61.342-7.167.9a4.362,4.362,0,0,0-3.526,3.016,4.486,4.486,0,0,0,1.094,4.582c2.536,2.484,5.332,5.934,9.927,9.927a4.411,4.411,0,0,0,3.461,1.3c2.546-.188,5.152-.284,7.745-.284h0c2.593,0,5.2.1,7.745.284a4.424,4.424,0,0,0,3.461-1.3c4.745-4.051,7.143-7.765,9.927-9.927a4.485,4.485,0,0,0,1.094-4.582A4.361,4.361,0,0,0,342.557,484.715Z" transform="translate(-102.91 -165.009)" fill="url(#linear-gradient)"/>
  </g>
</svg>
