<svg xmlns="http://www.w3.org/2000/svg" xmlns:xlink="http://www.w3.org/1999/xlink" width="407" height="345.22" viewBox="0 0 407 345.22">
  <defs>
    <linearGradient id="linear-gradient" x1="0.5" x2="0.5" y2="1" gradientUnits="objectBoundingBox">
      <stop offset="0" stop-color="#128c7e"/>
      <stop offset="1" stop-color="#09463f"/>
    </linearGradient>
  </defs>
  <g id="undraw_lost_online_re_upmy" transform="translate(-0.003 -0.019)">
    <path id="Path_16503" data-name="Path 16503" d="M529.443,201.544c-20.354,26.028-58.76,31.989-90.537,22.923a147.363,147.363,0,0,1-29.911-12.452c-5.508-2.991-10.884-6.272-16.15-9.768-1.3-.856-2.591-1.726-3.874-2.613q-1.311-.9-2.613-1.814c-10.875-7.651-21.324-16.045-31.6-24.39-25.646-20.832-52-42.306-83.505-52.246-6.492-2.047-14.89-3-18.9,2.495-3.483,4.774-1.357,11.534,1.59,16.655,10.932,18.97,30.776,30.948,50.638,40.158s40.9,16.673,58.167,30.14,30.447,34.87,26.916,56.476c-3.044,18.619-18.245,33.746-35.92,40.338s-37.387,5.67-55.76,1.392-35.814-11.754-53.546-18.193c-10.691-3.887-24.667-6.575-31.76,2.319-5.991,7.515-2.547,19.37,4.748,25.624s17.169,8.35,26.591,10.23q43.879,8.763,87.757,17.521c8.973,1.788,18.157,3.659,25.976,8.42s14.126,13.067,13.9,22.216c-.224,9.017-6.826,16.985-14.916,20.977s-17.424,4.6-26.432,4.173c-33.759-1.616-130.542-55.25-153.755-62.106-14.916-4.4-31.224-10.866-37.514-25.089-7.831-17.705,5.056-39.126,22.646-47.212s37.975-6.3,57.143-3.575,38.968,6.189,57.626,1.015,35.753-22.04,33.913-41.313c-1.6-16.77-16.708-29.406-32.6-34.975-12.443-4.361-25.681-5.547-38.753-7.511-3.628-.54-7.243-1.146-10.823-1.893A134.878,134.878,0,0,1,201.5,170.9,137.443,137.443,0,0,1,176,156.268a134.078,134.078,0,0,1-17.709-15.377q-1.245-1.291-2.464-2.64c-.773-.861-1.537-1.739-2.284-2.635-9.716-11.609-16.893-25.905-14.74-40.637,2.148-14.692,13.6-26.924,27.232-32.8a67.2,67.2,0,0,1,24.983-5.135A102.689,102.689,0,0,1,209.81,58.4c28.73,4.594,55.057,18.553,79.921,33.667s49.088,31.7,76.113,42.477,57.789,15.342,85.205,5.6,49.94-36.324,48.6-65.387c18.184,15.658,33.636,35.34,40.479,58.338S544.223,182.639,529.443,201.544Z" transform="translate(-136.684 -57.003)" fill="#3f3d56"/>
    <circle id="Ellipse_111" data-name="Ellipse 111" cx="3.197" cy="3.197" r="3.197" transform="translate(258.544 108.111)" fill="#1cd244"/>
    <circle id="Ellipse_112" data-name="Ellipse 112" cx="4.942" cy="4.942" r="4.942" transform="translate(369.68 64.2)" fill="#ff6584"/>
    <circle id="Ellipse_113" data-name="Ellipse 113" cx="1.826" cy="1.826" r="1.826" transform="translate(48.648 222.802)" fill="#ff6584"/>
    <path id="Path_16504" data-name="Path 16504" d="M322.313,304.538a19.513,19.513,0,0,1-.571,4.7c-3.628-.54-7.243-1.146-10.823-1.893a134.879,134.879,0,0,1-26.683-8.565,19.474,19.474,0,0,1,38.076,5.758Z" transform="translate(-219.426 -184.884)" fill="#ff6584"/>
    <circle id="Ellipse_114" data-name="Ellipse 114" cx="1.868" cy="1.868" r="1.868" transform="translate(341.13 99.338)" fill="#f0f0f0"/>
    <circle id="Ellipse_115" data-name="Ellipse 115" cx="1.868" cy="1.868" r="1.868" transform="translate(170.271 304.895)" fill="#f0f0f0"/>
    <circle id="Ellipse_116" data-name="Ellipse 116" cx="1.868" cy="1.868" r="1.868" transform="translate(197.064 330.81)" fill="#f0f0f0"/>
    <circle id="Ellipse_117" data-name="Ellipse 117" cx="1.868" cy="1.868" r="1.868" transform="translate(31.476 257.02)" fill="#f0f0f0"/>
    <circle id="Ellipse_118" data-name="Ellipse 118" cx="1.868" cy="1.868" r="1.868" transform="translate(123.274 222.321)" fill="#f0f0f0"/>
    <circle id="Ellipse_119" data-name="Ellipse 119" cx="1.868" cy="1.868" r="1.868" transform="translate(114.051 36.968)" fill="#f0f0f0"/>
    <circle id="Ellipse_120" data-name="Ellipse 120" cx="1.868" cy="1.868" r="1.868" transform="translate(226.931 183.23)" fill="#f0f0f0"/>
    <circle id="Ellipse_121" data-name="Ellipse 121" cx="1.868" cy="1.868" r="1.868" transform="translate(240.987 215.733)" fill="#f0f0f0"/>
    <path id="Path_16505" data-name="Path 16505" d="M291.527,160.557q3.986-1.2,7.626-2.607c14.916-5.761,23.471-13.577,23.471-21.443s-8.555-15.682-23.471-21.443q-2.213-.855-4.562-1.635a59.884,59.884,0,0,1-3.064,47.129Z" transform="translate(-223.514 -88.634)" fill="none"/>
    <path id="Path_16506" data-name="Path 16506" d="M213.409,101.826a59.489,59.489,0,0,1-6.5,27.127q-.85,1.66-1.8,3.263a59.924,59.924,0,0,1-26.894,24.078A134.081,134.081,0,0,1,160.5,140.917q-1.245-1.291-2.464-2.64c-.773-.861-1.537-1.739-2.284-2.635-9.716-11.609-16.893-25.905-14.74-40.637,2.148-14.692,13.6-26.924,27.232-32.8a67.2,67.2,0,0,1,24.983-5.134,59.79,59.79,0,0,1,15.518,21.592c.439,1.041.843,2.1,1.225,3.162a59.627,59.627,0,0,1,3.435,20Z" transform="translate(-138.896 -57.029)" fill="url(#linear-gradient)"/>
    <path id="Path_16507" data-name="Path 16507" d="M259.951,132.468c0,9.149-8.934,17.635-25.159,23.9-3.246,1.256-6.72,2.394-10.375,3.413-13.678,3.812-29.955,5.925-47.067,6.061-.773-.861-1.537-1.739-2.284-2.635.184,0,.369,0,.553,0,18.584,0,36.214-2.354,50.6-6.694,2.657-.8,5.2-1.673,7.625-2.609,14.916-5.758,23.472-13.576,23.472-21.443s-8.556-15.68-23.472-21.443q-2.214-.856-4.559-1.634c-.382-1.067-.786-2.121-1.225-3.162q3.5,1.094,6.733,2.337C251.017,114.833,259.951,123.324,259.951,132.468Z" transform="translate(-158.206 -84.597)" fill="#e4e4e4"/>
    <circle id="Ellipse_122" data-name="Ellipse 122" cx="1.868" cy="1.868" r="1.868" transform="translate(18.299 11.493)" fill="#f0f0f0"/>
    <circle id="Ellipse_123" data-name="Ellipse 123" cx="1.868" cy="1.868" r="1.868" transform="translate(57.391 23.352)" fill="#f0f0f0"/>
    <circle id="Ellipse_124" data-name="Ellipse 124" cx="18.161" cy="18.161" r="18.161" transform="translate(20.892 25.945)" fill="#f0f0f0"/>
    <path id="Path_16508" data-name="Path 16508" d="M833.229,376.239c-4.076,1.2-13.063,2.091-22.945,2.635s-20.714.777-31.413,1.006q-28.093.606-56.181,1.217-3.861.086-7.748.158c-1.3-.856-2.591-1.726-3.874-2.613,2.3.013,4.594,0,6.874-.044,9.738-.193,17.982-.953,27.372-1.313,14.45-.558,30.052-.119,45.113.105S822.647,377.535,833.229,376.239Z" transform="translate(-458.782 -236.012)" fill="#f0f0f0" opacity="0.3"/>
    <path id="Path_16509" data-name="Path 16509" d="M258.546,627.973l-59.7-49.734,58,51.726a1.384,1.384,0,1,0,1.7-1.992Z" transform="translate(-171.541 -349.288)" fill="#f0f0f0" opacity="0.3"/>
    <circle id="Ellipse_125" data-name="Ellipse 125" cx="1.868" cy="1.868" r="1.868" transform="translate(39.821 86.601)" fill="#f0f0f0"/>
    <path id="Path_16510" data-name="Path 16510" d="M452.015,656.032h7.725l3.675-29.8h-11.4Z" transform="translate(-253.476 -351.167)" fill="#ffb6b6"/>
    <path id="Path_16511" data-name="Path 16511" d="M584.215,740.927h2.174l8.489-3.452,4.55,3.452h0a9.7,9.7,0,0,1,9.695,9.694v.316H584.216Z" transform="translate(-387.646 -438.584)" fill="#2f2e41"/>
    <path id="Path_16512" data-name="Path 16512" d="M305.754,656.032h-7.725l-3.675-29.8h11.4Z" transform="translate(-165.064 -351.167)" fill="#ffb6b6"/>
    <path id="Path_16513" data-name="Path 16513" d="M429.676,750.937H404.768v-.315a9.7,9.7,0,0,1,9.694-9.695h0l4.55-3.452,8.489,3.452h2.174Z" transform="translate(-287.017 -438.584)" fill="#2f2e41"/>
    <path id="Path_16514" data-name="Path 16514" d="M482.679,231.191l-7.822,5.956-20.778,5.5s7.445,52.25,3.931,55.764-.345,3.608-1.051,8.173-3.52,16.616-3.52,16.616h62.013s.5-7.49-2.557-9.112,2.818-9.193.32-10.458,1.016-12.246,1.016-12.246l7.615-35.95-20.254-15.847-3.08-7.422Z" transform="translate(-314.311 -154.673)" fill="url(#linear-gradient)"/>
    <circle id="Ellipse_126" data-name="Ellipse 126" cx="2.706" cy="2.706" r="2.706" transform="translate(175.421 117.796)" fill="#f2f2f2"/>
    <path id="Path_16515" data-name="Path 16515" d="M438.242,440.678l-2.557,65.849s-11.042,48.635-9.124,49.914,2.73,8.9,2.73,8.9l10.868,1.279s0-5.114,2.557-7.032,26.212-92.061,26.212-92.061L492,554.683s.578,4.906,2.5,4.906,2.557,7.032,2.557,7.032h10.868v-7.032a4.83,4.83,0,0,0,2.965-6.663c-1.918-5.114-10.637-112.249-10.637-112.249Z" transform="translate(-299.112 -272.147)" fill="#2f2e41"/>
    <circle id="Ellipse_127" data-name="Ellipse 127" cx="13.106" cy="13.106" r="13.106" transform="translate(163.384 46.383)" fill="#ffb6b6"/>
    <path id="Path_16516" data-name="Path 16516" d="M452.85,260.435l2.557,1.918,1.279-8.951Z" transform="translate(-253.945 -142.091)" opacity="0.1"/>
    <path id="Path_16517" data-name="Path 16517" d="M439.73,257.136s-3.2-.639-5.115,5.115-8.95,27.49-8.95,31.326,43.8,20.761,43.8,20.761L464.9,298.352l-20.059-10.529Z" transform="translate(-298.735 -169.21)" fill="url(#linear-gradient)"/>
    <circle id="Ellipse_128" data-name="Ellipse 128" cx="7.467" cy="7.467" r="7.467" transform="translate(165.289 127.824)" fill="#ffb6b6"/>
    <path id="Path_16518" data-name="Path 16518" d="M331.316,252l.585,7.919,18.549,9.736-16.5-11.066Z" transform="translate(-185.792 -141.303)" opacity="0.1"/>
    <path id="Path_16519" data-name="Path 16519" d="M541.643,298.283H541.4v-6.592a3.815,3.815,0,0,0-3.815-3.815H523.621a3.815,3.815,0,0,0-3.815,3.815v36.164a3.815,3.815,0,0,0,3.815,3.815h13.966a3.815,3.815,0,0,0,3.815-3.815v-24.88h.241Z" transform="translate(-351.527 -186.46)" fill="#f0f0f0"/>
    <path id="Path_16520" data-name="Path 16520" d="M583.065,286.39s1.918,1.279,3.2,7.032,9.59,27.49,6.393,32.6-4.14,10.573-15.008,2.9l-15.039-13.77,10.868-10.229,4.475,3.2Z" transform="translate(-375.529 -185.627)" fill="url(#linear-gradient)"/>
    <circle id="Ellipse_129" data-name="Ellipse 129" cx="3.197" cy="3.197" r="3.197" transform="translate(176.051 111.141)" fill="#1cd244"/>
    <circle id="Ellipse_130" data-name="Ellipse 130" cx="7.467" cy="7.467" r="7.467" transform="translate(181.034 113.874)" fill="#ffb6b6"/>
    <path id="Path_16521" data-name="Path 16521" d="M329.754,306.41l21.435,9.482-22.031-4.306Z" transform="translate(-184.582 -171.816)" opacity="0.1"/>
    <path id="Path_16522" data-name="Path 16522" d="M505.011,169.2l-1.8-6.848a17.7,17.7,0,0,1-.837-5.454,5.985,5.985,0,0,1,2.442-4.747,3.669,3.669,0,0,1,4.926.79c.19-2.481,2.447-4.389,4.841-5.065s4.936-.409,7.422-.295,5.109.034,7.253-1.226a2.245,2.245,0,0,1-1.005,2.653,2.18,2.18,0,0,0,2.633-1.389A5.657,5.657,0,0,1,529.4,151.5a4.161,4.161,0,0,1,5.379,1.523c1.095,1.9.481,4.281-.159,6.376l-3.287,10.753a36.846,36.846,0,0,1-.859-5.049,9.327,9.327,0,0,0-1.855-4.708,4.229,4.229,0,0,0-4.59-1.4,14.89,14.89,0,0,0-2.368,1.619,8.619,8.619,0,0,1-5.694,1.014c-1.955-.219-3.86-.776-5.815-1a3.589,3.589,0,0,0-4.716,3.114,19.1,19.1,0,0,0-.509,5.508" transform="translate(-341.744 -107.097)" fill="#2f2e41"/>
  </g>
</svg>
