<svg id="Layer_2" data-name="Layer 2" xmlns="http://www.w3.org/2000/svg" width="63.19" height="63.121" viewBox="0 0 63.19 63.121">
  <g id="Layer_1" data-name="Layer 1">
    <path id="Path_16780" data-name="Path 16780" d="M7.287,15.18A13.029,13.029,0,0,0,5.66,17.487,12.6,12.6,0,0,1,7.1,15.379c.058-.066.112-.133.17-.2Z" transform="translate(-4.027 -10.802)" fill="#00e0b7"/>
    <path id="Path_16781" data-name="Path 16781" d="M.084,38.932h0a1.007,1.007,0,0,0,0,.162,1.384,1.384,0,0,0,.453.865,3.914,3.914,0,0,0,1.4.865,15.953,15.953,0,0,0,3.983.865,48.507,48.507,0,0,0,5.48.251c.467,0,.935-.046,1.4-.046.234,0,.34-.078.369-.26a2.033,2.033,0,0,1,0-.239c.014-.822,0-1.641.029-2.466v2.25c0,.614-.052.562.577.577,6.438.026,12.879,0,19.325.04,5.512.043,11.03,0,16.545,0a1.18,1.18,0,0,0,.288-.017h.052A.049.049,0,0,0,50,41.761a.072.072,0,0,0,.023-.035.211.211,0,0,0,.02-.084,2.033,2.033,0,0,0,0-.239c-.017-.9,0-1.806-.032-2.708,0-.5-.02-1-.029-1.5V32.71a4.26,4.26,0,0,0,2.1,1.584A28.525,28.525,0,0,0,56.576,35.6a26.1,26.1,0,0,1,4.811,1.442,3.585,3.585,0,0,1,1.48,1.113,1.6,1.6,0,0,1,.323.756V74.977A13.147,13.147,0,0,1,51.468,86.4H11.852A13.141,13.141,0,0,1,0,74.328H0" transform="translate(0 -23.275)" fill="#5cd5c4"/>
    <path id="Path_16782" data-name="Path 16782" d="M67.706,4.364c-.6.136-1.206.248-1.808.363A41.706,41.706,0,0,0,60.835,5.9,7.4,7.4,0,0,0,58.7,6.905a2.221,2.221,0,0,0-1.035,1.921v.606h0V13.92c0,.5.017,1,.029,1.5.02.9,0,1.806.032,2.708a2.033,2.033,0,0,1,0,.239.211.211,0,0,1-.02.084.072.072,0,0,1-.023.035.049.049,0,0,1-.017.017H57.61a1.18,1.18,0,0,1-.288.017c-5.515,0-11.033.029-16.545,0-6.438-.052-12.879,0-19.325-.04-.614,0-.577.049-.577-.577V15.65c0-2.051,0-4.1.029-6.149V9.429c.035-1.676-.384-2.371-2.172-3.173A13.355,13.355,0,0,0,17.1,5.662L16.858,5.6c-.211-.061-.424-.115-.637-.167C16.113,5.4,16,5.376,15.9,5.35c-.75-.173-1.511-.314-2.267-.464-.453-.092-.909-.176-1.364-.262-.228-.043-.453-.087-.681-.136s-.438-.089-.658-.138H10.91A13.1,13.1,0,0,1,19.381,0H59.3A13.092,13.092,0,0,1,67.706,4.364Z" transform="translate(-7.763)" fill="#37a596" fill-rule="evenodd"/>
    <path id="Path_16783" data-name="Path 16783" d="M186.273,22.139V26.4a1.6,1.6,0,0,0-.323-.756,3.585,3.585,0,0,0-1.48-1.113,25.053,25.053,0,0,0-4.811-1.442,28.706,28.706,0,0,1-4.494-1.307,4.26,4.26,0,0,1-2.1-1.584h0V19.6a2.221,2.221,0,0,1,1.021-1.921,7.4,7.4,0,0,1,2.132-1.012,41.708,41.708,0,0,1,5.065-1.171c.6-.115,1.209-.228,1.808-.363A13.1,13.1,0,0,1,186.273,22.139Z" transform="translate(-123.149 -10.766)" fill="#5cd5c4"/>
    <path id="Path_16784" data-name="Path 16784" d="M13.443,20.226V20.3A4.406,4.406,0,0,1,11.4,21.8,28.836,28.836,0,0,1,6.9,23.111a26.1,26.1,0,0,0-4.811,1.442,3.594,3.594,0,0,0-1.48,1.116,1.6,1.6,0,0,0-.323.756V22.742a13.343,13.343,0,0,1,1.54-5.27v-.014A13.029,13.029,0,0,1,3.457,15.15c.219.049.438.1.658.138s.453.092.681.136c.456.087.911.17,1.364.262.756.15,1.517.288,2.267.464.107.026.216.049.323.078.213.052.427.107.637.167l.239.066a13.354,13.354,0,0,1,1.635.594C13.059,17.856,13.474,18.551,13.443,20.226Z" transform="translate(-0.206 -10.78)" fill="#5cd5c4"/>
    <path id="Path_16785" data-name="Path 16785" d="M13.4,41.687a2.033,2.033,0,0,0,0,.239c-.029.182-.136.26-.369.26-.467,0-.935.046-1.4.046a48.509,48.509,0,0,1-5.48-.251,15.953,15.953,0,0,1-3.983-.865,3.914,3.914,0,0,1-1.4-.865,1.384,1.384,0,0,1-.453-.865,1.007,1.007,0,0,1,0-.162h0a1.6,1.6,0,0,1,.323-.753,3.594,3.594,0,0,1,1.48-1.116,25.469,25.469,0,0,1,4.811-1.442,28.927,28.927,0,0,0,4.494-1.307A4.31,4.31,0,0,0,13.465,33.1c-.04,2.051-.032,4.1-.029,6.149C13.41,40.046,13.413,40.859,13.4,41.687Z" transform="translate(-0.22 -23.553)" fill="#d6fff7"/>
    <path id="Path_16786" data-name="Path 16786" d="M186.41,39.042a1.379,1.379,0,0,1-.453.865,3.914,3.914,0,0,1-1.4.865,15.953,15.953,0,0,1-3.983.865,48.456,48.456,0,0,1-5.48.251c-.467,0-.935-.046-1.4-.046-.237,0-.343-.078-.372-.26a2.034,2.034,0,0,0,0-.239c-.017-.9,0-1.806-.032-2.708,0-.5-.02-1-.029-1.5V32.65a4.26,4.26,0,0,0,2.1,1.584,28.526,28.526,0,0,0,4.494,1.307,26.1,26.1,0,0,1,4.811,1.442,3.585,3.585,0,0,1,1.48,1.113,1.6,1.6,0,0,1,.323.756h0a1.006,1.006,0,0,1-.055.19Z" transform="translate(-123.286 -23.233)" fill="#d6fff7" fill-rule="evenodd"/>
    <path id="Path_16787" data-name="Path 16787" d="M88.009,136.124A15.757,15.757,0,0,1,82.936,140a22.227,22.227,0,0,1-8.748,2.189c-.187,0-.372.02-.557.035l-.329.023h-.038a20.069,20.069,0,0,1-8.324-1.921,20.718,20.718,0,0,1-5.547-3.75l-.052-.052a1.947,1.947,0,0,1-.7-1.177,1.78,1.78,0,0,1,.955-1.86,1.956,1.956,0,0,1,2.267.372,15.691,15.691,0,0,0,6.885,4.327,13.622,13.622,0,0,0,5.31.614,21.733,21.733,0,0,0,4.9-.88,14.361,14.361,0,0,0,5.48-3.277l.176-.162a11.2,11.2,0,0,1,.883-.773,1.794,1.794,0,0,1,1.338-.372,1.869,1.869,0,0,1,1.24.738A1.546,1.546,0,0,1,88.009,136.124Z" transform="translate(-41.71 -94.837)" fill="#fff"/>
    <path id="Path_16788" data-name="Path 16788" d="M53.66,98.852a.989.989,0,0,1-1.113,0l-.528-.288c-.314-.164-.629-.329-.94-.5a3.9,3.9,0,0,0-3.75,0c-.816.4-1.477.73-2.08,1.061-.107.061-.216.115-.326.17a1.211,1.211,0,0,1-.539.141.94.94,0,0,1-.577-.2.975.975,0,0,1-.288-1.1,5.979,5.979,0,0,1,1.1-2.169,5.653,5.653,0,0,1,4.231-2.307h.026a5.241,5.241,0,0,1,4.869,3.277,6.75,6.75,0,0,1,.257.738A.966.966,0,0,1,53.66,98.852Z" transform="translate(-30.92 -66.645)" fill="#fff"/>
    <path id="Path_16789" data-name="Path 16789" d="M148.464,99.044a.975.975,0,0,1-1.136.066c-.513-.288-1.03-.554-1.543-.825a3.851,3.851,0,0,0-3.605-.009c-.707.329-1.41.7-2.094,1.061l-.343.182a1.316,1.316,0,0,1-.606.176.891.891,0,0,1-.594-.228.978.978,0,0,1-.254-1.154,6.04,6.04,0,0,1,4.681-4.327,3.69,3.69,0,0,1,.557-.058h.251a5.241,5.241,0,0,1,5,4.1.969.969,0,0,1-.317,1.018Z" transform="translate(-98.337 -66.837)" fill="#fff"/>
  </g>
</svg>
