<svg xmlns="http://www.w3.org/2000/svg" xmlns:xlink="http://www.w3.org/1999/xlink" width="315.593" height="250" viewBox="0 0 315.593 250">
  <defs>
    <linearGradient id="linear-gradient" x1="0.5" x2="0.5" y2="1" gradientUnits="objectBoundingBox">
      <stop offset="0" stop-color="#128c7e"/>
      <stop offset="1" stop-color="#09463f"/>
    </linearGradient>
    <linearGradient id="linear-gradient-4" x1="0.5" x2="0.5" y2="1" gradientUnits="objectBoundingBox">
      <stop offset="0" stop-color="#298470"/>
      <stop offset="1" stop-color="#154238"/>
    </linearGradient>
  </defs>
  <g id="undraw_messages_re_qy9x" transform="translate(0 0)">
    <path id="Path_507" data-name="Path 507" d="M640.26,144.934h-1.372V107.356a21.749,21.749,0,0,0-21.749-21.749H537.525a21.749,21.749,0,0,0-21.749,21.749V313.512a21.749,21.749,0,0,0,21.749,21.749h79.614a21.749,21.749,0,0,0,21.749-21.749V171.682h1.372Z" transform="translate(-386.871 -85.607)" fill="#3f3d56"/>
    <path id="Path_508" data-name="Path 508" d="M645.753,118.344V324.2a16.243,16.243,0,0,1-16.242,16.243h-80A16.243,16.243,0,0,1,533.272,324.2V118.344A16.243,16.243,0,0,1,549.514,102.1h9.7a7.721,7.721,0,0,0,7.145,10.631h45.61A7.721,7.721,0,0,0,619.12,102.1h10.391a16.243,16.243,0,0,1,16.243,16.242Z" transform="translate(-398.366 -96.443)" fill="#fff"/>
    <path id="Path_509" data-name="Path 509" d="M572.03,157.758a10.977,10.977,0,1,0,0,21.954h0a10.977,10.977,0,1,0,0-21.954Z" transform="translate(-416.617 -133.007)" fill="#e6e6e6"/>
    <path id="Path_510" data-name="Path 510" d="M709.765,206.247h-57.63a2.744,2.744,0,1,1,0-5.489h57.63a2.744,2.744,0,1,1,0,5.489Z" transform="translate(-474.651 -161.257)" fill="#e6e6e6"/>
    <path id="Path_511" data-name="Path 511" d="M670.316,172.247H652.135a2.744,2.744,0,1,1,0-5.489h18.181a2.744,2.744,0,0,1,0,5.489Z" transform="translate(-474.651 -138.92)" fill="#e6e6e6"/>
    <path id="Path_512" data-name="Path 512" d="M572.03,291.758a10.977,10.977,0,1,0,0,21.954h0a10.977,10.977,0,1,0,0-21.954Z" transform="translate(-416.617 -221.041)" fill="#e6e6e6"/>
    <path id="Path_513" data-name="Path 513" d="M709.765,340.247h-57.63a2.744,2.744,0,1,1,0-5.489h57.63a2.744,2.744,0,1,1,0,5.489Z" transform="translate(-474.651 -249.29)" fill="#e6e6e6"/>
    <path id="Path_514" data-name="Path 514" d="M670.316,306.247H652.135a2.744,2.744,0,1,1,0-5.489h18.181a2.744,2.744,0,0,1,0,5.489Z" transform="translate(-474.651 -226.953)" fill="#e6e6e6"/>
    <path id="Path_515" data-name="Path 515" d="M572.03,559.758a10.977,10.977,0,1,0,0,21.954h0a10.977,10.977,0,1,0,0-21.954Z" transform="translate(-416.617 -397.107)" fill="#e6e6e6"/>
    <path id="Path_516" data-name="Path 516" d="M709.765,608.247h-57.63a2.744,2.744,0,1,1,0-5.489h57.63a2.744,2.744,0,1,1,0,5.489Z" transform="translate(-474.651 -425.356)" fill="#e6e6e6"/>
    <path id="Path_517" data-name="Path 517" d="M670.316,574.246H652.135a2.744,2.744,0,1,1,0-5.489h18.181a2.744,2.744,0,0,1,0,5.489Z" transform="translate(-474.651 -403.02)" fill="#e6e6e6"/>
    <path id="Path_518" data-name="Path 518" d="M572.03,693.758a10.977,10.977,0,1,0,0,21.954h0a10.977,10.977,0,1,0,0-21.954Z" transform="translate(-416.617 -485.14)" fill="#e6e6e6"/>
    <path id="Path_519" data-name="Path 519" d="M709.765,742.247h-57.63a2.744,2.744,0,1,1,0-5.489h57.63a2.744,2.744,0,1,1,0,5.489Z" transform="translate(-474.651 -513.39)" fill="#e6e6e6"/>
    <path id="Path_520" data-name="Path 520" d="M670.316,708.247H652.135a2.744,2.744,0,1,1,0-5.489h18.181a2.744,2.744,0,0,1,0,5.489Z" transform="translate(-474.651 -491.053)" fill="#e6e6e6"/>
    <path id="Path_521" data-name="Path 521" d="M625.794,431.615H493.382a5.666,5.666,0,0,1-5.66-5.66V383.418a5.666,5.666,0,0,1,5.66-5.66H625.794a5.667,5.667,0,0,1,5.66,5.66v42.537a5.667,5.667,0,0,1-5.66,5.66Z" transform="translate(-368.441 -277.54)" fill="#fff" stroke="#1cd244" stroke-width="1"/>
    <path id="Path_522" data-name="Path 522" d="M521.585,441.9a15.686,15.686,0,1,1,15.686-15.686A15.686,15.686,0,0,1,521.585,441.9Zm0-30.685a15,15,0,1,0,15,15,15,15,0,0,0-15-15Z" transform="translate(-380.382 -299.071)" fill="#3f3d56"/>
    <path id="Path_523" data-name="Path 523" d="M714.754,479.3H634.205a3.836,3.836,0,0,1,0-7.671h80.549a3.836,3.836,0,1,1,0,7.671Z" transform="translate(-462.155 -339.212)" fill="url(#linear-gradient)"/>
    <path id="Path_524" data-name="Path 524" d="M659.617,431.782H634.205a3.836,3.836,0,0,1,0-7.671h25.411a3.836,3.836,0,0,1,0,7.671Z" transform="translate(-462.155 -307.992)" fill="url(#linear-gradient)"/>
    <path id="Path_525" data-name="Path 525" d="M625.794,431.615H493.382a5.666,5.666,0,0,1-5.66-5.66V383.418a5.666,5.666,0,0,1,5.66-5.66H625.794a5.667,5.667,0,0,1,5.66,5.66v42.537a5.667,5.667,0,0,1-5.66,5.66ZM493.382,378.1a5.323,5.323,0,0,0-5.317,5.317v42.537a5.323,5.323,0,0,0,5.317,5.317H625.794a5.323,5.323,0,0,0,5.317-5.317V383.418a5.323,5.323,0,0,0-5.317-5.317Z" transform="translate(-368.441 -277.54)" fill="none"/>
    <circle id="Ellipse_55" data-name="Ellipse 55" cx="6.399" cy="6.399" r="6.399" transform="translate(134.526 121.982)" fill="#2f2e41"/>
    <ellipse id="Ellipse_56" data-name="Ellipse 56" cx="2.648" cy="1.986" rx="2.648" ry="1.986" transform="translate(131.251 123.995) rotate(-45)" fill="#2f2e41"/>
    <ellipse id="Ellipse_57" data-name="Ellipse 57" cx="1.986" cy="2.648" rx="1.986" ry="2.648" transform="translate(141.945 122.646) rotate(-66.869)" fill="#2f2e41"/>
    <circle id="Ellipse_58" data-name="Ellipse 58" cx="5.431" cy="5.431" r="5.431" transform="translate(135.697 124.478)" fill="#ffb8b8"/>
    <path id="Path_526" data-name="Path 526" d="M534.774,448.781a7.387,7.387,0,0,0,4.221,1.3,4.526,4.526,0,0,1-1.794.738,14.894,14.894,0,0,0,6.084.034,3.938,3.938,0,0,0,1.273-.437,1.612,1.612,0,0,0,.786-1.051,2.173,2.173,0,0,0-1.078-1.922,7.953,7.953,0,0,0-6.683-1.335,3.661,3.661,0,0,0-1.979,1.119,1.8,1.8,0,0,0-.167,2.141Z" transform="translate(-399.352 -322.289)" fill="#2f2e41"/>
    <path id="Path_527" data-name="Path 527" d="M317.421,548.28a3.685,3.685,0,0,1,3.07-4.744L338.1,522.96l4.107,4.312L324.668,547a3.705,3.705,0,0,1-7.247,1.279Z" transform="translate(-256.452 -372.932)" fill="#ffb6b6"/>
    <path id="Path_528" data-name="Path 528" d="M361.308,516.062a1.542,1.542,0,0,1,.439-1.208l5.44-5.516a4.287,4.287,0,1,1,6.937,5.039l-3.617,6.88a1.544,1.544,0,0,1-2.277.528l-6.294-4.6A1.542,1.542,0,0,1,361.308,516.062Z" transform="translate(-285.388 -362.821)" fill="url(#linear-gradient)"/>
    <circle id="Ellipse_59" data-name="Ellipse 59" cx="8.425" cy="8.425" r="8.425" transform="translate(80.269 123.765)" fill="#ffb6b6"/>
    <path id="Path_529" data-name="Path 529" d="M378.737,529.836a1.526,1.526,0,0,1-.606-1.051,134.815,134.815,0,0,0-2.539-14.479A9.088,9.088,0,0,1,392.468,508c3.313,6.219,3.567,14.756,3.522,18.138a1.541,1.541,0,0,1-1.287,1.5l-14.783,2.488a1.562,1.562,0,0,1-.261.022A1.531,1.531,0,0,1,378.737,529.836Z" transform="translate(-294.624 -359.944)" fill="#2f2e41"/>
    <path id="Path_530" data-name="Path 530" d="M435.69,495.575a3.615,3.615,0,0,0-.082.563l-14.736,8.5-3.582-2.062-3.818,5,5.986,4.267a2.744,2.744,0,0,0,3.292-.08l15.2-11.988a3.6,3.6,0,1,0-2.256-4.2Z" transform="translate(-319.661 -353.116)" fill="#ffb6b6"/>
    <path id="Path_531" data-name="Path 531" d="M406.515,515.141l-4.763,6.173a1.544,1.544,0,0,1-2.334.128l-5.392-5.6a4.287,4.287,0,1,1,5.258-6.773l6.762,3.781a1.544,1.544,0,0,1,.468,2.29Z" transform="translate(-305.797 -363.215)" fill="url(#linear-gradient-4)"/>
    <path id="Path_532" data-name="Path 532" d="M315.251,685.376h4.206l.99-16.169-5.2-.052Z" transform="translate(-207.108 -439.61)" fill="#ffb6b6"/>
    <path id="Path_533" data-name="Path 533" d="M452.125,798.045h8.283a5.278,5.278,0,0,1,5.278,5.278v.171h-13.56Z" transform="translate(-345.055 -553.653)" fill="#2f2e41"/>
    <path id="Path_534" data-name="Path 534" d="M198.251,685.375h4.206l2-16.222H198.25Z" transform="translate(-130.243 -439.609)" fill="#ffb6b6"/>
    <path id="Path_535" data-name="Path 535" d="M335.125,798.045h8.283a5.278,5.278,0,0,1,5.278,5.278v.171h-13.56Z" transform="translate(-268.19 -553.653)" fill="#2f2e41"/>
    <path id="Path_536" data-name="Path 536" d="M339.045,641.065l-5.219-.681a1.544,1.544,0,0,1-1.291-1.931l7.613-37.412a86.976,86.976,0,0,0,1.568-11.008c.222-3.01,1.1-7.265,4.038-10.448a44.124,44.124,0,0,0,3.336-4.122l2.3-3.191,15.352-2.443.011.19a88.963,88.963,0,0,0,9.308,35.051,39.584,39.584,0,0,1,4.152,15.77l.87,16.964a1.546,1.546,0,0,1-.447,1.167,1.526,1.526,0,0,1-1.165.454l-4.989-.227a1.547,1.547,0,0,1-1.436-1.2l-4.166-18.586a1.214,1.214,0,0,0-.211-.458L355.6,601.521a.858.858,0,0,0-1.5.231l-13.4,38.292a1.552,1.552,0,0,1-1.459,1.034A1.507,1.507,0,0,1,339.045,641.065Z" transform="translate(-266.454 -403.725)" fill="#2f2e41"/>
    <path id="Path_537" data-name="Path 537" d="M320.076,433.783a37.364,37.364,0,0,0,1.477-6.225,4.216,4.216,0,0,0-1.113-3.4c-1.677-1.589-4.526-.832-6.279.672-2.534,2.173-3.8,5.512-4.276,8.816a91.871,91.871,0,0,0-.383,10c-.115,3.336-.592,6.767-2.293,9.639s-4.857,5.077-8.187,4.833a5.761,5.761,0,0,1-3.607-1.528,4.182,4.182,0,0,1-1.256-3.631,8.15,8.15,0,0,0,1.7,9.572,10.141,10.141,0,0,0,9.779,2.05,13.515,13.515,0,0,0,7.723-6.667,20.47,20.47,0,0,0,2.154-10.128c-.067-2.679-.522-5.38-.07-8.022s2.106-5.324,4.713-5.946Z" transform="translate(-240.698 -307.441)" fill="#2f2e41"/>
    <path id="Path_538" data-name="Path 538" d="M380.271,445.594a3.335,3.335,0,0,0,3.674,2.149,4.308,4.308,0,0,0,3.252-2.989,6.153,6.153,0,0,0-.481-4.511,7.025,7.025,0,0,0-4.02-3.58,5.768,5.768,0,0,0-5.245.838,1.929,1.929,0,0,0-1.348-1.41,3.685,3.685,0,0,0-2.023.03,8.334,8.334,0,0,0-4.639,3.375,13.563,13.563,0,0,0-2.1,5.419,11.755,11.755,0,0,0,1.3,8.538c1.632,2.459,4.969,3.91,7.677,2.738a3.578,3.578,0,0,0-.694-2.48,7.563,7.563,0,0,1-1.189-2.338,1.888,1.888,0,0,1,1-2.2c.711-.24,1.469.149,2.218.2a2.43,2.43,0,0,0,2.331-3.5Z" transform="translate(-289.186 -315.779)" fill="#2f2e41"/>
    <path id="Path_539" data-name="Path 539" d="M455.25,813.079H140.343a.343.343,0,1,1,0-.686H455.25a.343.343,0,0,1,0,.686Z" transform="translate(-140 -563.079)" fill="#ccc"/>
  </g>
</svg>
