<svg xmlns="http://www.w3.org/2000/svg" xmlns:xlink="http://www.w3.org/1999/xlink" width="291.118" height="250.55" viewBox="0 0 291.118 250.55">
  <defs>
    <linearGradient id="linear-gradient" x1="0.5" x2="0.5" y2="1" gradientUnits="objectBoundingBox">
      <stop offset="0" stop-color="#128c7e"/>
      <stop offset="1" stop-color="#09463f"/>
    </linearGradient>
  </defs>
  <g id="undraw_new_message_re_fp03_1_" data-name="undraw_new_message_re_fp03 (1)" transform="translate(0 0)">
    <path id="Path_389" data-name="Path 389" d="M488.313,220.54c-2.34-12.525,1.344-26.773,11.584-34.355a58.7,58.7,0,0,0,12.238,38.4c3.287,4.213,7.382,8.557,7.254,13.9a13.123,13.123,0,0,1-4.246,8.754,38.972,38.972,0,0,1-8.171,5.671l-.449.7C498.071,244.074,490.652,233.064,488.313,220.54Z" transform="translate(-395.33 -185.943)" fill="#f0f0f0"/>
    <path id="Path_390" data-name="Path 390" d="M508.421,186.108a50.176,50.176,0,0,0-3.312,30.693,21.607,21.607,0,0,0,2.288,6.372,12.393,12.393,0,0,0,4.682,4.541,25.652,25.652,0,0,1,5.24,3.331,7.589,7.589,0,0,1,2.234,5.79,19.715,19.715,0,0,1-2.184,7.535c-1.207,2.654-2.5,5.392-2.424,8.376.01.361-.552.355-.561-.006-.136-5.191,3.617-9.361,4.453-14.342a7.685,7.685,0,0,0-1.552-6.582c-1.429-1.576-3.437-2.453-5.255-3.483a13.224,13.224,0,0,1-4.743-4.27,19.973,19.973,0,0,1-2.525-6.26,48.681,48.681,0,0,1-1.1-15.175,51.068,51.068,0,0,1,4.282-16.808c.147-.329.628-.038.482.288Z" transform="translate(-403.668 -185.675)" fill="#fff"/>
    <path id="Path_391" data-name="Path 391" d="M496.312,237.628a7.528,7.528,0,0,1-7.854-5.774c-.082-.352.461-.5.543-.144a6.971,6.971,0,0,0,7.317,5.356C496.678,237.04,496.67,237.6,496.312,237.628Z" transform="translate(-395.759 -209.785)" fill="#fff"/>
    <path id="Path_392" data-name="Path 392" d="M519.478,262.2a14.51,14.51,0,0,0,3.637-9.929c-.008-.362.553-.355.561.006a15.092,15.092,0,0,1-3.806,10.324c-.241.27-.632-.132-.393-.4Z" transform="translate(-412.043 -220.57)" fill="#fff"/>
    <path id="Path_393" data-name="Path 393" d="M505.89,208.252a4.261,4.261,0,0,0,3.785-1.421c.237-.273.628.13.393.4a4.775,4.775,0,0,1-4.184,1.582.29.29,0,0,1-.278-.284A.282.282,0,0,1,505.89,208.252Z" transform="translate(-404.784 -196.756)" fill="#fff"/>
    <path id="Path_394" data-name="Path 394" d="M562.258,208.043c-.143.175-.286.35-.428.529a56.132,56.132,0,0,0-5.136,7.516c-.12.2-.238.409-.352.614a59.161,59.161,0,0,0-6.9,20.658,57.476,57.476,0,0,0-.527,8.714c.063,4.024.452,8.382-.781,12.082a9.855,9.855,0,0,1-.444,1.136L527.895,265.6c-.052-.008-.1-.012-.156-.02l-.779.288c-.013-.15-.023-.306-.036-.456-.008-.087-.011-.176-.019-.263,0-.058-.007-.117-.014-.17,0-.019,0-.039,0-.054-.007-.053-.008-.1-.013-.15-.059-.872-.113-1.745-.159-2.621,0,0,0,0,0-.01a84.473,84.473,0,0,1,1.108-19.941c.037-.2.073-.4.119-.6A54.828,54.828,0,0,1,530.37,233a48.463,48.463,0,0,1,1.954-4.5,40.3,40.3,0,0,1,7.316-10.26c5.9-6.01,13.666-10.064,21.982-10.192C561.836,208.044,562.044,208.042,562.258,208.043Z" transform="translate(-415.815 -197.442)" fill="#f0f0f0"/>
    <path id="Path_395" data-name="Path 395" d="M562.635,207.987A50.176,50.176,0,0,0,541.511,230.5a21.6,21.6,0,0,0-2.009,6.465,12.393,12.393,0,0,0,1,6.445,25.647,25.647,0,0,1,2.178,5.814,7.589,7.589,0,0,1-1.7,5.968,19.716,19.716,0,0,1-6.281,4.7c-2.562,1.393-5.244,2.8-6.978,5.228-.21.294-.655-.049-.445-.343,3.017-4.227,8.524-5.3,12.191-8.77a7.685,7.685,0,0,0,2.724-6.19c-.192-2.118-1.267-4.028-2.1-5.945a13.224,13.224,0,0,1-1.217-6.265,19.978,19.978,0,0,1,1.753-6.518,48.677,48.677,0,0,1,8.255-12.78,51.066,51.066,0,0,1,13.539-10.842c.316-.174.525.347.211.52Z" transform="translate(-416.156 -197.12)" fill="#fff"/>
    <path id="Path_396" data-name="Path 396" d="M556.239,238.894a7.528,7.528,0,0,1-2.794-9.339c.146-.33.666-.118.52.212a6.971,6.971,0,0,0,2.617,8.682c.3.2-.04.639-.343.445Z" transform="translate(-429.616 -208.671)" fill="#fff"/>
    <path id="Path_397" data-name="Path 397" d="M553.862,274.929a14.51,14.51,0,0,0,8.882-5.738c.211-.294.656.049.445.343a15.092,15.092,0,0,1-9.255,5.952c-.355.071-.425-.486-.072-.557Z" transform="translate(-430.048 -229.55)" fill="#fff"/>
    <path id="Path_398" data-name="Path 398" d="M581.245,222.543a4.261,4.261,0,0,0,3.878,1.144c.354-.076.424.482.072.557a4.775,4.775,0,0,1-4.293-1.256.29.29,0,0,1-.051-.394.282.282,0,0,1,.394-.051Z" transform="translate(-444.339 -205.039)" fill="#fff"/>
    <path id="Path_399" data-name="Path 399" d="M717.665,382.177a4.509,4.509,0,0,1,.1.7l18.28,10.546,4.443-2.558,4.737,6.2-7.426,5.293a3.4,3.4,0,0,1-4.084-.1l-18.851-14.871a4.467,4.467,0,1,1,2.8-5.209Z" transform="translate(-511.702 -287.233)" fill="#ffb6b6"/>
    <path id="Path_400" data-name="Path 400" d="M766.724,399.548a1.913,1.913,0,0,1,.955-1.277l8.44-4.6a5.318,5.318,0,0,1,6.43,8.473l-6.764,6.872a1.915,1.915,0,0,1-2.894-.19l-5.824-7.722A1.912,1.912,0,0,1,766.724,399.548Z" transform="translate(-542.124 -294.524)" fill="#3f3d56"/>
    <path id="Path_401" data-name="Path 401" d="M796.743,341.508c1.214-3.87,3.976-7.419,7.795-8.728s9.411.685,12.283,3.546c5.252,5.234,5.414,11.642,1.805,17.324-.718-.038-3.194-.066-3.921-.093l-1.027-3.425v3.391c-5.67-.175-11.572-.065-17.478.048C795.669,349.548,795.528,345.378,796.743,341.508Z" transform="translate(-557.447 -262.845)" fill="#2f2e41"/>
    <path id="Path_402" data-name="Path 402" d="M493.81,485.792h-5.171l-2.46-19.947h7.632Z" transform="translate(-255.758 -245.061)" fill="#ffb6b6"/>
    <path id="Path_403" data-name="Path 403" d="M561.057,485.792h-5.171l-2.46-19.947h7.632Z" transform="translate(-291.134 -245.061)" fill="#ffb6b6"/>
    <path id="Path_404" data-name="Path 404" d="M513.254,246.841l1.172,3.047-.234,3.047-22.933,7.943,1.138-13.333,2.578-3.046Z" transform="translate(-258.43 -128.62)" fill="#ffb6b6"/>
    <circle id="Ellipse_33" data-name="Ellipse 33" cx="8.191" cy="8.191" r="8.191" transform="translate(239.383 74.425)" fill="#ffb7b7"/>
    <path id="Path_405" data-name="Path 405" d="M807.494,464.613v5.205s6.093,7.918,2.812,14.011l9.4,81.088h-9.843l-16.431-68.433-7,67.027h-8.436L776.987,510.2a113.3,113.3,0,0,1,6.9-41.138h0Z" transform="translate(-547.536 -332.412)" fill="#2f2e41"/>
    <path id="Path_406" data-name="Path 406" d="M797.9,335.817a10.288,10.288,0,0,1,15.641,8.978c-4.578.211-9.388.265-14.265.275l-1.152-2.821-.68,2.823q-2.229,0-4.466-.006A10.5,10.5,0,0,1,797.9,335.817Z" transform="translate(-555.956 -263.867)" fill="#2f2e41"/>
    <path id="Path_407" data-name="Path 407" d="M780.145,700.053h-3.669l-.655-3.464-1.677,3.464H764.41a2.188,2.188,0,0,1-1.243-3.988l7.772-5.368v-3.5l8.175.488Z" transform="translate(-539.779 -449.503)" fill="#2f2e41"/>
    <path id="Path_408" data-name="Path 408" d="M848.382,700.053h-3.669l-.655-3.464-1.677,3.464h-9.733a2.188,2.188,0,0,1-1.243-3.988l7.772-5.368v-3.5l8.175.488Z" transform="translate(-575.676 -449.503)" fill="#2f2e41"/>
    <path id="Path_409" data-name="Path 409" d="M812.138,439.9a63.836,63.836,0,0,0-1.392-18.664c-1.739-7.723-3.95-17.549-3.993-17.8a.088.088,0,0,1,0-.015l-.674-14.394a.166.166,0,0,0-.161-.158l-4.66-.157a.166.166,0,0,1-.161-.166h0a2.644,2.644,0,0,0-2.644-2.644h-9.308a2.475,2.475,0,0,0-2.455,2.167.165.165,0,0,1-.167.148l-3.622-.122a.167.167,0,0,0-.164.116l-.252.8a83.862,83.862,0,0,0-2.973,36.422,65.436,65.436,0,0,1,.074,10.858,2.024,2.024,0,0,0,1.905,2.146c6.733.387,25.8,9.612,30.362,5.208C811.863,443.63,811.985,442.005,812.138,439.9Z" transform="translate(-548.453 -291.003)" fill="#3f3d56"/>
    <path id="Path_410" data-name="Path 410" d="M760.666,382.177a4.487,4.487,0,0,1,.1.7l18.28,10.546,4.443-2.558,4.737,6.2-7.426,5.293a3.4,3.4,0,0,1-4.085-.1l-18.851-14.871a4.467,4.467,0,1,1,2.8-5.209Z" transform="translate(-534.323 -287.233)" fill="#ffb6b6"/>
    <path id="Path_411" data-name="Path 411" d="M809.725,399.548a1.912,1.912,0,0,1,.955-1.277l8.44-4.6a5.318,5.318,0,0,1,6.43,8.473l-6.764,6.872a1.915,1.915,0,0,1-2.894-.19l-5.824-7.722A1.912,1.912,0,0,1,809.725,399.548Z" transform="translate(-564.745 -294.524)" fill="#3f3d56"/>
    <circle id="Ellipse_34" data-name="Ellipse 34" cx="21.327" cy="21.327" r="21.327" transform="translate(0 179.48)" fill="#f0f0f0"/>
    <path id="Path_412" data-name="Path 412" d="M507.288,341.673l-154.557,70.96a9.136,9.136,0,0,1-12.1-4.486l-38.141-83.074a9.136,9.136,0,0,1,4.486-12.1l154.557-70.96a9.136,9.136,0,0,1,12.1,4.486l38.141,83.074A9.136,9.136,0,0,1,507.288,341.673Z" transform="translate(-297.496 -214.874)" fill="#fff"/>
    <path id="Path_413" data-name="Path 413" d="M316.384,325.409a2.968,2.968,0,0,0-1.457,3.931l38.141,83.074A2.968,2.968,0,0,0,357,413.872l154.557-70.96a2.968,2.968,0,0,0,1.457-3.931l-38.141-83.074a2.968,2.968,0,0,0-3.931-1.457Z" transform="translate(-304.334 -221.712)" fill="#e4e4e4"/>
    <path id="Path_414" data-name="Path 414" d="M507.288,341.673l-154.557,70.96a9.136,9.136,0,0,1-12.1-4.486l-38.141-83.074a9.136,9.136,0,0,1,4.486-12.1l154.557-70.96a9.136,9.136,0,0,1,12.1,4.486l38.141,83.074A9.136,9.136,0,0,1,507.288,341.673ZM307.37,313.833a8.187,8.187,0,0,0-4.02,10.844l38.141,83.074a8.187,8.187,0,0,0,10.844,4.02l154.557-70.96a8.187,8.187,0,0,0,4.02-10.844l-38.141-83.074a8.187,8.187,0,0,0-10.844-4.02Z" transform="translate(-297.496 -214.874)" fill="#cacaca"/>
    <path id="Path_415" data-name="Path 415" d="M469.587,303.671,346.8,360.044a5.283,5.283,0,0,1-5.974-1.11L304.9,322.093a5.272,5.272,0,0,1,1.568-8.469l157.358-72.539a5.273,5.273,0,0,1,7.443,4.18h.021l1.365,53.481a5.265,5.265,0,0,1-3.071,4.925Zm-5.357-61.727L306.867,314.485a4.324,4.324,0,0,0-1.286,6.946l35.925,36.841a4.333,4.333,0,0,0,4.9.911l122.786-56.373a4.319,4.319,0,0,0,2.518-4.04l-1.353-53.007.189,0-.189,0a4.324,4.324,0,0,0-6.127-3.819Z" transform="translate(-298.415 -214.569)" fill="#cacaca"/>
    <path id="Path_416" data-name="Path 416" d="M445.459,529.66,407.2,547.224A2.326,2.326,0,0,1,405.264,543l38.255-17.564a2.326,2.326,0,1,1,1.941,4.227Z" transform="translate(-351.285 -364.295)" fill="#fff"/>
    <path id="Path_417" data-name="Path 417" d="M526.517,420.053a11.953,11.953,0,0,1-21.726,9.975" transform="translate(-404.356 -308.971)" fill="#cacaca"/>
    <path id="Path_418" data-name="Path 418" d="M533.723,569.907H363.656a9.136,9.136,0,0,1-9.126-9.126V469.37a9.136,9.136,0,0,1,9.126-9.126H533.723a9.136,9.136,0,0,1,9.126,9.126v91.411a9.136,9.136,0,0,1-9.126,9.126Z" transform="translate(-325.309 -330.114)" fill="#fff"/>
    <path id="Path_419" data-name="Path 419" d="M370.494,473.244a2.968,2.968,0,0,0-2.965,2.965V567.62a2.968,2.968,0,0,0,2.965,2.965H540.562a2.968,2.968,0,0,0,2.965-2.965V476.208a2.968,2.968,0,0,0-2.965-2.965Z" transform="translate(-332.148 -336.952)" fill="url(#linear-gradient)"/>
    <path id="Path_420" data-name="Path 420" d="M533.723,569.907H363.656a9.136,9.136,0,0,1-9.126-9.126V469.37a9.136,9.136,0,0,1,9.126-9.126H533.723a9.136,9.136,0,0,1,9.126,9.126v91.411a9.136,9.136,0,0,1-9.126,9.126ZM363.656,461.192a8.187,8.187,0,0,0-8.178,8.178v91.411a8.187,8.187,0,0,0,8.178,8.178H533.723a8.187,8.187,0,0,0,8.178-8.178V469.37a8.187,8.187,0,0,0-8.178-8.178Z" transform="translate(-325.309 -330.114)" fill="#3f3d56"/>
    <path id="Path_421" data-name="Path 421" d="M516.762,519.544H381.653a5.283,5.283,0,0,1-4.966-3.5l-17.276-48.47a5.272,5.272,0,0,1,4.959-7.042l173.272-.266a5.272,5.272,0,0,1,5.02,6.9l.019.008-21.074,49.172a5.266,5.266,0,0,1-4.846,3.2Zm20.887-58.332-173.278.266a4.324,4.324,0,0,0-4.067,5.776l17.276,48.47a4.333,4.333,0,0,0,4.073,2.872H516.762a4.319,4.319,0,0,0,3.974-2.621l20.887-48.736.174.075-.174-.075a4.324,4.324,0,0,0-3.974-6.027Z" transform="translate(-327.716 -330.125)" fill="#3f3d56"/>
    <path id="Path_422" data-name="Path 422" d="M427.665,658.63H385.571a2.326,2.326,0,0,1,0-4.651h42.094a2.326,2.326,0,1,1,0,4.651Z" transform="translate(-340.415 -432.03)" fill="#fff"/>
    <path id="Path_423" data-name="Path 423" d="M551.888,584.343a11.953,11.953,0,0,1-23.906,0" transform="translate(-416.556 -395.397)" fill="#1cd244"/>
    <circle id="Ellipse_35" data-name="Ellipse 35" cx="4.265" cy="4.265" r="4.265" transform="translate(55.451 42.984)" fill="#f0f0f0"/>
    <circle id="Ellipse_36" data-name="Ellipse 36" cx="4.265" cy="4.265" r="4.265" transform="translate(0 145.356)" fill="#f0f0f0"/>
    <circle id="Ellipse_37" data-name="Ellipse 37" cx="4.265" cy="4.265" r="4.265" transform="translate(213.274 65.26)" fill="#f0f0f0"/>
    <path id="Path_424" data-name="Path 424" d="M815.2,713.072H734.013a.564.564,0,1,1,0-1.129H815.2a.564.564,0,1,1,0,1.129Z" transform="translate(-524.642 -462.522)" fill="#cacaca"/>
  </g>
</svg>
