<svg xmlns="http://www.w3.org/2000/svg" xmlns:xlink="http://www.w3.org/1999/xlink" width="310.187" height="203.912" viewBox="0 0 310.187 203.912">
  <defs>
    <linearGradient id="linear-gradient" x1="0.5" x2="0.5" y2="1" gradientUnits="objectBoundingBox">
      <stop offset="0" stop-color="#128c7e"/>
      <stop offset="1" stop-color="#09463f"/>
    </linearGradient>
    <linearGradient id="linear-gradient-5" x1="0.5" x2="0.5" y2="1" gradientUnits="objectBoundingBox">
      <stop offset="0" stop-color="#00aa80"/>
      <stop offset="1" stop-color="#005540"/>
    </linearGradient>
  </defs>
  <g id="undraw_chat_bot_re_e2gj" transform="translate(-65.074 0.042)">
    <path id="Path_427" data-name="Path 427" d="M363.4,284.622c-1.809-2.344-4.366-4.514-4.528-7.407-.148-2.653,1.83-5.288,1-7.826-.642-1.952-2.758-3.13-4.827-3.753a18.758,18.758,0,0,0-12.055.464l.209-.148a7.3,7.3,0,0,0-6.959,1.631,14.7,14.7,0,0,0-3.808,6.054,47.4,47.4,0,0,1-2.7,6.625,9.72,9.72,0,0,1-5.4,4.709,3.392,3.392,0,0,0,4.784,1.047,6.051,6.051,0,0,0,1.007-1.041l2.945-3.581c1.01,1.8-.5,4.276.743,5.939a4.717,4.717,0,0,0,2.9,1.417,52.372,52.372,0,0,0,25.622-.95A2.5,2.5,0,0,0,364,286.727,2.171,2.171,0,0,0,363.4,284.622Z" transform="translate(-255.74 -242.343)" fill="#2f2e41"/>
    <path id="Path_428" data-name="Path 428" d="M433.739,327.21a4.542,4.542,0,0,0-.1.708l-18.551,10.7-4.509-2.6-4.807,6.293,7.536,5.371a3.455,3.455,0,0,0,4.145-.1L436.579,332.5a4.533,4.533,0,1,0-2.84-5.286Z" transform="translate(-302.015 -275.781)" fill="#ffb7b7"/>
    <path id="Path_429" data-name="Path 429" d="M402.474,347.86l-6,7.77a1.943,1.943,0,0,1-2.938.161l-6.788-7.048a5.4,5.4,0,0,1,6.619-8.526l8.513,4.76a1.943,1.943,0,0,1,.59,2.883Z" transform="translate(-290.025 -284.515)" fill="url(#linear-gradient)"/>
    <path id="Path_430" data-name="Path 430" d="M241.287,433.4h5.294l2.519-20.421h-7.814Z" transform="translate(-137.089 -234.661)" fill="#ffb7b7"/>
    <path id="Path_431" data-name="Path 431" d="M403.67,668.929H414.1a6.645,6.645,0,0,1,6.645,6.644v.216H403.67Z" transform="translate(-300.823 -471.919)" fill="#2f2e41"/>
    <path id="Path_432" data-name="Path 432" d="M157.287,433.4h5.294l2.519-20.421h-7.814Z" transform="translate(-89.364 -234.661)" fill="#ffb7b7"/>
    <path id="Path_433" data-name="Path 433" d="M319.67,668.929H330.1a6.645,6.645,0,0,1,6.645,6.644v.216H319.67Z" transform="translate(-253.097 -471.919)" fill="#2f2e41"/>
    <circle id="Ellipse_38" data-name="Ellipse 38" cx="9.15" cy="9.15" r="9.15" transform="translate(81.83 46.491) rotate(-83.735)" fill="#ffb7b7"/>
    <path id="Path_434" data-name="Path 434" d="M348.4,333.391l5.39,2.67s6.023,10.466,2.568,20.4c-1.677,4.822,3.046,20.194,3.046,20.194s7.318,69.629,7.341,91.118c-9.092,1.4-17.729,3.125-18.16-1.193s-5.159-55.378-5.159-55.378-6.5,56.673-11.683,57.537-15.546-.432-15.546-.432,8.228-83.016,13.842-88.2l.864-4.318-.023-38.763,6.468-3.087Z" transform="translate(-251.126 -281.281)" fill="#2f2e41"/>
    <path id="Path_435" data-name="Path 435" d="M337.026,405a4.639,4.639,0,0,0,1.421-6.97l6.269-41.786-8.19-.393-4.887,41.613A4.664,4.664,0,0,0,337.026,405Z" transform="translate(-259.032 -294.04)" fill="#ffb7b7"/>
    <path id="Path_436" data-name="Path 436" d="M348.231,357.883l-9.8-.618a1.943,1.943,0,0,1-1.778-2.345l2.041-9.57a5.4,5.4,0,1,1,10.77.712l.821,9.719a1.943,1.943,0,0,1-2.059,2.1Z" transform="translate(-262.725 -285.211)" fill="url(#linear-gradient)"/>
    <path id="Path_437" data-name="Path 437" d="M697.567,289.249H480.958A5.962,5.962,0,0,0,475,295.211V415.9a5.962,5.962,0,0,0,5.962,5.962H697.567a5.962,5.962,0,0,0,5.962-5.962V295.211A5.962,5.962,0,0,0,697.567,289.249Z" transform="translate(-341.347 -256.201)" fill="#3f3d56"/>
    <rect id="Rectangle_95" data-name="Rectangle 95" width="212.546" height="119.898" transform="translate(141.642 43.585)" fill="#fff"/>
    <circle id="Ellipse_39" data-name="Ellipse 39" cx="2.18" cy="2.18" r="2.18" transform="translate(245.553 35.955)" fill="#fff"/>
    <path id="Path_438" data-name="Path 438" d="M479.757,220.881H328v-119.9Z" transform="translate(-186.354 -57.398)" fill="#f2f2f2"/>
    <path id="Path_439" data-name="Path 439" d="M697.545,583.888H676.8v-1.495a.3.3,0,0,0-.3-.3h-7.112a.3.3,0,0,0-.3.3v1.495h-4.445v-1.495a.3.3,0,0,0-.3-.3h-7.112a.3.3,0,0,0-.3.3h0v1.495H652.5v-1.495a.3.3,0,0,0-.3-.3H645.1a.3.3,0,0,0-.3.3h0v1.495h-4.445v-1.495a.3.3,0,0,0-.3-.3h-7.112a.3.3,0,0,0-.3.3v1.495H628.2v-1.495a.3.3,0,0,0-.3-.3H620.8a.3.3,0,0,0-.3.3h0v1.495h-4.445v-1.495a.3.3,0,0,0-.3-.3h-7.112a.3.3,0,0,0-.3.3h0v1.495h-4.445v-1.495a.3.3,0,0,0-.3-.3H547.9a.3.3,0,0,0-.3.3h0v1.495h-4.445v-1.495a.3.3,0,0,0-.3-.3H535.75a.3.3,0,0,0-.3.3h0v1.495h-4.445v-1.495a.3.3,0,0,0-.3-.3H523.6a.3.3,0,0,0-.3.3h0v1.495h-4.445v-1.495a.3.3,0,0,0-.3-.3h-7.112a.3.3,0,0,0-.3.3h0v1.495h-4.445v-1.495a.3.3,0,0,0-.3-.3H499.3a.3.3,0,0,0-.3.3h0v1.495H494.56v-1.495a.3.3,0,0,0-.3-.3h-7.112a.3.3,0,0,0-.3.3v1.495H482.41v-1.495a.3.3,0,0,0-.3-.3H475a.3.3,0,0,0-.3.3h0v1.495H461.074A7.112,7.112,0,0,0,453.962,591v3.216a7.112,7.112,0,0,0,7.112,7.112H697.546a7.112,7.112,0,0,0,7.112-7.112V591a7.112,7.112,0,0,0-7.112-7.112Z" transform="translate(-329.397 -422.585)" fill="#3f3d56"/>
    <path id="Path_440" data-name="Path 440" d="M733.2,550.266a5.23,5.23,0,0,1-.239.494,6.29,6.29,0,0,1-11.823-2.99v-1.015h.861a22,22,0,0,0,11.2,3.511Z" transform="translate(-481.193 -402.505)" fill="#3f3d56"/>
    <path id="Path_441" data-name="Path 441" d="M761.666,547.443v.718a6.287,6.287,0,0,1-11.808,3.01,5.246,5.246,0,0,1-.249-.506c.184.005.365.008.549.008A22.032,22.032,0,0,0,761.666,547.443Z" transform="translate(-497.371 -402.896)" fill="#3f3d56"/>
    <path id="Path_442" data-name="Path 442" d="M796.4,371.58c-.189-.028-.38-.045-.572-.058a21.153,21.153,0,0,1,.421,15.8c.191-.023.38-.053.569-.088a7.935,7.935,0,0,0-.418-15.649Z" transform="translate(-523.631 -302.945)" fill="#3f3d56"/>
    <path id="Path_443" data-name="Path 443" d="M696.177,371.522c-.192.013-.383.03-.572.058a7.935,7.935,0,0,0-.418,15.649c.189.035.378.066.569.088A21.155,21.155,0,0,1,696.177,371.522Z" transform="translate(-462.8 -302.945)" fill="#3f3d56"/>
    <path id="Path_444" data-name="Path 444" d="M742.366,354.159a21.659,21.659,0,1,0,1.68,8.363A21.659,21.659,0,0,0,742.366,354.159Zm-.151,15.738a21.152,21.152,0,1,1,1.328-7.375A21.152,21.152,0,0,1,742.215,369.9Z" transform="translate(-469.597 -285.524)" fill="#3f3d56"/>
    <path id="Path_445" data-name="Path 445" d="M741.583,379.647H719.417a4.408,4.408,0,1,0,0,8.816h22.165a4.408,4.408,0,1,0,0-8.816Z" transform="translate(-477.713 -307.561)" fill="url(#linear-gradient)"/>
    <path id="Path_446" data-name="Path 446" d="M740.906,462.813q-.121-.223-.249-.438l-.008-.013a22.66,22.66,0,1,0-20.6,34.067c.239.013.481.02.723.02.1.005.2.005.3.005a22.5,22.5,0,0,0,11.508-3.146,22.821,22.821,0,0,0,8.8-9.458c0-.005.005-.008.008-.013.076-.151.149-.3.222-.461a22.637,22.637,0,0,0-.708-20.564Zm.217,20.425q-.109.234-.227.461a22.319,22.319,0,0,1-8.312,9.022,22.031,22.031,0,0,1-11.508,3.229c-.184,0-.365,0-.549-.008q-.117,0-.234-.008A22.165,22.165,0,1,1,740.145,462.5l.008.013c.088.144.174.29.255.436A22.138,22.138,0,0,1,741.122,483.238Z" transform="translate(-468.288 -348.175)" fill="#3f3d56"/>
    <path id="Path_447" data-name="Path 447" d="M772.781,479.1a2.619,2.619,0,0,0-1.511-.486h-9.906a2.6,2.6,0,1,0,0,5.2h9.906a2.571,2.571,0,0,0,.526-.053,2.855,2.855,0,0,0,.5-.159,2.6,2.6,0,0,0,.481-4.506Z" transform="translate(-502.571 -363.789)" fill="#3f3d56"/>
    <circle id="Ellipse_40" data-name="Ellipse 40" cx="1.321" cy="1.321" r="1.321" transform="translate(258.13 116.103)" fill="#f1f1f1"/>
    <circle id="Ellipse_41" data-name="Ellipse 41" cx="1.321" cy="1.321" r="1.321" transform="translate(262.423 116.103)" fill="#f1f1f1"/>
    <circle id="Ellipse_42" data-name="Ellipse 42" cx="1.321" cy="1.321" r="1.321" transform="translate(266.716 116.103)" fill="#1cd244"/>
    <path id="Path_448" data-name="Path 448" d="M872.747,287.119c-3.435,2.06-9.556,4.642-15.81,1.989l-4.043-1.715,8.1-9.082a38.694,38.694,0,1,1,11.751,8.808Z" transform="translate(-554.957 -213.232)" fill="url(#linear-gradient)"/>
    <path id="Path_449" data-name="Path 449" d="M872.2,287.042c-3.3,1.938-9.589,4.616-16,1.9l-4.6-1.95,8.246-9.243a39.126,39.126,0,1,1,55.526,2.986h0a38.951,38.951,0,0,1-43.174,6.311Zm45.231-61a38.262,38.262,0,0,0-56.684,51.409l.261.288-7.959,8.922,3.488,1.48c6.191,2.626,12.318-.1,15.419-1.962l.2-.12.21.1a38.262,38.262,0,0,0,45.063-60.119Z" transform="translate(-554.388 -212.665)" fill="url(#linear-gradient-5)"/>
    <path id="Path_450" data-name="Path 450" d="M973.505,255.819a35.609,35.609,0,0,0-32.458-35.468c1.035-.091,2.084-.14,3.145-.14a35.608,35.608,0,1,1,0,71.216c-1.059,0-2.107-.05-3.142-.14A35.609,35.609,0,0,0,973.505,255.819Z" transform="translate(-606.139 -216.976)" opacity="0.1" fill="url(#linear-gradient)"/>
    <rect id="Rectangle_96" data-name="Rectangle 96" width="25.444" height="2.363" transform="translate(314.281 31.742)" fill="#1cd244"/>
    <rect id="Rectangle_97" data-name="Rectangle 97" width="44.347" height="2.363" transform="translate(314.281 39.916)" fill="#1cd244"/>
    <rect id="Rectangle_98" data-name="Rectangle 98" width="44.303" height="2.363" transform="translate(314.281 48.09)" fill="#1cd244"/>
    <path id="Path_452" data-name="Path 452" d="M373.984,279.688a6.98,6.98,0,0,0-2.849-3.939,11.667,11.667,0,0,0-14.915.907,7.62,7.62,0,0,0-2.3,3.692,4.528,4.528,0,0,0,.965,4.123l.183.114a1.648,1.648,0,0,1,1.033-1.716,8.254,8.254,0,0,1,2.107-.472,7.745,7.745,0,0,0,5.25-3.7,8.747,8.747,0,0,0,5.013,5.224c1.209.473,4.531,1.123,5.682.523C375.617,283.674,374.34,281.305,373.984,279.688Z" transform="translate(-272.471 -247.241)" fill="#2f2e41"/>
  </g>
</svg>
