<svg xmlns="http://www.w3.org/2000/svg" xmlns:xlink="http://www.w3.org/1999/xlink" width="227.409" height="253.833" viewBox="0 0 227.409 253.833">
  <defs>
    <linearGradient id="linear-gradient" x1="0.5" x2="0.5" y2="1" gradientUnits="objectBoundingBox">
      <stop offset="0" stop-color="#128c7e"/>
      <stop offset="1" stop-color="#09463f"/>
    </linearGradient>
  </defs>
  <g id="undraw_people_search_re_5rre" transform="translate(-0.001)">
    <path id="Path_461" data-name="Path 461" d="M843.092,704.965a8.749,8.749,0,0,1-8.449-1.488c-2.959-2.484-3.888-6.576-4.642-10.365l-2.233-11.207,4.675,3.219c3.362,2.315,6.8,4.7,9.127,8.057s3.344,7.93,1.474,11.558" transform="translate(-626.379 -465.712)" fill="#e6e6e6"/>
    <path id="Path_462" data-name="Path 462" d="M855.837,741.282a45.238,45.238,0,0,0,.628-10.421,16.39,16.39,0,0,0-3.16-8.593,14.294,14.294,0,0,0-3.668-3.323c-.367-.231-.7.35-.339.58a13.59,13.59,0,0,1,5.375,6.486,21.758,21.758,0,0,1,1.155,9.383c-.122,1.912-.38,3.811-.641,5.709a.346.346,0,0,0,.235.413.338.338,0,0,0,.413-.235Z" transform="translate(-639.524 -488.46)" fill="#f2f2f2"/>
    <path id="Path_597" data-name="Path 597" d="M510.066,315.9H314.489V120.319H510.066Z" transform="translate(-310.696 -120.319)" fill="#fff"/>
    <path id="Path_598" data-name="Path 598" d="M510.066,315.9H314.489V120.319H510.066Zm-192.687-2.89h189.8v-189.8h-189.8Z" transform="translate(-310.696 -120.319)" fill="#e5e5e5"/>
    <rect id="Rectangle_111" data-name="Rectangle 111" width="84.693" height="2.638" transform="translate(80.03 30.598)" fill="#e5e5e5"/>
    <rect id="Rectangle_112" data-name="Rectangle 112" width="84.693" height="2.638" transform="translate(80.03 37.457)" fill="#e5e5e5"/>
    <rect id="Rectangle_113" data-name="Rectangle 113" width="84.693" height="2.638" transform="translate(80.03 44.317)" fill="#e5e5e5"/>
    <rect id="Rectangle_114" data-name="Rectangle 114" width="84.693" height="2.638" transform="translate(80.03 89.498)" fill="#e5e5e5"/>
    <rect id="Rectangle_115" data-name="Rectangle 115" width="84.693" height="2.638" transform="translate(80.03 96.358)" fill="#e5e5e5"/>
    <rect id="Rectangle_116" data-name="Rectangle 116" width="84.693" height="2.638" transform="translate(80.03 103.217)" fill="#e5e5e5"/>
    <rect id="Rectangle_117" data-name="Rectangle 117" width="84.693" height="2.638" transform="translate(80.03 148.399)" fill="#e5e5e5"/>
    <rect id="Rectangle_118" data-name="Rectangle 118" width="84.693" height="2.638" transform="translate(80.03 155.258)" fill="#e5e5e5"/>
    <rect id="Rectangle_119" data-name="Rectangle 119" width="84.693" height="2.638" transform="translate(80.03 162.117)" fill="#e5e5e5"/>
    <path id="Path_599" data-name="Path 599" d="M396.334,246.475a28.3,28.3,0,0,0-4.514-1.9l-.2-2.2-8.05-.867-1.023,2.807L379.66,245.4a1.409,1.409,0,0,0-.293.153h0a1.431,1.431,0,0,0-.611.953,1.463,1.463,0,0,0,.021.574l.153.626c.22.131.446.257.672.376l.144.073c.33.171.666.333,1.011.483l.217.092.015.006c.162.067.324.131.489.192a16.057,16.057,0,0,0,1.655.531,17.021,17.021,0,0,0,4.388.574c.541,0,1.075-.024,1.6-.076a16.955,16.955,0,0,0,3.555-.718s.006,0,.009,0a16.689,16.689,0,0,0,2.135-.846s.009,0,.012-.006c.156-.073.305-.153.458-.229l.073-.037c.122-.064.244-.128.367-.2.305-.168.6-.345.9-.534.083-.049.162-.1.244-.156.116-.076.232-.156.345-.238C396.936,246.814,396.639,246.64,396.334,246.475Z" transform="translate(-350.209 -194.857)" fill="#3f3d56"/>
    <path id="Path_600" data-name="Path 600" d="M378.983,254.282l-.5-2.275h-1.316l-.04,0h0a2.852,2.852,0,0,0-1.325.458,2.935,2.935,0,0,0-.708.635c.391.3.8.571,1.215.834l.018.009c.119.073.241.147.363.217.22.131.446.257.672.376l.144.073c.33.171.666.333,1.011.482l.217.092.015.006c.162.067.324.131.489.192Z" transform="translate(-347.965 -201.311)" fill="#3f3d56"/>
    <circle id="Ellipse_68" data-name="Ellipse 68" cx="5.798" cy="5.798" r="5.798" transform="translate(31.275 33.672)" fill="#ffb8b8"/>
    <path id="Path_601" data-name="Path 601" d="M386.719,206.817a3.666,3.666,0,0,0,2.553.993,24.044,24.044,0,0,0,6.529-.533c.133,1.286-.229,2.673.529,3.731a17.326,17.326,0,0,0,.615-3.927,3.759,3.759,0,0,0-.218-1.682,1.547,1.547,0,0,0-1.318-.971,3.3,3.3,0,0,1,1.473-.63l-1.841-.925.473-.485-3.333-.2.965-.613a20.934,20.934,0,0,0-4.385-.138,3.764,3.764,0,0,0-1.94.539,1.4,1.4,0,0,0-.527,1.753,2.546,2.546,0,0,0-1.94,1.539,4.11,4.11,0,0,0-.147,1.975,14,14,0,0,0,.734,3.106Z" transform="translate(-353.54 -170.172)" fill="#2f2e41"/>
    <path id="Path_602" data-name="Path 602" d="M390.434,188.276a17.013,17.013,0,1,0-29.4,16.161c.153.192.311.385.473.571.012.012.021.024.034.037a16.512,16.512,0,0,0,1.267,1.307c.116.107.238.217.36.321.232.208.47.406.718.6.1.076.192.153.293.226.391.3.8.571,1.215.834l.018.009c.119.073.241.147.363.217.22.131.446.257.672.376l.144.073c.33.171.666.333,1.011.482l.217.092.015.006c.162.067.324.131.489.192a16.057,16.057,0,0,0,1.655.531,17.022,17.022,0,0,0,4.388.574c.541,0,1.075-.024,1.6-.076a16.952,16.952,0,0,0,3.555-.718l.009,0a16.693,16.693,0,0,0,2.135-.846s.009,0,.012-.006c.156-.073.305-.153.458-.229l.073-.037c.122-.064.244-.128.367-.2.305-.168.6-.345.9-.534.082-.049.162-.1.244-.156.116-.076.232-.156.345-.238.15-.1.3-.211.446-.321.046-.034.095-.067.14-.1A17.007,17.007,0,0,0,390.434,188.276Zm-6.34,18.4c-.1.079-.2.156-.308.226s-.2.15-.305.217c-.089.064-.177.125-.269.183l-.027.018c-.067.046-.134.089-.2.131q-.38.238-.77.458l-.082.046c-.116.064-.232.125-.348.186-.015.009-.034.015-.049.024l-.018.009c-.147.076-.3.15-.446.22a14.979,14.979,0,0,1-1.78.721c-.079.028-.159.055-.238.079a16.018,16.018,0,0,1-3.365.684c-.5.046-1.008.07-1.518.07a15.864,15.864,0,0,1-4.15-.544,15.08,15.08,0,0,1-2.037-.69c-.034-.015-.07-.027-.1-.043s-.07-.027-.1-.043-.07-.031-.107-.049c-.287-.125-.571-.263-.849-.406l-.134-.07c-.339-.177-.672-.366-1-.568-.095-.058-.192-.119-.284-.183l-.07-.046c-.217-.144-.434-.293-.644-.449-.143-.107-.287-.214-.428-.324-.235-.177-.461-.366-.681-.562-.116-.1-.229-.2-.339-.305a15.512,15.512,0,0,1-1.228-1.27c-.128-.147-.254-.293-.373-.446a1.177,1.177,0,0,1-.076-.095,16.081,16.081,0,1,1,22.33,2.819Z" transform="translate(-337.059 -155.091)" fill="#3f3d56"/>
    <path id="Path_603" data-name="Path 603" d="M390.435,341.276a17.013,17.013,0,1,0-29.4,16.161c.153.192.311.385.473.571.012.012.021.024.034.037a16.566,16.566,0,0,0,1.267,1.307c.116.107.238.217.36.321.232.208.47.406.718.6a16.744,16.744,0,0,0,1.509,1.06l.018.009c.339.211.684.406,1.035.592l.143.073c.33.171.666.333,1.011.483l.217.092.015.006a16.524,16.524,0,0,0,2.144.724,17.021,17.021,0,0,0,4.388.574c.541,0,1.075-.024,1.6-.076a16.954,16.954,0,0,0,3.555-.718s.006,0,.009,0a16.672,16.672,0,0,0,2.135-.846s.009,0,.012-.006c.156-.073.305-.153.458-.229l.073-.037c.122-.064.244-.128.366-.2.305-.168.6-.345.9-.534.083-.049.162-.1.244-.156.269-.177.534-.366.791-.559.046-.034.095-.067.141-.1a17.008,17.008,0,0,0,5.778-19.142Z" transform="translate(-337.06 -249.191)" fill="#fff"/>
    <circle id="Ellipse_188" data-name="Ellipse 188" cx="2.55" cy="2.55" r="2.55" transform="translate(40.373 99.59)" fill="#2f2e41"/>
    <path id="Path_969" data-name="Path 969" d="M414.8,378.591a2.55,2.55,0,0,1,2.245,3.76,2.549,2.549,0,1,0-4.235-2.8,2.544,2.544,0,0,1,1.991-.959Z" transform="translate(-371.166 -278.931)" fill="#2f2e41"/>
    <circle id="Ellipse_189" data-name="Ellipse 189" cx="7.49" cy="7.49" r="7.49" transform="translate(30.668 87.155)" fill="#2f2e41"/>
    <path id="Path_970" data-name="Path 970" d="M384.824,349.513a7.489,7.489,0,0,1,10.38-.785c-.061-.058-.122-.117-.185-.173a7.49,7.49,0,1,0-10,11.157l.043.038c.064.056.129.11.194.164a7.489,7.489,0,0,1-.436-10.4Z" transform="translate(-352.544 -259.516)" fill="#2f2e41"/>
    <circle id="Ellipse_190" data-name="Ellipse 190" cx="4.824" cy="4.824" r="4.824" transform="translate(33.271 92.423)" fill="#ffb6b6"/>
    <path id="Path_604" data-name="Path 604" d="M390.965,393.766v1.619c-.3.189-.6.366-.9.534-.122.067-.244.131-.366.2l-.073.037c-.153.076-.3.156-.458.229,0,0-.009,0-.012.006a16.678,16.678,0,0,1-2.135.846s-.006,0-.009,0a16.952,16.952,0,0,1-3.555.718c-.528.052-1.063.076-1.6.076a17.023,17.023,0,0,1-4.388-.574,16.542,16.542,0,0,1-2.144-.724l-.015-.006-.217-.092c-.345-.15-.681-.311-1.011-.482l-.143-.073c-.351-.186-.7-.382-1.035-.592l-.018-.009a16.751,16.751,0,0,1-1.509-1.06c-.247-.189-.486-.388-.718-.6-.122-.1-.244-.214-.36-.321a16.539,16.539,0,0,1-1.267-1.307,6.175,6.175,0,0,1,.232-.938l0,0a1.359,1.359,0,0,1,.064-.153,1.212,1.212,0,0,1,.058-.128c.547-1.023,1.536-1.276,2.764-1.331.693-.031,1.46,0,2.269-.006.428,0,.87-.018,1.313-.058,2.794-.253,2.287-1.9,2.413-2.791.125-.861.9-.116.953-.067l0,0a9.856,9.856,0,0,0,5.07.889c.3-.037.6-.058.9-.067.788-.009.617.217.345.4a3.4,3.4,0,0,1-.412.232s-.125.763-.254,1.906c-.122,1.093,1.973,1.606,2.147,1.646a.019.019,0,0,0,.012,0,4.207,4.207,0,0,1,2.324.061h0A2.754,2.754,0,0,1,390.965,393.766Z" transform="translate(-344.238 -283.95)" fill="url(#linear-gradient)"/>
    <path id="Path_605" data-name="Path 605" d="M380.18,400.107c0,.226-.006.443-.015.647,0,.122-.009.241-.015.354l-.015-.006-.217-.092c-.345-.15-.681-.311-1.011-.483l-.143-.073c-.351-.186-.7-.382-1.035-.592.009-.107.024-.214.04-.321.034-.235.061-.473.079-.708a9.829,9.829,0,0,0-.87-4.813v0c-.061-.122-.1-.189-.1-.189a1.84,1.84,0,0,1,2.156,0,.761.761,0,0,1,.211.183C380.009,394.912,380.217,397.941,380.18,400.107Z" transform="translate(-349.068 -288.327)" fill="#2f2e41"/>
    <path id="Path_606" data-name="Path 606" d="M417.631,403.273c-.012.342-.031.7-.052,1.063v0s-.009,0-.012.006a16.667,16.667,0,0,1-2.135.846s-.006,0-.009,0l-.034-.858,0-.113-.162-4.178a.7.7,0,0,1,.7-.733h1.548c.076,0,.131.156.168.437v0A26.465,26.465,0,0,1,417.631,403.273Z" transform="translate(-372.651 -291.909)" fill="#2f2e41"/>
    <path id="Path_975" data-name="Path 975" d="M392.874,357.267v4.825h1.117l1.422-1.523-.19,1.523h4.938l-.305-1.523.611,1.523h.787v-4.825Z" transform="translate(-358.905 -266.05)" fill="#2f2e41"/>
    <ellipse id="Ellipse_191" data-name="Ellipse 191" cx="0.381" cy="0.698" rx="0.381" ry="0.698" transform="translate(32.826 95.534)" fill="#a0616a"/>
    <ellipse id="Ellipse_192" data-name="Ellipse 192" cx="0.381" cy="0.698" rx="0.381" ry="0.698" transform="translate(42.602 95.534)" fill="#a0616a"/>
    <path id="Path_607" data-name="Path 607" d="M425.025,404.858c-.256.192-.522.382-.791.559-.082.055-.162.107-.244.156-.3.189-.6.366-.9.534-.122.067-.244.131-.366.2v-3.365s.488.391,1.267,1.041l.305.26C424.522,404.428,424.766,404.635,425.025,404.858Z" transform="translate(-377.263 -294.138)" fill="#00aa80"/>
    <path id="Path_608" data-name="Path 608" d="M390.435,341.276a17.013,17.013,0,1,0-29.4,16.161c.153.192.311.385.473.571.012.012.021.024.034.037a16.566,16.566,0,0,0,1.267,1.307c.116.107.238.217.36.321.232.208.47.406.718.6a16.744,16.744,0,0,0,1.509,1.06l.018.009c.339.211.684.406,1.035.592l.143.073c.33.171.666.333,1.011.483l.217.092.015.006a16.524,16.524,0,0,0,2.144.724,17.021,17.021,0,0,0,4.388.574c.541,0,1.075-.024,1.6-.076a16.954,16.954,0,0,0,3.555-.718s.006,0,.009,0a16.672,16.672,0,0,0,2.135-.846s.009,0,.012-.006c.156-.073.305-.153.458-.229l.073-.037c.122-.064.244-.128.366-.2.305-.168.6-.345.9-.534.083-.049.162-.1.244-.156.269-.177.534-.366.791-.559.046-.034.095-.067.141-.1a17.008,17.008,0,0,0,5.778-19.142Zm-6.34,18.4c-.1.079-.2.156-.308.226s-.2.15-.305.217c-.089.064-.177.125-.269.183-.076.052-.153.1-.229.15q-.38.238-.769.458l-.083.046c-.116.064-.232.125-.348.186-.015.009-.034.015-.049.024l-.018.009c-.147.076-.3.15-.446.22a14.964,14.964,0,0,1-1.78.721c-.079.027-.159.055-.238.079a16.02,16.02,0,0,1-3.365.684c-.5.046-1.008.07-1.518.07a15.864,15.864,0,0,1-4.15-.544,15.072,15.072,0,0,1-2.037-.69c-.07-.027-.14-.058-.208-.086-.037-.015-.07-.03-.107-.049-.287-.125-.571-.263-.849-.406l-.134-.07c-.339-.177-.672-.366-1-.568-.119-.073-.238-.15-.354-.229-.367-.241-.724-.5-1.072-.773-.235-.177-.461-.366-.681-.562-.116-.1-.229-.2-.339-.305a15.557,15.557,0,0,1-1.228-1.27c-.128-.147-.253-.293-.373-.446a1.165,1.165,0,0,1-.076-.095,16.081,16.081,0,1,1,22.33,2.819Z" transform="translate(-337.06 -249.191)" fill="#3f3d56"/>
    <circle id="Ellipse_69" data-name="Ellipse 69" cx="6.666" cy="6.666" r="6.666" transform="translate(30.739 150.893)" fill="#2f2e41"/>
    <ellipse id="Ellipse_70" data-name="Ellipse 70" cx="2.758" cy="2.069" rx="2.758" ry="2.069" transform="translate(27.327 152.989) rotate(-45)" fill="#2f2e41"/>
    <ellipse id="Ellipse_71" data-name="Ellipse 71" cx="2.069" cy="2.758" rx="2.069" ry="2.758" transform="translate(38.467 151.584) rotate(-66.869)" fill="#2f2e41"/>
    <path id="Path_609" data-name="Path 609" d="M411.827,558.277l-.785-1.236a3.082,3.082,0,0,0-5.636,2.5l.223.8.254.909a17.412,17.412,0,0,0,3.034-.662.014.014,0,0,0,.008,0,16.209,16.209,0,0,0,2.137-.847s.008,0,.011-.008c.154-.073.3-.15.458-.227a.649.649,0,0,0,.073-.038c.123-.062.246-.127.366-.193s.242-.135.358-.208Z" transform="translate(-366.45 -387.789)" fill="#cacaca"/>
    <circle id="Ellipse_72" data-name="Ellipse 72" cx="5.657" cy="5.657" r="5.657" transform="translate(31.959 153.493)" fill="#ffb6b6"/>
    <path id="Path_610" data-name="Path 610" d="M398.22,556.733a12.236,12.236,0,0,0-2.3-2.787,3.36,3.36,0,0,0-2.24-.855h-7.969a3.358,3.358,0,0,0-3.353,3.572,3.438,3.438,0,0,0,.139.762,3.617,3.617,0,0,0,.212.524l.393.785c.031.012.062.027.092.038.008,0,.012,0,.015.008.162.065.324.131.489.193a15.881,15.881,0,0,0,1.655.531,16.686,16.686,0,0,0,2.756.5c.543.05,1.086.077,1.632.077s1.074-.027,1.605-.077c.173-.015.346-.035.52-.054a17.406,17.406,0,0,0,3.033-.662.014.014,0,0,0,.008,0,16.2,16.2,0,0,0,2.137-.847s.008,0,.011-.008c.154-.073.3-.15.458-.227a.675.675,0,0,0,.073-.038c.123-.062.246-.127.366-.192s.242-.135.358-.208.239-.139.358-.212C398.524,557.26,398.374,556.991,398.22,556.733Z" transform="translate(-352.434 -386.488)" fill="#cacaca"/>
    <path id="Path_611" data-name="Path 611" d="M385.8,555.306a3.08,3.08,0,0,0-4.088,1.47l-.708,1.07-.339.512-.516.778.32.173.142.073c.331.169.666.331,1.013.481.038.019.081.035.123.054s.062.027.092.039c.008,0,.012,0,.015.008.162.065.323.131.489.193a15.892,15.892,0,0,0,1.655.531,16.674,16.674,0,0,0,2.756.5l.27-.912.262-.87A3.085,3.085,0,0,0,385.8,555.306Z" transform="translate(-351.08 -387.671)" fill="#cacaca"/>
    <path id="Path_612" data-name="Path 612" d="M386.908,519.646a7.693,7.693,0,0,0,4.4,1.359,4.714,4.714,0,0,1-1.869.769,15.514,15.514,0,0,0,6.337.036,4.1,4.1,0,0,0,1.327-.456,1.679,1.679,0,0,0,.819-1.1,2.263,2.263,0,0,0-1.123-2,8.284,8.284,0,0,0-6.961-1.391,3.813,3.813,0,0,0-2.062,1.165,1.878,1.878,0,0,0-.173,2.23Z" transform="translate(-355.236 -364.055)" fill="#2f2e41"/>
    <path id="Path_613" data-name="Path 613" d="M390.438,494.273a17.013,17.013,0,1,0-29.4,16.161c.15.193.312.385.474.57a.324.324,0,0,0,.031.038,16.231,16.231,0,0,0,1.27,1.305c.115.108.235.219.358.323.231.208.47.4.72.593.1.077.192.154.293.227.389.3.8.57,1.213.835a.028.028,0,0,1,.019.008c.119.073.243.146.366.216s.235.139.35.2l.319.173.142.073c.331.169.666.331,1.013.481.038.019.081.035.123.054s.062.027.092.039c.008,0,.012,0,.015.008.162.065.324.131.489.192a15.92,15.92,0,0,0,1.655.531,16.691,16.691,0,0,0,2.756.5c.543.05,1.086.077,1.632.077s1.074-.027,1.605-.077c.173-.015.346-.035.52-.054a17.4,17.4,0,0,0,3.034-.662.014.014,0,0,0,.008,0,16.241,16.241,0,0,0,2.137-.847s.007,0,.011-.008c.154-.073.3-.15.458-.227a.68.68,0,0,0,.073-.038c.123-.062.246-.127.366-.193s.242-.135.358-.208.239-.139.358-.212l.185-.115c.085-.05.162-.1.246-.158.115-.073.231-.154.343-.235.15-.1.3-.212.447-.323a1.687,1.687,0,0,0,.143-.1A17.024,17.024,0,0,0,390.438,494.273Zm-6.34,18.4c-.1.081-.2.158-.308.227s-.2.15-.308.219c-.089.062-.177.123-.269.181a.176.176,0,0,1-.027.019c-.065.046-.135.089-.2.131-.046.027-.092.058-.139.085-.135.085-.27.165-.408.242-.073.046-.15.089-.223.131l-.081.046c-.119.066-.235.123-.35.185-.015.012-.035.015-.046.027a.03.03,0,0,0-.019.008c-.146.077-.3.15-.446.219a14.861,14.861,0,0,1-1.783.72c-.077.027-.158.058-.235.081a16.093,16.093,0,0,1-3.014.647c-.115.015-.235.027-.354.039-.5.046-1,.069-1.517.069-.454,0-.912-.019-1.363-.058a15.864,15.864,0,0,1-2.787-.485,14.743,14.743,0,0,1-2.036-.693c-.035-.015-.069-.027-.1-.042s-.069-.027-.1-.042-.069-.031-.108-.05c-.25-.108-.5-.227-.743-.35-.035-.019-.069-.035-.1-.054l-.135-.069c-.081-.042-.162-.085-.239-.127-.258-.139-.512-.289-.758-.443-.092-.058-.193-.119-.285-.181l-.069-.046c-.216-.146-.431-.293-.643-.45-.143-.108-.289-.212-.427-.323-.235-.177-.462-.366-.681-.562-.116-.1-.231-.2-.339-.3a15.285,15.285,0,0,1-1.228-1.27c-.127-.146-.254-.293-.374-.447-.027-.031-.05-.062-.077-.1A16.083,16.083,0,1,1,384.1,512.67Z" transform="translate(-337.061 -343.288)" fill="#3f3d56"/>
    <path id="Path_614" data-name="Path 614" d="M370.409,281.549a39.984,39.984,0,1,0,2.267,59.05l49.045,41.384a3.685,3.685,0,0,0,4.758-5.628l-.005,0-49.045-41.384a39.986,39.986,0,0,0-7.019-53.418Zm-3.162,49.433a29.956,29.956,0,1,1-3.576-42.213h0A29.956,29.956,0,0,1,367.247,330.982Z" transform="translate(-304.638 -213.683)" fill="url(#linear-gradient)"/>
    <path id="Path_615" data-name="Path 615" d="M335.56,369.968a29.958,29.958,0,0,1-5.083-40.271q-.859.865-1.661,1.812A29.956,29.956,0,1,0,374.6,370.146q.8-.948,1.507-1.942A29.958,29.958,0,0,1,335.56,369.968Z" transform="translate(-315.164 -249.093)" fill="#1cd244" opacity="0.55"/>
    <path id="Path_616" data-name="Path 616" d="M705.734,493.1a4.135,4.135,0,0,0-1.181-6.23l-8.94-36.591-6.521,2.082,9.653,36.341a4.158,4.158,0,0,0,6.989,4.4Z" transform="translate(-541.089 -323.257)" fill="#ffb6b6"/>
    <path id="Path_617" data-name="Path 617" d="M391.831,348.787l-4.766,4.111-6.668,5.748-2.945-15.068-.308-1.567-.243-1.243L383.658,329l5.632.323.385.023.008.085.089.789,1.155,10.386.027.251Z" transform="translate(-231.806 -202.346)" fill="#3f3d56"/>
    <path id="Path_618" data-name="Path 618" d="M323.636,616.99h-4.719l-2.245-18.2h6.966Z" transform="translate(-194.762 -368.272)" fill="#ffb6b6"/>
    <path id="Path_619" data-name="Path 619" d="M618.215,768.505H603v-.193a5.923,5.923,0,0,1,5.923-5.923h9.3Z" transform="translate(-488.138 -515.213)" fill="#2f2e41"/>
    <path id="Path_620" data-name="Path 620" d="M451.636,617.99h-4.719l-2.246-18.2h6.966Z" transform="translate(-273.486 -368.887)" fill="#ffb6b6"/>
    <path id="Path_621" data-name="Path 621" d="M746.215,769.505H731v-.193a5.924,5.924,0,0,1,5.923-5.923h9.3Z" transform="translate(-566.862 -515.828)" fill="#2f2e41"/>
    <path id="Path_622" data-name="Path 622" d="M673.26,562.522l-12.7,1.925L642.073,501.9l-19.63,62.935L608.2,562.907l18.479-73.144v-5.775l2.5-8.662-.262-2.344-1.821-16.4-.789-7.11-.051-.459a1.561,1.561,0,0,1,1.229-1.7h0l5.928-1.247h9.69l5.717,1.574.393.108.177.05-.088.739-1.34,11.233-.073.616L646.6,471.219l-.285,2.375c11.164,8.084,11.549,16.169,11.549,16.169Z" transform="translate(-491.338 -320.666)" fill="#2f2e41"/>
    <circle id="Ellipse_73" data-name="Ellipse 73" cx="9.455" cy="9.455" r="9.455" transform="translate(136.296 101.622)" fill="#ffb6b6"/>
    <rect id="Rectangle_120" data-name="Rectangle 120" width="18.863" height="2.695" transform="translate(136.978 153.202) rotate(-7.451)" fill="#3f3d56"/>
    <path id="Path_623" data-name="Path 623" d="M585.355,506.326a4.05,4.05,0,0,1,.507.388l18.5-4.716,1.262-4.463,6.984,1.024-1.466,8.118a3.08,3.08,0,0,1-2.708,2.515l-21.6,2.275a4.041,4.041,0,1,1-1.478-5.141Z" transform="translate(-473.466 -352.318)" fill="#ffb6b6"/>
    <path id="Path_624" data-name="Path 624" d="M652.9,451.461l-3.272-2.5c-.885-.336-2.1.618-2.31,1.54l-4.62,18.863,9.624,6.929,1.347-2.117Z" transform="translate(-512.556 -322.401)" fill="#3f3d56"/>
    <g id="Group_7" data-name="Group 7" transform="translate(137.998 125.403)" opacity="0.2">
      <path id="Path_625" data-name="Path 625" d="M684.225,458.926a26.078,26.078,0,0,1-2.495.847c-.269.081-.547.158-.82.231a25.416,25.416,0,0,1-5.521.893,17.377,17.377,0,0,1-2.41-.065,13.57,13.57,0,0,1-2.537-.5l-.085-.023a11.127,11.127,0,0,1-4.6-2.614,9.069,9.069,0,0,1-.812-.9,8.177,8.177,0,0,1-1.755-6.364,5.475,5.475,0,0,1,.131-.6,9.655,9.655,0,0,1,.573-1.578c.1-.239.22-.473.343-.7l4.35-1.471h8.284l5.717,1.575.385.023.008.085.177.05-.089.739Z" transform="translate(-663.103 -446.068)"/>
    </g>
    <path id="Path_626" data-name="Path 626" d="M654.224,381.11a6.707,6.707,0,0,0-5.087,1.065c-1.378,1.129-1.823,3.475-.518,4.688,1.155,1.074,2.962.821,4.509,1.127a6.1,6.1,0,0,1,4.768,5.835c-.023,3.917-3.782,6.883-4.457,10.741a8.378,8.378,0,0,0,2.57,7.264,12.122,12.122,0,0,0,7.218,3.137,22.31,22.31,0,0,0,7.932-.827,22.06,22.06,0,0,0,7.328-3.229,11.907,11.907,0,0,0,4.662-6.374,8.211,8.211,0,0,0-1.6-7.553c-2.063-2.279-5.5-3.062-7.28-5.565-2-2.806-1.26-6.8-2.879-9.843a9.2,9.2,0,0,0-5.31-4.146,23.68,23.68,0,0,0-6.811-.944,9.025,9.025,0,0,0-3.58.391,3.234,3.234,0,0,0-2.174,2.653A1.579,1.579,0,0,0,654.224,381.11Z" transform="translate(-515.717 -277.86)" fill="#2f2e41"/>
    <path id="Path_627" data-name="Path 627" d="M659.42,778.451H512.747a.385.385,0,0,1,0-.77H659.42a.385.385,0,0,1,0,.77Z" transform="translate(-432.394 -524.618)" fill="#cacaca"/>
  </g>
</svg>
