<svg xmlns="http://www.w3.org/2000/svg" xmlns:xlink="http://www.w3.org/1999/xlink" width="266.082" height="247.667" viewBox="0 0 266.082 247.667">
  <defs>
    <linearGradient id="linear-gradient" x1="0.5" x2="0.5" y2="1" gradientUnits="objectBoundingBox">
      <stop offset="0" stop-color="#128c7e"/>
      <stop offset="1" stop-color="#09463f"/>
    </linearGradient>
  </defs>
  <g id="undraw_file_manager_re_ms29" transform="translate(0 0.001)">
    <path id="Path_467" data-name="Path 467" d="M619.837,338.181a3.526,3.526,0,0,1-5.249,1.136l-15.3,8.659-3.435-3.642L614.1,334.183a3.522,3.522,0,0,1,5.738,4Z" transform="translate(-464.316 -251.514)" fill="#ffb6b6"/>
    <path id="Path_468" data-name="Path 468" d="M471.42,365.952l-.233,2.789,30.451-.391,30.311-17.04-4.431-6.82-26.641,11.2-18.935.384A10.777,10.777,0,0,0,471.42,365.952Z" transform="translate(-384.768 -258.844)" fill="url(#linear-gradient)"/>
    <path id="Path_453" data-name="Path 453" d="M890.07,139.257h2.642c2.024-15.541-13.551-27.343-31.416-28.783A38.306,38.306,0,0,1,890.07,139.257Z" transform="translate(-633.684 -109.527)" fill="#f2f2f2"/>
    <path id="Path_454" data-name="Path 454" d="M819.611,317.844q-2.243-.027-4.3-.151a18.3,18.3,0,0,0,4.3.151Z" transform="translate(-604.343 -241.747)" fill="#f2f2f2"/>
    <path id="Path_455" data-name="Path 455" d="M733.472,146.038c.345-20.471,16.656-37.13,37.13-37.13a45.306,45.306,0,0,1,8.464-.1,38.192,38.192,0,0,0-46.644,37.234c0,19.411.695,35.971,30,37.766C747.575,181.548,733.2,162.111,733.472,146.038Z" transform="translate(-551.453 -107.857)" fill="#f2f2f2"/>
    <path id="Path_456" data-name="Path 456" d="M867.868,215c-6.711,11.481-33.1,19.9-36.8,36.533a16.94,16.94,0,0,1-3.882.787c1.216.015,2.47.01,3.774-.02A38.08,38.08,0,0,0,869.242,215Z" transform="translate(-611.92 -176.222)" fill="#f2f2f2"/>
    <path id="Path_457" data-name="Path 457" d="M835.629,212.869a62.865,62.865,0,0,1-5.521-34.5,2.883,2.883,0,0,1,1.812-3.257l22.094-6.173a2.192,2.192,0,0,1,2.655,2.01l5.521,34.5a2.883,2.883,0,0,1-1.812,3.257l-22.094,6.173A2.193,2.193,0,0,1,835.629,212.869Z" transform="translate(-613.484 -146.787)" fill="#f2f2f2"/>
    <ellipse id="Ellipse_43" data-name="Ellipse 43" cx="4.5" cy="3.756" rx="4.5" ry="3.756" transform="translate(224.583 29.47) rotate(-82.638)" fill="#f2f2f2"/>
    <path id="Path_458" data-name="Path 458" d="M752.909,166.259a62.866,62.866,0,0,1-5.521-34.5A2.883,2.883,0,0,1,749.2,128.5l22.094-6.173a2.192,2.192,0,0,1,2.655,2.01l5.521,34.5a2.883,2.883,0,0,1-1.812,3.257l-22.094,6.173A2.192,2.192,0,0,1,752.909,166.259Z" transform="translate(-560.703 -117.047)" fill="#f2f2f2"/>
    <ellipse id="Ellipse_44" data-name="Ellipse 44" cx="4.5" cy="3.756" rx="4.5" ry="3.756" transform="translate(194.644 12.6) rotate(-82.638)" fill="#f2f2f2"/>
    <rect id="Rectangle_99" data-name="Rectangle 99" width="222.447" height="0.724" transform="translate(0 163.824)" fill="#3f3d56"/>
    <path id="Path_459" data-name="Path 459" d="M435.2,296.254c-.262-.918,3.406,7.5,2.534,7.6a93.55,93.55,0,0,0-15.552,3.619c-.125-.014-.249-.029-.37-.047-.3-.033-.587-.08-.873-.134a13.7,13.7,0,0,1-11.456-12.907c-.007-.09-.007-.185-.007-.275a12.128,12.128,0,0,1,.07-1.321,12.431,12.431,0,0,1,.312-1.777l-.015,0c-2.567-2.41-1.485-6.88,1.786-8.766a11.78,11.78,0,0,1,4.628-1.5,12.4,12.4,0,0,1,1.331-.072h4.177a19.418,19.418,0,0,1,2.622-.38h.007c8.408-.641,15.038,4.484,14.419,10.72,0,.007-.011.014-.015.022-.18.268-.337.521-.477.764s-.249.445-.348.651c-.766,1.592,1.2,3.6-.1,3.97-1.737.5,4.569,16.848-2.307,16.848C438.908,314.216,435.925,298.788,435.2,296.254Z" transform="translate(-344.717 -217.846)" fill="#2f2e41"/>
    <path id="Path_460" data-name="Path 460" d="M355.69,615.483l5.423-.046,2.4-21.4-8,.067Z" transform="translate(-226.839 -379.033)" fill="#ffb6b6"/>
    <path id="Path_461" data-name="Path 461" d="M601.45,764.284a2.428,2.428,0,0,1-2.4,2.446l-10.782.09-1.887-3.826-.693,3.845-4.068.037,1.027-13.715,1.415-.094,5.773-.4,1.863-.125.033,3.881,8.661,5.875A2.424,2.424,0,0,1,601.45,764.284Z" transform="translate(-455.229 -519.21)" fill="#2f2e41"/>
    <path id="Path_462" data-name="Path 462" d="M494.437,580.912c-2.157-.261-7.6-.724-7.6-.724s-2.57-5.364-2.154-7.032,1.43-2.016.481-2.892c-2.309-8.534-1.94-22.4-1.94-22.4s-12.429-6.019-25.013-12.986c-12.3-6.815-24.753-14.535-25.878-18.426a49.568,49.568,0,0,1-1.491-8.495c-.188-1.882-.3-3.728-.376-5.382-.17-3.786-.1-6.584-.1-6.584l15.683-.261,10.388-.239h1.086v1.81l2.729,4.64s4.716,5.483,4.162,5.994c-.67.619-.467,1.169,1.911,1.618a7.734,7.734,0,0,0,2.049.083c3.84-.293,5.447,1.9,5.541,2.385.644,3.4,7.1,10.782,13.156,17.083h0c5.585,5.82,10.818,10.713,10.818,10.713l.3,6.243,1.393,29.19s-2.613-1.462-.279,1.69S496.594,581.169,494.437,580.912Z" transform="translate(-358.712 -355.196)" fill="#2f2e41"/>
    <path id="Path_463" data-name="Path 463" d="M503.148,407.836l2.214-4.951L486.895,391.8l-3.268,7.306Z" transform="translate(-308.586 -249.995)" fill="#ffb6b6"/>
    <path id="Path_464" data-name="Path 464" d="M779.984,509.857a2.427,2.427,0,0,1,1.224,3.2l-4.4,9.842-4.264.125,3.209,2.23-1.659,3.715-12.046-6.639.5-1.326,2.039-5.416.661-1.746,3.543,1.584L777.737,510A2.424,2.424,0,0,1,779.984,509.857Z" transform="translate(-570.355 -364.225)" fill="#2f2e41"/>
    <path id="Path_465" data-name="Path 465" d="M569.014,476.558c-.013.028-.028.054-.04.077-1.009,1.852-2.665,6.137-2.768,6.4a.04.04,0,0,0-.005.015s-5.463-.281-6.86-1.283.718.586-2.508-1.524c-1.668-1.1-7.382-2.81-12.5-4.21-4.761-1.3-9-2.326-9-2.326s-3.75,3.413-9.183,8.13l0,0c-5.046,4.371-11.549,9.868-17.851,14.79C494.8,500.6,480.56,504.038,477,502.106a49.567,49.567,0,0,1-7.093-4.906l3.666-9.609,9.695-10.152,10.2-4.147,3.992-1.623,5.59-2.268,30.265-12.3,33.516,11.609s-2.334,1.886,1.465.891C572.048,468.625,570.068,474.573,569.014,476.558Z" transform="translate(-383.951 -330.7)" fill="#2f2e41"/>
    <path id="Path_466" data-name="Path 466" d="M426.479,356.495h10.858l1.71,3.773,7.272,3.24a6.609,6.609,0,0,1,3.763,4.624c2.618,11.97-.694,14.457-.8,18.4-.362,13.392-2.227,16.055-2.018,19.361.062.989.666,4.9,2.609,4.533s.9,1.178,1.355,1.779c.4.52,2.487-.17,1.175,1.556s4.3,6.431.86,6.431c-6.515,0-19.544,3.257-24.612,3.257s-8.983,1.5-11.22,1.448c-1.364-.033-.937-6.391-.392-11.9.123-1.247,2.518-1.214.369-3.526s.381-3.513.385-4.121c0-.646,1.218-2.274-.3-4.937s-.118-1.561-.184-2.4c-.507-6.444-1.233-14.661-1.233-14.661l-3.2-9.008a9.425,9.425,0,0,1,5.423-11.923l3.755-1.481Z" transform="translate(-347.215 -266.505)" fill="url(#linear-gradient)"/>
    <circle id="Ellipse_45" data-name="Ellipse 45" cx="9.889" cy="9.889" r="9.889" transform="translate(73.089 68.224)" fill="#ffb6b6"/>
    <path id="Path_469" data-name="Path 469" d="M440.693,291.217c-.165.087-.326.166-.491.246s-.345.166-.517.242c-3.311,1.5-6.007,1.669-7.642-.489a9.142,9.142,0,0,0-.752-3.294,5.294,5.294,0,0,1-.873,3.294h-3.293c-3.392,2.251-5.134,2.486-2.78,9.877.656,2.059,3.266,14.043,2.24,15.82-.3-.033-3.479-9.9-3.765-9.953a13.7,13.7,0,0,1-11.456-12.907c.007-.326.029-.651.062-.97a17.27,17.27,0,0,1,1.4-1.824,11.073,11.073,0,0,1,1.148-4.926,11.33,11.33,0,0,1,4.305-4.683,19.958,19.958,0,0,1,3.44-1.292l.084-.022c.363-.1.733-.188,1.1-.264a20.308,20.308,0,0,1,2.317-.351c.055,0,.11-.007.161-.007a1.746,1.746,0,0,1,.884.242s0,0,.007,0a1.665,1.665,0,0,1,.491.438,1.683,1.683,0,0,1,.359,1.046h3.667q.2,0,.407.011a9.832,9.832,0,0,1,9.479,9.244C440.689,290.873,440.693,291.044,440.693,291.217Z" transform="translate(-346.597 -217.514)" fill="#2f2e41"/>
    <circle id="Ellipse_46" data-name="Ellipse 46" cx="6.515" cy="6.515" r="6.515" transform="translate(62.977 62.483)" fill="#2f2e41"/>
    <path id="Path_470" data-name="Path 470" d="M423.448,270.568a6.438,6.438,0,0,1-6.515,6.515,6.515,6.515,0,0,1-6.515-6.515c0-3.6,4.357-3.635,6.515-6.515C419.985,259.979,423.28,265.718,423.448,270.568Z" transform="translate(-345.994 -206.637)" fill="#2f2e41"/>
    <path id="Path_471" data-name="Path 471" d="M469.616,487.455c-1.012-15.011,1.95-29.13,10.174-42.069a3.308,3.308,0,0,1,3.988-2.435l31.772,7.684a3.308,3.308,0,0,1,2.435,3.988l-10.174,42.069a3.308,3.308,0,0,1-3.988,2.435l-31.772-7.684a3.308,3.308,0,0,1-2.435-3.988Z" transform="translate(-383.644 -321.61)" fill="#f2f2f2"/>
    <path id="Path_472" data-name="Path 472" d="M475.842,490.642a3.308,3.308,0,0,1-2.435-3.988c-1.012-15.011,1.95-29.13,10.174-42.069a3.265,3.265,0,0,1,.822-1.483l-.625-.151a3.308,3.308,0,0,0-3.988,2.435c-8.224,12.939-11.186,27.059-10.174,42.069a3.308,3.308,0,0,0,2.435,3.988l31.772,7.684a3.293,3.293,0,0,0,3.166-.952Z" transform="translate(-383.644 -321.61)" opacity="0.2"/>
    <path id="Path_473" data-name="Path 473" d="M527.3,512.407l-21.305-5.09a1.314,1.314,0,1,1,.611-2.557l21.305,5.09a1.314,1.314,0,1,1-.611,2.557Z" transform="translate(-406.332 -361.085)" fill="#fff"/>
    <path id="Path_474" data-name="Path 474" d="M515.3,489.067l-4.687-1.12a1.314,1.314,0,1,1,.6-2.559l.008,0,4.687,1.12a1.314,1.314,0,0,1-.611,2.557Z" transform="translate(-409.277 -348.725)" fill="#fff"/>
    <path id="Path_475" data-name="Path 475" d="M519.877,543.461l-21.305-5.09a1.314,1.314,0,1,1,.611-2.557l21.305,5.09a1.314,1.314,0,1,1-.6,2.559Z" transform="translate(-401.598 -380.9)" fill="#fff"/>
    <path id="Path_476" data-name="Path 476" d="M523.584,527.934l-21.3-5.09a1.314,1.314,0,0,1,.608-2.557h0l21.305,5.09a1.314,1.314,0,1,1-.611,2.557Z" transform="translate(-403.962 -370.992)" fill="#fff"/>
    <circle id="Ellipse_47" data-name="Ellipse 47" cx="5.48" cy="5.48" r="5.48" transform="translate(109.638 119.584)" fill="#1cd244"/>
    <path id="Path_477" data-name="Path 477" d="M457.337,532.332a3.526,3.526,0,0,1-1.068-5.263l-8.462-15.406,3.686-3.388,9.917,18.371a3.522,3.522,0,0,1-4.072,5.686Z" transform="translate(-369.85 -363.351)" fill="#ffb6b6"/>
    <path id="Path_478" data-name="Path 478" d="M424.872,384.756l-9.1-.878a3.06,3.06,0,0,0-3.354,3.046v27.084l16.649,30.527,6.877-4.343-10.858-26.783Z" transform="translate(-347.269 -283.968)" fill="url(#linear-gradient)"/>
    <path id="Path_479" data-name="Path 479" d="M644.787,308.08c2.11-14.9,7.924-28.1,18.644-39.061a3.308,3.308,0,0,1,4.405-1.559l29.5,14.08a3.308,3.308,0,0,1,1.559,4.405l-18.644,39.061a3.308,3.308,0,0,1-4.405,1.559l-29.5-14.08A3.308,3.308,0,0,1,644.787,308.08Z" transform="translate(-495.331 -209.49)" fill="#f2f2f2"/>
    <path id="Path_480" data-name="Path 480" d="M650.221,312.485a3.308,3.308,0,0,1-1.559-4.405c2.11-14.9,7.924-28.1,18.644-39.061a3.265,3.265,0,0,1,1.111-1.282l-.581-.277a3.308,3.308,0,0,0-4.405,1.559c-10.72,10.962-16.533,24.165-18.644,39.061a3.308,3.308,0,0,0,1.559,4.405l29.5,14.08a3.293,3.293,0,0,0,3.295-.277Z" transform="translate(-495.331 -209.49)" opacity="0.2"/>
    <path id="Path_481" data-name="Path 481" d="M712.017,340.017l-19.795-9.38a1.314,1.314,0,0,1,1.126-2.375l19.795,9.381a1.314,1.314,0,1,1-1.126,2.375Z" transform="translate(-525.324 -248.409)" fill="#fff"/>
    <path id="Path_482" data-name="Path 482" d="M705.1,314.7l-4.355-2.064a1.314,1.314,0,0,1,1.118-2.379l.008,0,4.355,2.064A1.314,1.314,0,1,1,705.1,314.7Z" transform="translate(-530.759 -236.924)" fill="#fff"/>
    <path id="Path_483" data-name="Path 483" d="M698.344,368.871l-19.795-9.38a1.314,1.314,0,0,1,1.126-2.375l19.795,9.38a1.314,1.314,0,1,1-1.118,2.379Z" transform="translate(-516.6 -266.819)" fill="#fff"/>
    <path id="Path_484" data-name="Path 484" d="M705.179,354.443l-19.795-9.38a1.314,1.314,0,1,1,1.123-2.377h0l19.795,9.38a1.314,1.314,0,1,1-1.126,2.375Z" transform="translate(-520.96 -257.613)" fill="#fff"/>
    <circle id="Ellipse_48" data-name="Ellipse 48" cx="5.48" cy="5.48" r="5.48" transform="translate(180.916 59.229)" fill="#1cd244"/>
    <path id="Path_485" data-name="Path 485" d="M865.215,339.108a76.56,76.56,0,0,1-6.723-42.011,3.511,3.511,0,0,1,2.207-3.967l26.907-7.517a2.67,2.67,0,0,1,3.233,2.447l6.723,42.011a3.511,3.511,0,0,1-2.207,3.967l-26.907,7.517A2.67,2.67,0,0,1,865.215,339.108Z" transform="translate(-631.528 -221.221)" fill="#f2f2f2"/>
    <path id="Path_486" data-name="Path 486" d="M871.067,352.279a2.67,2.67,0,0,1-3.233-2.447,76.56,76.56,0,0,1-6.723-42.011,3.884,3.884,0,0,1,.117-1.691l-.529.148a3.512,3.512,0,0,0-2.207,3.967,76.56,76.56,0,0,0,6.723,42.011,2.67,2.67,0,0,0,3.233,2.447l26.907-7.517a3.2,3.2,0,0,0,2.09-2.276Z" transform="translate(-631.528 -234.369)" opacity="0.2"/>
    <path id="Path_487" data-name="Path 487" d="M903.992,349.66l-18.021,5.1a1.06,1.06,0,0,1-1.287-.971,1.4,1.4,0,0,1,.873-1.579l18.022-5.1a1.061,1.061,0,0,1,1.286.974,1.4,1.4,0,0,1-.871,1.576Z" transform="translate(-648.588 -260.494)" fill="#fff"/>
    <path id="Path_488" data-name="Path 488" d="M886.788,341.327l-3.965,1.121a1.059,1.059,0,0,1-1.291-.964,1.4,1.4,0,0,1,.87-1.584l.007,0,3.965-1.121a1.061,1.061,0,0,1,1.286.974A1.4,1.4,0,0,1,886.788,341.327Z" transform="translate(-646.577 -255.177)" fill="#fff"/>
    <path id="Path_489" data-name="Path 489" d="M909.028,380.627l-18.022,5.1a1.061,1.061,0,0,1-1.286-.974,1.4,1.4,0,0,1,.871-1.576l18.021-5.1a1.059,1.059,0,0,1,1.291.964,1.4,1.4,0,0,1-.87,1.584Z" transform="translate(-651.803 -280.252)" fill="#fff"/>
    <path id="Path_490" data-name="Path 490" d="M906.5,365.145l-18.022,5.1a1.059,1.059,0,0,1-1.289-.967,1.4,1.4,0,0,1,.873-1.582h0l18.022-5.1a1.061,1.061,0,0,1,1.286.974,1.4,1.4,0,0,1-.871,1.576Z" transform="translate(-650.189 -270.375)" fill="#fff"/>
    <ellipse id="Ellipse_49" data-name="Ellipse 49" cx="5.48" cy="4.574" rx="5.48" ry="4.574" transform="translate(236.655 73.3) rotate(-82.638)" fill="#1cd244"/>
  </g>
</svg>
