<svg xmlns="http://www.w3.org/2000/svg" xmlns:xlink="http://www.w3.org/1999/xlink" width="315.793" height="257.484" viewBox="0 0 315.793 257.484">
  <defs>
    <linearGradient id="linear-gradient" x1="0.5" x2="0.5" y2="1" gradientUnits="objectBoundingBox">
      <stop offset="0" stop-color="#128c7e"/>
      <stop offset="1" stop-color="#09463f"/>
    </linearGradient>
  </defs>
  <g id="undraw_online_cv_re_gn0a" transform="translate(0)">
    <path id="Path_670" data-name="Path 670" d="M660.926,737.5c4.572,3.064,9.78,18.552,9.78,18.552s-16.305,1.063-20.876-2a9.964,9.964,0,1,1,11.1-16.552Z" transform="translate(-470.386 -499.254)" fill="#f1f1f1"/>
    <path id="Path_671" data-name="Path 671" d="M673.7,762.942l-.255.2c-9.318-11.689-23.378-15.727-23.519-15.766l.088-.315C650.16,747.1,664.319,751.168,673.7,762.942Z" transform="translate(-473.198 -506.265)" fill="#fff"/>
    <path id="Path_672" data-name="Path 672" d="M705.845,700.264c-.292,7.611-14.76,24.992-14.76,24.992s-13.089-18.442-12.8-26.05a13.79,13.79,0,0,1,27.559,1.058Z" transform="translate(-490.855 -468.2)" fill="#f1f1f1"/>
    <path id="Path_673" data-name="Path 673" d="M712.242,725.4l-.425-.153c7.01-19.465,1.56-38.964,1.5-39.159l.435-.125C713.812,686.162,719.3,705.8,712.242,725.4Z" transform="translate(-511.74 -468.214)" fill="#fff"/>
    <path id="Path_674" data-name="Path 674" d="M395.136,347.615H271.131a8.342,8.342,0,0,1-8.333-8.333V197.569a8.342,8.342,0,0,1,8.333-8.333H395.136a8.342,8.342,0,0,1,8.333,8.333V339.283A8.342,8.342,0,0,1,395.136,347.615Z" transform="translate(-232.1 -158.859)" fill="#e6e6e6"/>
    <path id="Path_675" data-name="Path 675" d="M400.451,352.136H288.034a7.407,7.407,0,0,1-7.4-7.4V215.045a7.407,7.407,0,0,1,7.4-7.4H400.451a7.407,7.407,0,0,1,7.4,7.4V344.737A7.407,7.407,0,0,1,400.451,352.136Z" transform="translate(-243.209 -170.325)" fill="#fff"/>
    <path id="Path_676" data-name="Path 676" d="M489.726,250.474H433.014a1.85,1.85,0,1,1,0-3.7h56.711a1.85,1.85,0,0,1,0,3.7Z" transform="translate(-336.956 -194.693)" fill="#e4e4e4"/>
    <path id="Path_677" data-name="Path 677" d="M489.725,269.848H433.014a1.85,1.85,0,0,1,0-3.7h56.711a1.85,1.85,0,0,1,0,3.7Z" transform="translate(-336.956 -206.759)" fill="#e4e4e4"/>
    <path id="Path_678" data-name="Path 678" d="M457.6,289.223H433.015a1.85,1.85,0,1,1,0-3.7H457.6a1.85,1.85,0,1,1,0,3.7Z" transform="translate(-336.956 -218.825)" fill="#e4e4e4"/>
    <path id="Path_679" data-name="Path 679" d="M417.415,367.474H327.885a1.85,1.85,0,1,1,0-3.7h89.529a1.85,1.85,0,1,1,0,3.7Z" transform="translate(-271.483 -267.559)" fill="#e4e4e4"/>
    <path id="Path_680" data-name="Path 680" d="M417.414,386.848H327.885a1.85,1.85,0,1,1,0-3.7h89.529a1.85,1.85,0,0,1,0,3.7Z" transform="translate(-271.483 -279.624)" fill="#e4e4e4"/>
    <path id="Path_681" data-name="Path 681" d="M417.415,430.828H327.885a1.85,1.85,0,1,1,0-3.7h89.529a1.85,1.85,0,1,1,0,3.7Z" transform="translate(-271.483 -307.014)" fill="#e4e4e4"/>
    <path id="Path_682" data-name="Path 682" d="M417.414,450.2H327.885a1.85,1.85,0,1,1,0-3.7h89.529a1.85,1.85,0,0,1,0,3.7Z" transform="translate(-271.483 -319.08)" fill="#e4e4e4"/>
    <path id="Path_683" data-name="Path 683" d="M417.415,494.181H327.885a1.85,1.85,0,0,1,0-3.7h89.529a1.85,1.85,0,1,1,0,3.7Z" transform="translate(-271.483 -346.469)" fill="#e4e4e4"/>
    <path id="Path_684" data-name="Path 684" d="M417.414,513.556H327.885a1.85,1.85,0,1,1,0-3.7h89.529a1.85,1.85,0,1,1,0,3.7Z" transform="translate(-271.483 -358.536)" fill="#e4e4e4"/>
    <path id="Path_685" data-name="Path 685" d="M524.6,567.223H500.015a1.85,1.85,0,0,1,0-3.7H524.6a1.85,1.85,0,1,1,0,3.7Z" transform="translate(-378.682 -391.958)" fill="#1cd244"/>
    <path id="Path_686" data-name="Path 686" d="M336.387,242.6a17.522,17.522,0,0,1-3.814,10.936,17.269,17.269,0,0,1-2.716,2.739,17.516,17.516,0,0,1-9.612,3.855c-.479.042-.962.06-1.449.06a17.514,17.514,0,0,1-2.882-.238c-.332-.052-.66-.116-.988-.192a16.511,16.511,0,0,1-1.69-.471,17.507,17.507,0,0,1-5-2.625c-.4-.3-.792-.622-1.169-.962a15.843,15.843,0,0,1-1.309-1.305c-.109-.121-.219-.245-.324-.37A17.585,17.585,0,1,1,336.387,242.6Z" transform="translate(-256.026 -181.14)" fill="#e4e4e4"/>
    <circle id="Ellipse_81" data-name="Ellipse 81" cx="7.208" cy="7.208" r="7.208" transform="translate(54.95 53.042)" fill="#ffb6b6"/>
    <path id="Path_687" data-name="Path 687" d="M340.54,245.747a2.916,2.916,0,0,0-.517-1.811l-.26-.37a21.586,21.586,0,0,0-3.625-4.632,3.374,3.374,0,0,0-2.524-1.283,2.26,2.26,0,0,0-1.543.77,5.551,5.551,0,0,0-5.281,3.014c-3.452,1.822-2.422,7.2-2.41,7.258l.834,1.4.094-.177s.011-.019.026-.049c.162-.29,1.045-1.9,1.641-2.927a2.894,2.894,0,0,1,.849-.875,4.226,4.226,0,0,1,1.871-.705l1.833-.238-.694,1.041h4.994l1.92-.226a43.091,43.091,0,0,0,1.9,4.217l.015.03.1.207.57-1.565A6.052,6.052,0,0,0,340.54,245.747Z" transform="translate(-270.357 -189.01)" fill="#2f2e41"/>
    <path id="Path_688" data-name="Path 688" d="M319.874,297.877a10.406,10.406,0,0,1,5.6-3.316l1.954-2.177,7.835-1.249,3.987,2.2,4.908,1.373a17.262,17.262,0,0,1-2.716,2.739,17.517,17.517,0,0,1-9.612,3.855c-.479.042-.962.06-1.449.06a17.508,17.508,0,0,1-2.882-.238c-.332-.052-.66-.116-.988-.192a16.5,16.5,0,0,1-1.69-.472,17.418,17.418,0,0,1-4.949-2.588c-.019-.011-.034-.026-.053-.038Z" transform="translate(-267.613 -222.321)" fill="url(#linear-gradient)"/>
    <path id="Path_689" data-name="Path 689" d="M382.366,117.53H182.538a1.121,1.121,0,0,1-1.119-1.119v-6.584a1.121,1.121,0,0,1,1.119-1.119H382.366a1.12,1.12,0,0,1,1.119,1.119v6.584A1.12,1.12,0,0,1,382.366,117.53Z" transform="translate(-181.419 -108.708)" fill="url(#linear-gradient)"/>
    <circle id="Ellipse_90" data-name="Ellipse 90" cx="1.589" cy="1.589" r="1.589" transform="translate(4.907 2.501)" fill="#fff"/>
    <circle id="Ellipse_91" data-name="Ellipse 91" cx="1.589" cy="1.589" r="1.589" transform="translate(10.939 2.501)" fill="#fff"/>
    <circle id="Ellipse_92" data-name="Ellipse 92" cx="1.589" cy="1.589" r="1.589" transform="translate(16.971 2.501)" fill="#fff"/>
    <path id="Path_690" data-name="Path 690" d="M686.143,114.952H679.2a.515.515,0,1,1,0-1.029h6.946a.515.515,0,1,1,0,1.029Z" transform="translate(-491.105 -111.956)" fill="#fff"/>
    <path id="Path_691" data-name="Path 691" d="M686.143,120.067H679.2a.515.515,0,1,1,0-1.029h6.946a.515.515,0,1,1,0,1.029Z" transform="translate(-491.105 -115.141)" fill="#fff"/>
    <path id="Path_692" data-name="Path 692" d="M686.143,125.182H679.2a.515.515,0,1,1,0-1.029h6.946a.515.515,0,1,1,0,1.029Z" transform="translate(-491.105 -118.327)" fill="#fff"/>
    <path id="Path_693" data-name="Path 693" d="M840.587,551.522a3.231,3.231,0,0,1,.644-4.913l-2.648-11.174,5.6,2.048,1.655,10.3a3.249,3.249,0,0,1-5.257,3.742Z" transform="translate(-590.688 -374.466)" fill="#ffb6b6"/>
    <path id="Path_694" data-name="Path 694" d="M808.164,418.937l2.249,5.784s-.964,5.784.643,7.07.964,1.285.964,2.249a4.943,4.943,0,0,0,1.928,3.535c1.285.964,7.07,20.566,7.07,20.566H826.8a18.131,18.131,0,0,1,0-4.5c.321-2.249-.964-8.034-1.607-9s0-2.249,0-4.177-1.285-2.892-1.285-6.106-3.856-28.278-3.535-31.17-3.213-5.463-3.213-5.463h-3.213Z" transform="translate(-571.744 -288.704)" fill="#e4e4e4"/>
    <path id="Path_695" data-name="Path 695" d="M655.545,642h-4.275l-2.034-16.489h6.309Z" transform="translate(-404.332 -389.556)" fill="#ffb6b6"/>
    <path id="Path_696" data-name="Path 696" d="M827.512,776.616H813.728v-.174a5.365,5.365,0,0,1,5.365-5.365h0l2.518-1.91,4.7,1.911h1.2Z" transform="translate(-575.209 -520.029)" fill="#2f2e41"/>
    <path id="Path_697" data-name="Path 697" d="M555.661,639.755l-4.014-1.469L555.4,622.1l5.925,2.168Z" transform="translate(-343.555 -387.433)" fill="#ffb6b6"/>
    <path id="Path_698" data-name="Path 698" d="M721.276,774.018l-12.945-4.736.06-.164a5.366,5.366,0,0,1,6.882-3.2h0l3.021-.929,3.755,3.408,1.13.413Z" transform="translate(-509.57 -517.431)" fill="#2f2e41"/>
    <path id="Path_699" data-name="Path 699" d="M820.99,572.469s-2.892,14.139,1.928,12.854,2.892-13.5,2.892-13.5Z" transform="translate(-579.196 -397.129)" fill="#a0616a"/>
    <path id="Path_700" data-name="Path 700" d="M744.358,542.437s-3.856,5.141-3.856,8.034-1.285,28.6-1.285,28.6-9.757,38.281-7.829,40.209,8.676,3.856,9.64,2.892,9.435-40.531,9.435-40.531l8.034-21.53,7.391,30.849.643,32.777s8.033,1.928,9.64.643,1.928-32.456,0-43.381.321-35.99.321-35.99Z" transform="translate(-523.772 -378.826)" fill="#2f2e41"/>
    <circle id="Ellipse_82" data-name="Ellipse 82" cx="9.64" cy="9.64" r="9.64" transform="translate(223.833 75.724)" fill="#ffb6b6"/>
    <path id="Path_701" data-name="Path 701" d="M761.51,380.892a72.027,72.027,0,0,1,8.239-9.6c2.892-.964,7.9-.4,9.64,0,8.034,10.6,8.539,9.9,10.63,15.825a8.345,8.345,0,0,1,.572,4.218c-.964,4.82,2.089,43.863,2.41,45.149s2.571,2.892.321,2.892-36.312-1.285-35.669-2.249S761.51,380.892,761.51,380.892Z" transform="translate(-540.281 -271.91)" fill="#e4e4e4"/>
    <path id="Path_702" data-name="Path 702" d="M582.572,401.753l9.666-21.267L587.4,403.1Z" transform="translate(-362.815 -236.959)" opacity="0.1"/>
    <path id="Path_703" data-name="Path 703" d="M778.254,324.291a16.407,16.407,0,0,0,2.48-2.276,5.5,5.5,0,0,0,1.343-3.035,3.343,3.343,0,0,0-1.274-2.963,2.422,2.422,0,0,0-3.081.216c.368-1.19.7-2.594-.041-3.592-.679-.908-1.945-1.063-3.038-1.362a8.8,8.8,0,0,1-5.09-3.792l1.857.384-.207-1.324,1.539.535.013-1.844,1.588.889a10.141,10.141,0,0,1,7.144-2.662,7.9,7.9,0,0,1,3.788,1.04,5.545,5.545,0,0,1,2.468,3,2.607,2.607,0,0,1,3.249-.12,5.635,5.635,0,0,1,1.939,2.884,12.447,12.447,0,0,1,.524,6.659,9.913,9.913,0,0,1-3.4,5.69,11.055,11.055,0,0,1-5.545,2.206,20.693,20.693,0,0,1-6.017-.257" transform="translate(-547.697 -229.996)" fill="#2f2e41"/>
    <path id="Path_704" data-name="Path 704" d="M746.676,551.411a3.231,3.231,0,0,0-.644-4.913l2.648-11.174-5.6,2.048-1.655,10.3a3.249,3.249,0,0,0,5.257,3.742Z" transform="translate(-529.928 -374.396)" fill="#ffb6b6"/>
    <path id="Path_705" data-name="Path 705" d="M755.105,397.618h-3.213s-3.535,2.571-3.213,5.463-3.535,27.957-3.535,31.17-1.285,4.177-1.285,6.106.643,3.213,0,4.177-1.928,6.748-1.607,9a18.128,18.128,0,0,1,0,4.5h5.784s5.784-19.6,7.07-20.566a4.943,4.943,0,0,0,1.928-3.535c0-.964-.643-.964.964-2.249s.643-7.069.643-7.069l2.249-5.784Z" transform="translate(-530.663 -288.636)" fill="#e4e4e4"/>
    <path id="Path_706" data-name="Path 706" d="M725.627,789.809H549.354a.449.449,0,1,1,0-.9H725.627a.449.449,0,0,1,0,.9Z" transform="translate(-410.282 -532.325)" fill="#cacaca"/>
  </g>
</svg>
