<svg xmlns="http://www.w3.org/2000/svg" xmlns:xlink="http://www.w3.org/1999/xlink" width="326.254" height="223" viewBox="0 0 326.254 223">
  <defs>
    <linearGradient id="linear-gradient" x1="0.5" x2="0.5" y2="1" gradientUnits="objectBoundingBox">
      <stop offset="0" stop-color="#128c7e"/>
      <stop offset="1" stop-color="#09463f"/>
    </linearGradient>
  </defs>
  <g id="undraw_share_link_re_54rx" transform="translate(0)">
    <path id="Path_16737" data-name="Path 16737" d="M452.93,619.584a1.267,1.267,0,0,1-.918-2.2l.087-.345-.034-.083a3.4,3.4,0,0,0-6.278.023c-1.027,2.473-2.334,4.95-2.656,7.565a10.068,10.068,0,0,0,.177,3.463,40.365,40.365,0,0,1-3.672-16.765,38.958,38.958,0,0,1,.242-4.346q.2-1.775.556-3.524a40.833,40.833,0,0,1,8.1-17.306,10.867,10.867,0,0,0,4.52-4.689,8.287,8.287,0,0,0,.754-2.265,10.231,10.231,0,0,1-.664-3.528c-.307-.465-.855-.7-1.19-1.151-1.665-2.258-3.96-1.864-5.158,1.2-2.559,1.291-2.584,3.433-1.014,5.493,1,1.311,1.136,3.084,2.013,4.487-.09.115-.184.227-.274.343a41.1,41.1,0,0,0-4.289,6.8,17.085,17.085,0,0,0-1.02-7.935c-.976-2.355-2.806-4.339-4.418-6.375a3.507,3.507,0,0,0-6.246,1.722l-.01.09q.359.2.7.43a1.719,1.719,0,0,1-.693,3.128l-.035.005a17.094,17.094,0,0,0,.451,2.557c-2.067,7.995,2.4,10.907,8.768,11.037.141.072.278.144.418.213a41.946,41.946,0,0,0-2.258,10.626,39.781,39.781,0,0,0,.029,6.424l-.011-.076a10.514,10.514,0,0,0-3.589-6.071c-2.762-2.269-6.664-3.1-9.643-4.928a1.973,1.973,0,0,0-3.022,1.919l.012.08a11.539,11.539,0,0,1,1.295.624q.359.2.7.43a1.719,1.719,0,0,1-.693,3.128l-.035.005-.072.011a17.118,17.118,0,0,0,3.149,4.931c1.293,6.979,6.844,7.641,12.783,5.609h0a41.929,41.929,0,0,0,2.817,8.224h10.063c.036-.112.069-.227.1-.339a11.428,11.428,0,0,1-2.785-.166c.747-.916,1.493-1.84,2.24-2.756a.6.6,0,0,0,.047-.054c.379-.469.761-.934,1.14-1.4h0a16.749,16.749,0,0,0-.491-4.266Z" transform="translate(-339.574 -405.974)" fill="#f2f2f2"/>
    <path id="Path_16738" data-name="Path 16738" d="M79.642,426.176l2.777,2.935,12.893-9.552-4.1-4.331Z" transform="translate(-43.69 -227.786)" fill="#ffb6b6"/>
    <path id="Path_16739" data-name="Path 16739" d="M313.873,641.61l-3.143-2.953-.772-.723-8,6.4,2.082,2.2,2.45-1.571-1.126,2.972,5.519,5.834a1.806,1.806,0,0,0,3.1-1.515l-1.191-7.707,2.1-1.985Z" transform="translate(-273.371 -441.597)" fill="#2f2e41"/>
    <path id="Path_16740" data-name="Path 16740" d="M380.4,399.239l-.88,9.611s-1.537,7.241-.473,6.654-.844,2.055-.341,4.345-4.292,19.372-2.12,17.6-1.255,10.455-3.422,16.486c-.663,1.864-1.345,3.751-2.031,5.625-.135.379-.271.754-.411,1.133-.889,2.438-1.779,4.839-2.632,7.105-.122.316-.239.632-.357.944,0,.009,0,.018-.009.018-2.808,7.39-5.214,13.2-6.176,14.166-.5.5-8.45,6.243-16.463,11.994-8.41,6.036-16.888,12.085-16.888,12.085l-7.918-8.306s.19-.054.546-.162c.659-.19,1.878-.546,3.476-1.02,6.663-1.964-1.8-5.02,4.248-7.2a13.924,13.924,0,0,0,3.1-1.345c1.5-1.467,3.521-4.966,4.474-3.5s5.273-9.435,6.518-10.514c.668-.582,2.848-3.3,4.717-5.7,1.607-2.058,2.988-3.878,2.988-3.878s.027-.975.068-2.528c.059-2.3.145-5.868.235-9.444,0,0,0,0,0,0,.032-1.345.063-2.69.095-3.968.023-.989.045-1.941.068-2.821.059-2.636.1-4.631.1-5.128,0-1.63,0-.361,1.287-1.345a5.816,5.816,0,0,0,.546-.488,6.6,6.6,0,0,0,.758-.808c.095-.2-.5.072-1.264-.081a2.3,2.3,0,0,1-1.11-.569c-1.616-1.453.126-5.922.126-5.922-3.675-7.349-3.408-13.376-1.688-18.021a23.116,23.116,0,0,1,5.963-8.735,21.577,21.577,0,0,1,3.264-2.56l.113-.609,1.241-6.722a14.974,14.974,0,0,1,2.054-.934,14.258,14.258,0,0,1,6.889-.686,20.559,20.559,0,0,1,6.6,2.135A24.405,24.405,0,0,1,380.4,399.239Z" transform="translate(-283.423 -307.7)" fill="#2f2e41"/>
    <path id="Path_16741" data-name="Path 16741" d="M138.02,453.375l4.023.374,3.39-15.684-5.937-.552Z" transform="translate(-75.715 -240.012)" fill="#ffb6b6"/>
    <path id="Path_16742" data-name="Path 16742" d="M384.995,679.419l-5.977-5.006.271-2.88-1.39-.045-4.307-.14h0l-1.056-.036L370.739,681.4l3.02.28.8-2.8,1.115,2.979,1.6.149,6.4.6c.054,0,.113.009.167.009a1.793,1.793,0,0,0,1.345-.6,1.767,1.767,0,0,0,.456-1.038A1.8,1.8,0,0,0,384.995,679.419Z" transform="translate(-311.105 -459.907)" fill="#2f2e41"/>
    <path id="Path_16743" data-name="Path 16743" d="M397.244,535.345c-1.53,8.329-8.008,27.857-11.926,39.287-1.783,5.223-3.029,8.757-3.029,8.757l-2.031-.641h0l-3.435-1.084-1.25-.4h0l-1.517-.483s.176-9.326.194-18.319c.013-3.769,0-7.485-.077-10.428a29.623,29.623,0,0,0-.451-5.963c-.953-1.869.641-2.068,2.325-2.537s.37-1.187-.285-2.7c-.442-1.011.429-2.361,1.047-3.128a7.568,7.568,0,0,1,.546-.619s-.3-.1-.83-.284c1.607-2.059,2.988-3.878,2.988-3.878s.027-.975.068-2.528c.059-2.3.145-5.868.235-9.444,0,0,0,0,0,0,.032-1.345.063-2.69.095-3.968,2.582,1.982,5.092,3.923,7.367,5.72a.023.023,0,0,1,.009.018c5.467,4.32,9.57,7.787,10.148,8.888C397.686,532.1,397.6,533.431,397.244,535.345Z" transform="translate(-312.578 -375.245)" fill="#2f2e41"/>
    <path id="Path_16744" data-name="Path 16744" d="M721.229,231.878a2.9,2.9,0,0,1,3.151,2.54,2.771,2.771,0,0,1,.01.46l9.309,3.975-.355,5.433-12.163-6.825a2.893,2.893,0,0,1-2.475-2.521,2.769,2.769,0,0,1,2.448-3.056Z" transform="translate(-501.983 -218.836)" fill="#ffb6b6"/>
    <path id="Path_16745" data-name="Path 16745" d="M793.583,270.912a8.533,8.533,0,0,0-1.259-2.948,7.65,7.65,0,0,0-.546-.731c-.731-.871-1.413-1.67-2.045-2.383-.384-.447-.758-.862-1.111-1.246-2.045-2.244-3.385-3.431-4-3.53-.3-.05-.591-.086-.876-.122-1.458-.181-2.514-.311-2.546-1.851a4.009,4.009,0,0,1,.045-.659,8.055,8.055,0,0,1,.239-1.083,4.8,4.8,0,0,0,.14-.614c.045-.266.027-.465-.118-.587-.181-.149-.483-.126-1.052.1-.09.036-.194.077-.3.126-.036.014-.072.032-.113.05-.072.032-.153.068-.234.108a5.921,5.921,0,0,1-2.934.244,42.017,42.017,0,0,1-8.4-2.171l-30.191-11.732-.28.451-.664,1.074-.23.37-.262.424-1.142,1.842-.578.93,9.751,7.354,1.061.8.912.691,18.616,14.044,6.943,4.582,1.549,1.02,6.6,4.352a8.523,8.523,0,0,0,13.023-8.9Z" transform="translate(-511.002 -224.33)" fill="#e6e6e6"/>
    <path id="Path_16746" data-name="Path 16746" d="M564.437,695.9H239.086a.451.451,0,0,1,0-.9H564.437a.451.451,0,0,1,0,.9Z" transform="translate(-238.635 -472.902)" fill="#e6e6e6"/>
    <path id="Path_16747" data-name="Path 16747" d="M164.915,166.791l.846,7.847-.5,10.289,22.79-2.707,2.141-15.428-2.728.027Z" transform="translate(-90.469 -91.498)" fill="#ffb6b6"/>
    <path id="Path_16748" data-name="Path 16748" d="M415.119,305.1l-8.577-6.771h0l-4.5-.262-6.681,4.28-1.636,8.345-3.869,9.4,5.674,25.362s.532,1.82-.862,2.038-1.227,2.9-1.227,2.9.284,2.325-1.07,2.53-4.965.2-1.806,4.267,28.153-11.3,28.153-11.3l3.63-19.047s7.04-9.456-.542-14.871Z" transform="translate(-321.288 -255.154)" fill="#e6e6e6"/>
    <path id="Path_16749" data-name="Path 16749" d="M362.445,389.658a4.134,4.134,0,0,1,1.247-6.215l10.789-36.206,6.746,3.4-11.749,34.7a4.156,4.156,0,0,1-7.033,4.321Z" transform="translate(-306.057 -282.126)" fill="#ffb6b6"/>
    <path id="Path_16750" data-name="Path 16750" d="M387.252,306.685s-1.928-1.025-3.247,3.41c-1.056,3.55-9.625,24.7-9.734,29.84a3.247,3.247,0,0,0-2.571,3.04l10.594,1.42c1.851-1.561,2.337-3.67,1.621-4.3l2.3-6.282,9.6-19.989-7.152-6.426Z" transform="translate(-311.631 -259.824)" fill="#e6e6e6"/>
    <path id="Path_16751" data-name="Path 16751" d="M490.465,374.343a4.134,4.134,0,0,0-3.812-5.064L461.9,341.014l-5.25,6.264,25.6,26.21a4.156,4.156,0,0,0,8.21.855Z" transform="translate(-358.236 -278.712)" fill="#ffc5c5"/>
    <path id="Path_16752" data-name="Path 16752" d="M429.394,311.538s1.3-1.758,4.4,1.67c2.487,2.745,19.359,18.108,21.681,22.7a3.248,3.248,0,0,1,3.633,1.629l-8.938,5.861c-2.344-.607-3.694-2.3-3.319-3.173l-4.791-4.67-17.3-13.873,3.67-8.887Z" transform="translate(-340.742 -262.295)" fill="#e6e6e6"/>
    <circle id="Ellipse_112" data-name="Ellipse 112" cx="63.199" cy="63.199" r="63.199" transform="translate(117.742 0.45)" fill="url(#linear-gradient)"/>
    <path id="Path_16753" data-name="Path 16753" d="M594.151,370.17a15.438,15.438,0,0,1-21.833,0h0a15.441,15.441,0,0,1-2.086-19.238l-3.4,3.465a15.438,15.438,0,0,0,0,21.833h0a15.438,15.438,0,0,0,21.833,0l7.527-7.815.114-.486Z" transform="translate(-416.199 -284.153)" opacity="0.2"/>
    <path id="Path_16754" data-name="Path 16754" d="M645.637,277.342a15.438,15.438,0,0,1,21.45,4.069h0a15.441,15.441,0,0,1-1.536,19.29l3.983-2.771a15.438,15.438,0,0,0,4.069-21.45h0a15.438,15.438,0,0,0-21.45-4.069l-8.851,6.275-.2.456Z" transform="translate(-460.516 -239.608)" opacity="0.2"/>
    <path id="Path_16755" data-name="Path 16755" d="M576.1,362.775a16.792,16.792,0,0,1-11.874-28.666l14.251-14.539a16.792,16.792,0,0,1,23.757-.009,1.354,1.354,0,0,1-1.915,1.915,14.084,14.084,0,0,0-19.917,0c-2.093,7.379-6.616,12.442-14.251,14.539a14.084,14.084,0,0,0,19.908,19.927c-.309-3.027.576-5.873,7.509-7.8a1.354,1.354,0,1,1,1.951,1.879L588,357.838A16.7,16.7,0,0,1,576.1,362.775Z" transform="translate(-414.552 -264.245)" fill="#fff"/>
    <path id="Path_16756" data-name="Path 16756" d="M632.851,315.984a16.682,16.682,0,0,1-11.874-4.919,1.354,1.354,0,1,1,1.915-1.915,14.083,14.083,0,0,0,19.917,0c1.8-10.872,9.163-12.407,15.559-15.558a14.084,14.084,0,1,0-19.917-19.918c-1.779,5.133-3.526,10.327-8.825,8.825a1.354,1.354,0,1,1-1.915-1.915l8.825-8.825a16.792,16.792,0,1,1,23.748,23.748l-15.559,15.559A16.682,16.682,0,0,1,632.851,315.984Z" transform="translate(-448.163 -238.023)" fill="#fff"/>
    <path id="Path_16757" data-name="Path 16757" d="M617.02,234.487a64.35,64.35,0,0,0-9.512-12.41c-.817-.831-1.661-1.643-2.523-2.433-.479-.438-.962-.867-1.454-1.287-.934-.8-1.9-1.58-2.875-2.329a63.644,63.644,0,0,0-101.145,62.16.346.346,0,0,0,.009.063c.32,1.747.718,3.471,1.178,5.164a63.645,63.645,0,0,0,115.45,16.842q1.32-2.126,2.483-4.361A63.561,63.561,0,0,0,617.02,234.487ZM562.109,329.4a62.747,62.747,0,1,1,44.907-106.526,60.075,60.075,0,0,1,4.306,4.9A60.837,60.837,0,0,1,615.047,233a62.715,62.715,0,0,1,7.313,51.2c-.555,1.914-1.205,3.787-1.937,5.625s-1.553,3.647-2.456,5.4A62.96,62.96,0,0,1,562.109,329.4Z" transform="translate(-381.169 -203.001)" fill="#3f3d56"/>
    <path id="Path_16758" data-name="Path 16758" d="M585.362,453.024l-4.149-.035-1.837-16.377,6.124.052Z" transform="translate(-317.835 -239.517)" fill="#ffb6b6"/>
    <path id="Path_16759" data-name="Path 16759" d="M816.22,671.161l-1.083-.072-4.419-.3-1.422-.095-.027,2.966-6.627,4.5a1.855,1.855,0,0,0,1.029,3.39l8.247.068,1.445-2.925.528,2.943,3.115.027Z" transform="translate(-547.592 -459.567)" fill="#2f2e41"/>
    <path id="Path_16760" data-name="Path 16760" d="M676.452,447.248l-3.966,1.219-6.695-15.058,5.854-1.8Z" transform="translate(-365.241 -236.773)" fill="#ffb6b6"/>
    <path id="Path_16761" data-name="Path 16761" d="M915.439,664.481l-1.056.258-4.3,1.043-1.386.339.871,2.839-4.961,6.284a1.858,1.858,0,0,0,1.458,3.006,1.881,1.881,0,0,0,.542-.081l7.886-2.424.492-3.228,1.395,2.645,2.975-.916Z" transform="translate(-603.756 -456.16)" fill="#2f2e41"/>
    <path id="Path_16762" data-name="Path 16762" d="M801.088,370.917l-7.918,23.011-.261,1.841c-2,1.894.511,2.518-.429,3.018s-1.572,1.9-.305,2.15,5.349,90,10.735,93.486,8.663,6.005,7.674.9c-.4-2.056.165-13.079.98-25.509.093-1.409,1.552-2.9.286-4.27s.156-2.271.236-3.408c1.136-16.232,2.447-32.257,2.447-32.257s8.394,28.826,10.573,26.595,1.317,3.263,1.983,4.9c.557,1.372-1.818,4.067,1.672,4.108s11.687,28.061,12.519,28.029c1.647-.063,6.278.115,9.028-.451,1.358-.28-4.67-21.493-9.7-39.812-.4-1.461-2.586-1.495-1.181-4.315s-5.586-21.07-4.986-21.914c1.592-2.24,2.2-3.214.628-3.361s-2.034.715-2.119-1.458-.356-7.532-.356-7.532-1.138-21.194-9.1-32.9l-.679-6.957Z" transform="translate(-541.907 -295.117)" fill="#2f2e41"/>
    <path id="Path_16763" data-name="Path 16763" d="M821.4,273.595l-10.5,1.5-.634,7.6-5.181,8.105S793.57,298.9,801.6,311.708c-3.057,11.03-6.1,21.607-8.993,28.659-2.257,13.994,17.963,15.335,41.079,10.383,0,0-.319-5.984-2.416-8.86s-.956-3.5-.956-3.5l-1.466-5.374c.829-7.768-1.971-8.465-3.288-12.055l4-37.24Z" transform="translate(-542.44 -241.728)" fill="#e6e6e6"/>
    <path id="Path_16764" data-name="Path 16764" d="M744.9,405.094a2.9,2.9,0,0,1,3.219-2.453,2.779,2.779,0,0,1,.449.1l6.082-8.091,5.191,1.642-9.53,10.183a2.893,2.893,0,0,1-3.038,1.8,2.769,2.769,0,0,1-2.384-3.107Q744.891,405.132,744.9,405.094Z" transform="translate(-516.342 -308.136)" fill="#ffb6b6"/>
    <path id="Path_16765" data-name="Path 16765" d="M806.618,302.4c-.149-.185-.311-.366-.483-.542a8.5,8.5,0,0,0-9.4-1.914c-.153.063-.307.135-.456.208-5.395,2.65-8.306,4.415-8.658,5.241-.122.28-.226.555-.33.822s-.194.51-.293.736c-.415.966-.894,1.567-2.113,1.3a4.874,4.874,0,0,1-1.16-.447c-.167-.081-.321-.167-.465-.248-.523-.289-.9-.5-1.16-.307s-.257.654-.031,1.742a3.636,3.636,0,0,1-.036,1.368,15.55,15.55,0,0,1-1.39,3.769,49.752,49.752,0,0,1-3.151,5.408l-10.739,15.312-.727,1.034-.795,1.133-6.338,9.037.375.383,1.571,1.6.348.357.316.325.817.835.767.781,17.122-13.949,1.91-1.558,3.422-2.79,7.01-5.71,13.267-12.279a8.444,8.444,0,0,0,2.731-6.026c0-.077,0-.149,0-.226A8.437,8.437,0,0,0,806.618,302.4Z" transform="translate(-524.036 -255.813)" fill="#e6e6e6"/>
    <circle id="Ellipse_113" data-name="Ellipse 113" cx="11.733" cy="11.733" r="11.733" transform="translate(260.926 8.124)" fill="#ffb6b6"/>
    <path id="Path_16766" data-name="Path 16766" d="M840.141,246.256a18.526,18.526,0,0,1,3.084,7.541,7.789,7.789,0,0,1-4.253,1.228c-.051-.2-.1-.395-.161-.592a16.929,16.929,0,0,0-1.929-4.333,10.2,10.2,0,0,1-.577,4.282,7.516,7.516,0,0,0-2.521-.65,4.581,4.581,0,0,0-2.046.482c-.738-2.448-1.417-4.7-1.9-6.313-.015,4.048-5.948,7.578-12.422,7.066-.234-.146,2.112-6.8,1.885-6.956-.519-.343-1.023-.716-1.527-1.081,2.119-3.274,4.421-6.781,4.026-7.307.029.65-2.294,3.778-4.823,6.73-1.4-1.03,6.569-17.793,2.631-19.152-.066.592-.935.592-1.995.468a10.805,10.805,0,0,0-1.235-2.769,6.5,6.5,0,0,1-.307,2.565,14.935,14.935,0,0,0-3.113.329,9.972,9.972,0,0,0-.782-1.067,6.351,6.351,0,0,1-.037,1.235,4.933,4.933,0,0,0-2.031.7c-.818-.3.577-1.651.066-2.353-1.3-1.754.628-4.311,1.849-6.123a9.3,9.3,0,0,1,11.9-2.769c.175-.607,1.074-1.008,2.229-1.279a6.045,6.045,0,0,1,1.491-.139c4.969.088,11.867,4.187,12.137,9.149.022.5.058,1.038.095,1.615.351,5.553-.08,10.676,3.712,14.738,1.374,1.469,1.388,8.425.862,12.006C843.086,252.065,842.115,246.468,840.141,246.256Z" transform="translate(-551.933 -210.129)" fill="#2f2e41"/>
    <circle id="Ellipse_114" data-name="Ellipse 114" cx="1.354" cy="1.354" r="1.354" transform="translate(157.628 62.526)" fill="#6c63ff"/>
    <circle id="Ellipse_115" data-name="Ellipse 115" cx="1.354" cy="1.354" r="1.354" transform="translate(200.513 61.623)" fill="#6c63ff"/>
    <path id="Path_16767" data-name="Path 16767" d="M394.984,243.344c-1.031,2.567-3.938,7.615-4.332,10.368l.177-.174a12.437,12.437,0,0,0,1.149,1.643,7.985,7.985,0,0,1,2.712-1.864,9.559,9.559,0,0,0-.952,3.668c1.1,3.44,6.17,1.908,9.142,1.532,2.968,3.4,6.917,4.281,12.088,2.329,1.446.149,3.065.239,4.079-.615s.41-2.437.955-3.634c3.884-8.526.3-11.6-2.746-15.468-.67-.851-.667-2.12-1.483-2.932-1.131-1.125-2.866-1.471-4.465-1.748a2.423,2.423,0,0,0,2.129-1.053,2.186,2.186,0,0,0-.029-2.282,3.938,3.938,0,0,0-2.907-1.637,11.037,11.037,0,0,0-3.364.289,6.019,6.019,0,0,0-2.037.651,1.667,1.667,0,0,0-.868,1.69,2.16,2.16,0,0,0,1.277,1.376,5.654,5.654,0,0,0,1.444.4,11.325,11.325,0,0,0-6.643,1.163A12.061,12.061,0,0,0,394.984,243.344Z" transform="translate(-322.029 -218.608)" fill="#2f2e41"/>
    <circle id="Ellipse_116" data-name="Ellipse 116" cx="9.161" cy="9.161" r="9.161" transform="translate(77.671 20.806)" fill="#ffb6b6"/>
    <path id="Path_16768" data-name="Path 16768" d="M411.243,248.366c.531,1.605,2.049,2.123,3.452,2.445.442.1.887.2,1.337.285.166-.207.342-.41.526-.6a7.985,7.985,0,0,1,2.712-1.864,9.409,9.409,0,0,0-.871,2.876q1.272.185,2.558.3a2.892,2.892,0,0,0,3.4-2.084,6.836,6.836,0,0,0,2.966,2.986,3.589,3.589,0,0,0,4.083-1.222,8.644,8.644,0,0,0,1.48-3.357c.358-1.422.557-3.059-.146-3.961a2.644,2.644,0,0,0-2.432-.678,28.945,28.945,0,0,0-5.845,1.06l-.161.363c.328-1.969-.383-3.863-1.7-4.536a5.538,5.538,0,0,0-2.991-.284,13.632,13.632,0,0,0-3.906.755,7.5,7.5,0,0,0-3.54,2.827A5.879,5.879,0,0,0,411.243,248.366Z" transform="translate(-333.226 -223.311)" fill="#2f2e41"/>
    <path id="Path_16769" data-name="Path 16769" d="M437.89,236.487c-.09-.027.144.008.063.01a.738.738,0,0,0,.12-.017c.007,0,.1-.03.037-.009a.736.736,0,0,0,.349-.228,3.045,3.045,0,0,0,.5-.889,3.191,3.191,0,0,1,.687-1.145.786.786,0,0,1,1.253.191,1.829,1.829,0,0,1-.112,1.268,3.936,3.936,0,0,1-.579,1.122,3.6,3.6,0,0,1-1.655,1.214,3.767,3.767,0,0,1-2.368.068.572.572,0,0,1-.023-1.047l1.294-.53a.567.567,0,1,1,.457,1.038l-1.294.53-.023-1.047a2.253,2.253,0,0,0,.5.085,1.9,1.9,0,0,0,.537-.023,2.353,2.353,0,0,0,.5-.121,3.246,3.246,0,0,0,.3-.128l.106-.054s.148-.086.082-.045a3.2,3.2,0,0,0,.469-.365,1.3,1.3,0,0,0,.141-.157,3.012,3.012,0,0,0,.2-.284,2.946,2.946,0,0,0,.3-.666,2.985,2.985,0,0,0,.083-.3,1.224,1.224,0,0,1,.03-.165c.048-.129-.009.075.046.131l.239.176a.311.311,0,0,0,.267-.043q.042-.06-.019.02a1.864,1.864,0,0,0-.13.2,5.359,5.359,0,0,0-.232.491,5.385,5.385,0,0,1-.537,1.014,1.825,1.825,0,0,1-2,.764.571.571,0,0,1-.323-.734.578.578,0,0,1,.734-.323Z" transform="translate(-346.813 -219.994)" fill="#2f2e41"/>
  </g>
</svg>
