<svg xmlns="http://www.w3.org/2000/svg" xmlns:xlink="http://www.w3.org/1999/xlink" width="486" height="521.998" viewBox="0 0 486 521.998">
  <defs>
    <linearGradient id="linear-gradient" x1="0.5" x2="0.5" y2="1" gradientUnits="objectBoundingBox">
      <stop offset="0" stop-color="#128c7e"/>
      <stop offset="1" stop-color="#09463f"/>
    </linearGradient>
  </defs>
  <g id="undraw_in_thought_re_qyxl" transform="translate(0)">
    <path id="Path_17017" data-name="Path 17017" d="M405.849,344.575c-22.911-22.554-32.587-46.083-27.247-66.253,6.852-25.884,37.295-43.78,83.521-49.1l.171,1.485c-45.583,5.246-75.56,22.74-82.247,48-5.2,19.629,4.339,42.645,26.851,64.806Z" transform="translate(-300.649 -133.169)" fill="#f0f0f0"/>
    <path id="Path_17018" data-name="Path 17018" d="M646.529,471.225c-28.594,0-59.666-4.249-90.53-12.42-38.167-10.1-73.162-25.356-101.2-44.106l.83-1.242c27.9,18.659,62.745,33.841,100.754,43.9,34.349,9.094,68.955,13.307,100.065,12.2l.054,1.493Q651.572,471.226,646.529,471.225Z" transform="translate(-320.28 -179.76)" fill="#f0f0f0"/>
    <path id="Path_17019" data-name="Path 17019" d="M761.682,418.9l-.479-1.415c25.573-8.647,41.569-22.575,46.256-40.281,5.959-22.509-6.987-48.629-36.452-73.548-29.615-25.046-72.321-45.828-120.253-58.517l.382-1.445c48.141,12.745,91.055,33.634,120.835,58.821,29.931,25.313,43.047,51.974,36.932,75.071C804.083,395.8,787.753,410.082,761.682,418.9Z" transform="translate(-369.835 -136.828)" fill="#f0f0f0"/>
    <path id="Path_17020" data-name="Path 17020" d="M443.658,460.521c-56.185-24.919-99.481-57.248-121.909-91.032l1.245-.827c22.274,33.551,65.342,65.689,121.27,90.494Z" transform="translate(-286.635 -168.432)" fill="#f0f0f0"/>
    <path id="Path_17021" data-name="Path 17021" d="M743.346,543.519q-8.693,0-17.683-.388l.064-1.493c44.726,1.936,84.188-3.416,114.128-15.482l.559,1.386C814.3,538.067,781.007,543.519,743.346,543.519Z" transform="translate(-388.778 -208.26)" fill="#f0f0f0"/>
    <path id="Path_17022" data-name="Path 17022" d="M643.144,222.035c-9.286-3.023-18.838-5.839-28.39-8.367-54.968-14.553-109-19.719-156.264-14.939l-.15-1.487c47.437-4.8,101.656.383,156.8,14.981,9.579,2.536,19.158,5.359,28.471,8.392Z" transform="translate(-321.176 -124.643)" fill="#f0f0f0"/>
    <path id="Path_17023" data-name="Path 17023" d="M358.849,347.575c-22.911-22.554-32.587-46.083-27.247-66.253,6.852-25.884,37.294-43.78,83.521-49.1l.171,1.485c-45.583,5.246-75.56,22.74-82.247,48-5.2,19.629,4.339,42.645,26.851,64.806Z" transform="translate(-288.763 -133.928)" fill="#f0f0f0"/>
    <path id="Path_17024" data-name="Path 17024" d="M599.529,474.225c-28.594,0-59.666-4.249-90.53-12.42-38.167-10.1-73.162-25.356-101.2-44.106l.83-1.242c27.9,18.659,62.745,33.841,100.754,43.9,34.349,9.094,68.955,13.307,100.065,12.2l.054,1.493Q604.571,474.225,599.529,474.225Z" transform="translate(-308.395 -180.518)" fill="#f0f0f0"/>
    <path id="Path_17025" data-name="Path 17025" d="M714.682,421.9l-.479-1.415c25.573-8.647,41.568-22.575,46.256-40.281,5.959-22.509-6.987-48.629-36.452-73.548-29.615-25.046-72.321-45.828-120.253-58.517l.382-1.445c48.141,12.745,91.055,33.634,120.835,58.821,29.931,25.313,43.047,51.974,36.932,75.071C757.083,398.8,740.753,413.082,714.682,421.9Z" transform="translate(-357.95 -137.587)" fill="#f0f0f0"/>
    <path id="Path_17026" data-name="Path 17026" d="M396.658,463.521c-56.185-24.919-99.481-57.248-121.909-91.032l1.245-.827c22.274,33.551,65.342,65.689,121.27,90.494Z" transform="translate(-274.749 -169.19)" fill="#f0f0f0"/>
    <path id="Path_17027" data-name="Path 17027" d="M696.346,546.519q-8.693,0-17.683-.388l.064-1.493c44.726,1.936,84.188-3.416,114.128-15.482l.559,1.386C767.3,541.068,734.007,546.519,696.346,546.519Z" transform="translate(-376.893 -209.018)" fill="#f0f0f0"/>
    <path id="Path_17028" data-name="Path 17028" d="M596.144,225.035c-9.286-3.023-18.838-5.839-28.39-8.367-54.968-14.553-109-19.719-156.264-14.939l-.15-1.487c47.437-4.8,101.656.383,156.8,14.981,9.579,2.536,19.158,5.359,28.471,8.392Z" transform="translate(-309.291 -125.402)" fill="#f0f0f0"/>
    <g id="Group_221" data-name="Group 221" transform="translate(192.846 121.877)">
      <path id="Path_2938" data-name="Path 2938" d="M671.134,413.533l12.7-1.494,4.483,38.85,11.445,53.649a8.218,8.218,0,1,1-8.915,1.121l-11.5-31.609Z" transform="translate(-567.835 -301.278)" fill="#ffb6b6"/>
      <path id="Path_2939" data-name="Path 2939" d="M646.437,771.091H656.9l4.979-40.363H646.436Z" transform="translate(-561.589 -381.87)" fill="#ffb6b6"/>
      <path id="Path_2940" data-name="Path 2940" d="M642.866,793.737h33.741v-.427a13.133,13.133,0,0,0-13.131-13.133h-20.61Z" transform="translate(-560.686 -394.375)" fill="#2f2e41"/>
      <path id="Path_2941" data-name="Path 2941" d="M538.948,763.7l10.274,1.984L561.765,727,546.6,724.07Z" transform="translate(-534.407 -380.186)" fill="#ffb6b6"/>
      <path id="Path_2942" data-name="Path 2942" d="M532.87,785.26l33.129,6.4.081-.419a13.134,13.134,0,0,0-10.4-15.385h0l-20.234-3.908Z" transform="translate(-532.87 -392.293)" fill="#2f2e41"/>
      <path id="Path_2943" data-name="Path 2943" d="M650.929,312.379l-6.08,11.665L599.311,314l4.989-22.617c3.948-17.9,19.778-30.831,37.68-26.883s26.255,21.446,22.307,39.348l-7.338,22.862-7.425-1.638Z" transform="translate(-549.672 -263.787)" fill="#2f2e41"/>
      <path id="Path_2944" data-name="Path 2944" d="M652.96,500.366s4.483,22.413-1.494,55.287-7.471,47.068-7.471,47.068,4.483,5.23,1.494,8.218,0,8.965,0,8.965l-6.724,72.47-23.16-3.736,2.988-67.987s-2.988-5.977-1.494-7.471-1.494-10.46-1.494-10.46l-3.736-70.976-23.161,77.7s2.241,2.988,0,5.23-6.724,13.448-6.724,13.448l-14.942,52.3-23.908-4.483,13.448-59.769s-1.494-3.736.747-5.977a5.853,5.853,0,0,0,1.494-5.23s-2.241-2.241.747-5.23,4.483-14.942,4.483-14.942,2.241-79.941,9.713-84.424S652.96,500.366,652.96,500.366Z" transform="translate(-535.466 -323.111)" fill="#2f2e41"/>
      <circle id="Ellipse_569" data-name="Ellipse 569" cx="20.919" cy="20.919" r="20.919" transform="translate(62.793 11.798)" fill="#ffb6b6"/>
      <path id="Path_2945" data-name="Path 2945" d="M598.8,343.3s-15.184-1.779-19.667,2.7l4.483,90.4s-2.988,2.241-1.494,7.471a21.344,21.344,0,0,1,0,10.46s-4.483,5.23-2.241,7.471,82.93.747,82.93.747,2.988-5.23-1.494-8.218-2.241-11.207-2.241-11.207,1.494-2.241-2.241-5.977-6.724-34.367-6.724-34.367l9.712-37.356s-9.777-11.036-20.951-11.868Z" transform="translate(-544.569 -283.807)" fill="#e6e6e6"/>
      <path id="Path_2946" data-name="Path 2946" d="M670.5,373.552l11.575-.514s6.724,13.448,7.471,25.4l4.114,44.594L667.132,447Z" transform="translate(-566.823 -291.415)" fill="#e6e6e6"/>
      <path id="Path_2947" data-name="Path 2947" d="M656.22,300.048l7.77-10a8.152,8.152,0,0,0-6.187-9.689l-29.356-6.475a8.153,8.153,0,0,0-9.69,6.188l-.016.075,2.1,12.073.369-.066c18.218-3.248,23.408-2.105,34.71,7.64Z" transform="translate(-554.585 -266.293)" fill="#2f2e41"/>
      <path id="Path_2948" data-name="Path 2948" d="M563.09,488.706l1.4-58.828,1.494-41.838,17.931,2.241-9.63,100a8.218,8.218,0,1,1-11.549-1.308q.172-.137.352-.265Z" transform="translate(-539.64 -295.209)" fill="#ffb6b6"/>
      <path id="Path_2949" data-name="Path 2949" d="M585.766,348.3l-13.08-1.261s-2.241,0-4.483,7.471-14.563,86.432-14.563,86.432l27.264,2.474Z" transform="translate(-538.123 -284.84)" fill="#e6e6e6"/>
    </g>
    <circle id="Ellipse_563" data-name="Ellipse 563" cx="33.992" cy="33.992" r="33.992" transform="translate(82.682 14.596)" fill="url(#linear-gradient)"/>
    <path id="Path_17029" data-name="Path 17029" d="M429.828,170.137A34.739,34.739,0,1,1,464.568,135.4,34.739,34.739,0,0,1,429.828,170.137Zm0-67.985A33.245,33.245,0,1,0,463.073,135.4a33.245,33.245,0,0,0-33.245-33.245Z" transform="translate(-305.181 -100.657)" fill="#3f3d56"/>
    <circle id="Ellipse_565" data-name="Ellipse 565" cx="23.343" cy="23.343" r="23.343" transform="translate(406.121 146.566)" fill="url(#linear-gradient)"/>
    <path id="Path_17030" data-name="Path 17030" d="M848.754,331.285a24.09,24.09,0,1,1,24.09-24.09A24.09,24.09,0,0,1,848.754,331.285Zm0-46.686a22.6,22.6,0,1,0,22.6,22.6,22.6,22.6,0,0,0-22.6-22.6Z" transform="translate(-413.814 -146.796)" fill="#3f3d56"/>
    <path id="Path_2960" data-name="Path 2960" d="M772.267,798.836H324a.747.747,0,0,1,0-1.494H772.267a.747.747,0,1,1,0,1.494Z" transform="translate(-287.014 -276.838)" fill="#cacaca"/>
    <g id="Group_58" data-name="Group 58" transform="translate(413.751 453.263)">
      <path id="Path_438" data-name="Path 438" d="M873.822,745.689a14.549,14.549,0,0,1-14.05-2.475c-4.921-4.13-6.464-10.936-7.719-17.236l-3.713-18.637,7.774,5.353c5.591,3.849,11.307,7.822,15.178,13.4s5.561,13.187,2.451,19.221" transform="translate(-833.552 -707.341)" fill="url(#linear-gradient)"/>
      <path id="Path_439" data-name="Path 439" d="M876.152,774.93c.979-7.129,1.985-14.349,1.3-21.554a33.9,33.9,0,0,0-6.537-17.773,29.566,29.566,0,0,0-7.586-6.873c-.758-.479-1.457.723-.7,1.2a28.107,28.107,0,0,1,11.118,13.415c2.421,6.157,2.809,12.868,2.391,19.408-.252,3.955-.787,7.884-1.325,11.809a.72.72,0,0,0,.486.855.7.7,0,0,0,.855-.486Z" transform="translate(-837.083 -712.722)" fill="#f2f2f2"/>
      <path id="Path_442" data-name="Path 442" d="M860.573,771.372a10.711,10.711,0,0,1-9.332,4.817c-4.724-.224-8.663-3.521-12.208-6.649l-10.486-9.261,6.94-.332c4.991-.239,10.111-.462,14.868,1.077s9.138,5.243,10.007,10.161" transform="translate(-828.547 -720.601)" fill="#e6e6e6"/>
      <path id="Path_443" data-name="Path 443" d="M874.763,788.81c-4.707-8.335-10.174-17.6-19.937-20.559a22.246,22.246,0,0,0-8.386-.866c-.89.075-.668,1.449.224,1.373a20.669,20.669,0,0,1,13.382,3.541,34.77,34.77,0,0,1,9.2,9.926c1.523,2.316,2.888,4.738,4.252,7.152C873.93,790.148,875.2,789.591,874.763,788.81Z" transform="translate(-832.929 -722.503)" fill="#f2f2f2"/>
    </g>
    <g id="Group_222" data-name="Group 222" transform="translate(83.583 474.211)">
      <path id="Path_2961" data-name="Path 2961" d="M387.464,762.483a10.71,10.71,0,0,0,10.43-1.225c3.791-2.827,5.212-7.763,6.4-12.339l3.516-13.538-5.939,3.606c-4.271,2.593-8.64,5.271-11.723,9.207s-4.643,9.451-2.611,14.019" transform="translate(-386.624 -735.38)" fill="#e6e6e6"/>
      <path id="Path_2962" data-name="Path 2962" d="M388.334,784.835c-.759-9.542-1.406-20.279,5.032-28.193a22.246,22.246,0,0,1,6.468-5.407c.78-.436,1.364.828.582,1.263a20.669,20.669,0,0,0-9.115,10.419,34.77,34.77,0,0,0-2.075,13.372c.032,2.772.255,5.542.475,8.307C389.773,785.477,388.405,785.728,388.334,784.835Z" transform="translate(-386.939 -739.367)" fill="#f2f2f2"/>
    </g>
    <circle id="Ellipse_567" data-name="Ellipse 567" cx="33.555" cy="33.555" r="33.555" transform="translate(37.32 216.325)" fill="#e4e4e4"/>
    <path id="Path_17031" data-name="Path 17031" d="M368.538,439.512a34.3,34.3,0,1,1,34.3-34.3A34.3,34.3,0,0,1,368.538,439.512Zm0-67.11a32.808,32.808,0,1,0,32.808,32.808A32.808,32.808,0,0,0,368.538,372.4Z" transform="translate(-289.792 -169)" fill="#2f2e41"/>
    <circle id="Ellipse_259" data-name="Ellipse 259" cx="5.977" cy="5.977" r="5.977" transform="translate(44.641 121.288)" fill="#f2f2f2"/>
    <circle id="Ellipse_260" data-name="Ellipse 260" cx="5.977" cy="5.977" r="5.977" transform="translate(351.705 91.404)" fill="#1cd244"/>
    <circle id="Ellipse_261" data-name="Ellipse 261" cx="5.977" cy="5.977" r="5.977" transform="translate(391.302 303.584)" fill="#f2f2f2"/>
    <path id="Path_17032" data-name="Path 17032" d="M214.063,206.857Z" transform="translate(-54.133 -52.311)" fill="#f2f2f2"/>
    <path id="Path_17033" data-name="Path 17033" d="M445.385,298.98l.227-1.477,29.192,4.478c-2.975-2.872-12.826-11.753-21.761-12.654-10.674-1.076-15.37,3.493-15.991,9.652s3.069,11.573,13.743,12.649c9.048.912,20.652-6.009,23.979-8.139Z" transform="translate(-315.776 -148.329)" fill="#f2f2f2"/>
    <path id="Path_17034" data-name="Path 17034" d="M579.407,70.278Z" transform="translate(-146.523 -17.772)" fill="#f2f2f2"/>
    <path id="Path_17035" data-name="Path 17035" d="M819.271,189.957l-.9-1.193,23.567-17.8c-4.133.129-17.368,1-24.245,6.772-8.215,6.9-8.215,13.452-4.234,18.192s10.434,5.871,18.649-1.029c6.964-5.849,10.1-18.992,10.889-22.862Z" transform="translate(-410.324 -118.437)" fill="#f2f2f2"/>
    <path id="Path_17036" data-name="Path 17036" d="M495.935,306.755Z" transform="translate(-125.414 -77.574)" fill="#f2f2f2"/>
    <path id="Path_17037" data-name="Path 17037" d="M745.586,421.1l-.648-.858,16.955-12.805c-2.973.093-12.5.717-17.443,4.872-5.91,4.964-5.91,9.678-3.046,13.088s7.507,4.224,13.417-.74c5.01-4.208,7.263-13.664,7.834-16.448Z" transform="translate(-392.287 -178.237)" fill="#f2f2f2"/>
    <path id="Path_17038" data-name="Path 17038" d="M566.84,144.687c4.594-12.351,15.448-23.024,28.564-24.293a60.715,60.715,0,0,0-9.6,40.566c.671,5.486,1.989,11.517-.968,16.186a13.573,13.573,0,0,1-8.426,5.5,40.308,40.308,0,0,1-10.264.677l-.77.38C562.962,170.75,562.246,157.038,566.84,144.687Z" transform="translate(-347.763 -105.649)" fill="#f0f0f0"/>
    <path id="Path_17039" data-name="Path 17039" d="M596.064,120.563a51.9,51.9,0,0,0-19.28,25.451,22.346,22.346,0,0,0-1.364,6.868,12.818,12.818,0,0,0,1.733,6.519,26.53,26.53,0,0,1,2.872,5.743,7.848,7.848,0,0,1-1.1,6.323,20.389,20.389,0,0,1-5.949,5.518c-2.483,1.711-5.09,3.448-6.609,6.136-.184.326-.679.021-.495-.3,2.643-4.676,8.191-6.374,11.585-10.346a7.948,7.948,0,0,0,2.129-6.663c-.428-2.158-1.741-4-2.8-5.886a13.679,13.679,0,0,1-1.932-6.311,20.661,20.661,0,0,1,1.095-6.9,50.344,50.344,0,0,1,7.1-14.042,52.816,52.816,0,0,1,12.746-12.624c.306-.213.578.3.274.512Z" transform="translate(-348.359 -105.549)" fill="#fff"/>
    <path id="Path_17040" data-name="Path 17040" d="M580.337,147.074a7.786,7.786,0,0,1-3.889-9.3c.115-.356.673-.194.558.162a7.21,7.21,0,0,0,3.636,8.645c.334.168.028.662-.3.495Z" transform="translate(-350.951 -109.993)" fill="#fff"/>
    <path id="Path_17041" data-name="Path 17041" d="M580.045,169.192a15.007,15.007,0,0,0,8.512-6.867c.185-.325.68-.02.495.3a15.61,15.61,0,0,1-8.872,7.128C579.823,169.869,579.69,169.3,580.045,169.192Z" transform="translate(-351.901 -116.217)" fill="#fff"/>
    <path id="Path_17042" data-name="Path 17042" d="M593.935,131.269a4.407,4.407,0,0,0,4.113.755c.356-.116.488.449.135.565a4.939,4.939,0,0,1-4.552-.826.3.3,0,0,1-.1-.4.292.292,0,0,1,.4-.1Z" transform="translate(-355.355 -108.388)" fill="#fff"/>
    <path id="Path_17043" data-name="Path 17043" d="M627.513,161.093c-.22.079-.44.158-.662.241a58.043,58.043,0,0,0-8.556,3.929c-.214.116-.429.236-.639.358a61.189,61.189,0,0,0-17.12,14.642,59.423,59.423,0,0,0-5.107,7.446c-2.087,3.6-4.062,7.673-7.126,10.3a10.19,10.19,0,0,1-1,.771L566.4,193.83c-.042-.035-.085-.065-.127-.1l-.844-.159c.069-.14.143-.284.211-.424.039-.081.084-.162.123-.243.028-.054.056-.108.078-.158.009-.018.019-.036.027-.049.022-.05.048-.095.069-.14q.618-1.206,1.255-2.408s0,0,.007-.008a87.374,87.374,0,0,1,11.6-17.092c.137-.154.275-.313.422-.464a56.7,56.7,0,0,1,6.735-6.345,50.128,50.128,0,0,1,4.128-2.947,41.685,41.685,0,0,1,11.95-5.2c8.435-2.185,17.476-1.647,24.918,2.667C627.138,160.868,627.324,160.977,627.513,161.093Z" transform="translate(-348.257 -114.864)" fill="#f0f0f0"/>
    <path id="Path_17044" data-name="Path 17044" d="M627.475,162.668a51.9,51.9,0,0,0-30.717,8.714,22.35,22.35,0,0,0-5.224,4.662,12.818,12.818,0,0,0-2.541,6.249,26.525,26.525,0,0,1-1.164,6.315,7.848,7.848,0,0,1-4.687,4.385,20.391,20.391,0,0,1-8.072.824c-3.013-.129-6.14-.311-8.971.92-.343.149-.554-.392-.212-.541,4.926-2.142,10.378-.158,15.479-1.285a7.948,7.948,0,0,0,5.711-4.038c.957-1.981,1.021-4.246,1.3-6.389a13.677,13.677,0,0,1,2.257-6.2,20.661,20.661,0,0,1,5.026-4.846,50.348,50.348,0,0,1,14.125-6.936,52.816,52.816,0,0,1,17.778-2.405c.372.014.28.587-.09.574Z" transform="translate(-348.329 -116.185)" fill="#fff"/>
    <path id="Path_17045" data-name="Path 17045" d="M610.755,168.37a7.786,7.786,0,0,1,2.495-9.769c.306-.215.654.25.348.465a7.21,7.21,0,0,0-2.3,9.091c.166.335-.376.545-.541.212Z" transform="translate(-359.52 -115.297)" fill="#fff"/>
    <path id="Path_17046" data-name="Path 17046" d="M596.749,187.55a15.007,15.007,0,0,0,10.931-.359c.343-.148.555.393.212.541a15.609,15.609,0,0,1-11.375.35C596.164,187.956,596.4,187.425,596.749,187.55Z" transform="translate(-356.075 -122.534)" fill="#fff"/>
    <path id="Path_17047" data-name="Path 17047" d="M632.1,163.866a4.407,4.407,0,0,0,2.829,3.08c.354.121.119.653-.233.532a4.939,4.939,0,0,1-3.138-3.4.3.3,0,0,1,.164-.376A.292.292,0,0,1,632.1,163.866Z" transform="translate(-364.977 -116.595)" fill="#fff"/>
    <path id="Path_17048" data-name="Path 17048" d="M481.84,372.687c4.594-12.351,15.448-23.024,28.564-24.293a60.715,60.715,0,0,0-9.6,40.566c.671,5.486,1.989,11.517-.968,16.186a13.573,13.573,0,0,1-8.426,5.5,40.307,40.307,0,0,1-10.264.677l-.77.38C477.962,398.75,477.246,385.038,481.84,372.687Z" transform="translate(-326.268 -163.306)" fill="#f0f0f0"/>
    <path id="Path_17049" data-name="Path 17049" d="M511.063,348.563a51.9,51.9,0,0,0-19.28,25.451,22.349,22.349,0,0,0-1.364,6.868,12.819,12.819,0,0,0,1.733,6.519,26.525,26.525,0,0,1,2.872,5.743,7.849,7.849,0,0,1-1.1,6.323,20.389,20.389,0,0,1-5.949,5.518c-2.483,1.711-5.09,3.448-6.609,6.136-.184.326-.679.021-.495-.3,2.643-4.676,8.191-6.374,11.585-10.346a7.948,7.948,0,0,0,2.129-6.663c-.428-2.158-1.741-4-2.8-5.886a13.678,13.678,0,0,1-1.932-6.311,20.663,20.663,0,0,1,1.095-6.9,50.348,50.348,0,0,1,7.1-14.042,52.815,52.815,0,0,1,12.746-12.624c.306-.213.577.3.274.512Z" transform="translate(-326.864 -163.207)" fill="#fff"/>
    <path id="Path_17050" data-name="Path 17050" d="M495.337,375.074a7.786,7.786,0,0,1-3.889-9.3c.115-.356.673-.194.558.162a7.21,7.21,0,0,0,3.636,8.645C495.975,374.747,495.669,375.241,495.337,375.074Z" transform="translate(-329.456 -167.651)" fill="#fff"/>
    <path id="Path_17051" data-name="Path 17051" d="M495.045,397.192a15.007,15.007,0,0,0,8.512-6.867c.185-.325.68-.02.495.3a15.61,15.61,0,0,1-8.872,7.128c-.357.112-.49-.454-.135-.565Z" transform="translate(-330.406 -173.875)" fill="#fff"/>
    <path id="Path_17052" data-name="Path 17052" d="M508.935,359.269a4.407,4.407,0,0,0,4.113.755c.356-.116.488.449.135.565a4.939,4.939,0,0,1-4.552-.826.3.3,0,0,1-.1-.4.292.292,0,0,1,.4-.1Z" transform="translate(-333.86 -166.046)" fill="#fff"/>
    <path id="Path_17053" data-name="Path 17053" d="M542.513,389.093c-.22.079-.44.158-.662.241a58.043,58.043,0,0,0-8.556,3.929c-.214.116-.429.236-.639.358a61.19,61.19,0,0,0-17.12,14.642,59.41,59.41,0,0,0-5.107,7.446c-2.086,3.6-4.062,7.672-7.126,10.3a10.213,10.213,0,0,1-1,.771L481.4,421.83c-.042-.035-.085-.065-.127-.1l-.844-.159c.069-.14.143-.284.211-.424.039-.081.083-.162.123-.243.028-.054.056-.108.078-.158.009-.018.019-.036.027-.049.022-.05.048-.095.069-.14q.618-1.206,1.255-2.408s0,0,.007-.008a87.368,87.368,0,0,1,11.6-17.092c.137-.154.275-.313.422-.464a56.7,56.7,0,0,1,6.735-6.345,50.167,50.167,0,0,1,4.128-2.947,41.684,41.684,0,0,1,11.95-5.2c8.436-2.185,17.476-1.647,24.918,2.667C542.138,388.868,542.324,388.977,542.513,389.093Z" transform="translate(-326.762 -172.522)" fill="#f0f0f0"/>
    <path id="Path_17054" data-name="Path 17054" d="M542.475,390.668a51.9,51.9,0,0,0-30.717,8.714,22.349,22.349,0,0,0-5.224,4.663,12.818,12.818,0,0,0-2.541,6.249,26.531,26.531,0,0,1-1.165,6.315,7.848,7.848,0,0,1-4.687,4.385,20.391,20.391,0,0,1-8.072.824c-3.013-.129-6.14-.311-8.971.92-.343.149-.554-.392-.212-.541,4.926-2.142,10.378-.158,15.479-1.285a7.948,7.948,0,0,0,5.711-4.038c.957-1.981,1.021-4.246,1.3-6.389a13.678,13.678,0,0,1,2.257-6.2,20.662,20.662,0,0,1,5.025-4.846,50.347,50.347,0,0,1,14.125-6.937,52.817,52.817,0,0,1,17.777-2.405c.372.014.28.587-.09.574Z" transform="translate(-326.834 -173.843)" fill="#fff"/>
    <path id="Path_17055" data-name="Path 17055" d="M525.754,396.37a7.786,7.786,0,0,1,2.495-9.769c.306-.215.654.25.348.465a7.21,7.21,0,0,0-2.3,9.091c.166.335-.376.545-.541.212Z" transform="translate(-338.025 -172.954)" fill="#fff"/>
    <path id="Path_17056" data-name="Path 17056" d="M511.749,415.551a15.007,15.007,0,0,0,10.931-.359c.344-.148.555.393.212.541a15.609,15.609,0,0,1-11.375.35c-.353-.126-.118-.657.233-.532Z" transform="translate(-334.58 -180.192)" fill="#fff"/>
    <path id="Path_17057" data-name="Path 17057" d="M547.1,391.866a4.407,4.407,0,0,0,2.829,3.08c.354.121.119.653-.233.532a4.939,4.939,0,0,1-3.137-3.4.3.3,0,0,1,.164-.376A.292.292,0,0,1,547.1,391.866Z" transform="translate(-343.482 -174.253)" fill="#fff"/>
    <path id="Path_17058" data-name="Path 17058" d="M831,496.355c-2.344-8.764-.506-19.081,6.351-25.021a41.8,41.8,0,0,0,10.782,26.6c2.563,2.812,5.707,5.672,5.908,9.472a9.343,9.343,0,0,1-2.537,6.446,27.744,27.744,0,0,1-5.492,4.471l-.281.52C839.208,512.531,833.341,505.119,831,496.355Z" transform="translate(-415.171 -194.396)" fill="#f0f0f0"/>
    <path id="Path_17059" data-name="Path 17059" d="M839.176,471.4a35.727,35.727,0,0,0-.678,21.971,15.385,15.385,0,0,0,1.972,4.4,8.824,8.824,0,0,0,3.571,2.969,18.263,18.263,0,0,1,3.9,2.079,5.4,5.4,0,0,1,1.9,3.989,14.039,14.039,0,0,1-1.14,5.469c-.712,1.95-1.482,3.964-1.264,6.078.026.256-.373.282-.4.026-.38-3.678,2.057-6.843,2.38-10.425a5.472,5.472,0,0,0-1.461-4.588,14.168,14.168,0,0,0-3.921-2.186,9.417,9.417,0,0,1-3.6-2.773,14.225,14.225,0,0,1-2.134-4.307,34.664,34.664,0,0,1-1.611-10.713,36.363,36.363,0,0,1,2.123-12.166C838.9,470.983,839.262,471.163,839.176,471.4Z" transform="translate(-416.856 -194.339)" fill="#fff"/>
    <path id="Path_17060" data-name="Path 17060" d="M836.028,496.523a5.36,5.36,0,0,1-5.891-3.671c-.078-.245.3-.377.378-.132a4.964,4.964,0,0,0,5.487,3.4c.254-.039.279.36.026.4Z" transform="translate(-415.196 -199.771)" fill="#fff"/>
    <path id="Path_17061" data-name="Path 17061" d="M845.557,507.935a10.331,10.331,0,0,0,2.041-7.247c-.026-.256.373-.282.4-.026a10.745,10.745,0,0,1-2.139,7.537C845.7,508.4,845.4,508.139,845.557,507.935Z" transform="translate(-419.087 -201.767)" fill="#fff"/>
    <path id="Path_17062" data-name="Path 17062" d="M837.294,481.843a3.034,3.034,0,0,0,2.61-1.215c.153-.207.453.058.3.263a3.4,3.4,0,0,1-2.884,1.351.207.207,0,0,1-.213-.186.2.2,0,0,1,.186-.213Z" transform="translate(-416.961 -196.727)" fill="#fff"/>
    <path id="Path_17063" data-name="Path 17063" d="M872.634,478.121c-.092.132-.184.264-.275.4a39.962,39.962,0,0,0-3.237,5.616c-.074.15-.147.3-.216.455a42.119,42.119,0,0,0-3.774,15.043,40.9,40.9,0,0,0,.1,6.215c.264,2.853.778,5.926.1,8.621a7.042,7.042,0,0,1-.253.831l-13.708,5.556c-.038,0-.074,0-.112-.006l-.537.247c-.017-.106-.033-.216-.05-.322-.01-.061-.018-.124-.028-.185-.006-.041-.012-.083-.02-.12,0-.014,0-.028,0-.038-.008-.037-.011-.072-.017-.106q-.134-.923-.255-1.852s0,0,0-.008a60.149,60.149,0,0,1-.3-14.217c.016-.141.03-.285.052-.429a39.032,39.032,0,0,1,1.252-6.246,34.5,34.5,0,0,1,1.142-3.3,28.7,28.7,0,0,1,4.635-7.683c3.864-4.589,9.153-7.89,15.05-8.434C872.334,478.145,872.482,478.132,872.634,478.121Z" transform="translate(-420.163 -196.112)" fill="#f0f0f0"/>
    <path id="Path_17064" data-name="Path 17064" d="M872.968,478.239A35.727,35.727,0,0,0,859.2,495.373a15.384,15.384,0,0,0-1.074,4.7,8.824,8.824,0,0,0,1.064,4.52,18.255,18.255,0,0,1,1.863,4.009,5.4,5.4,0,0,1-.883,4.33,14.037,14.037,0,0,1-4.2,3.68c-1.742,1.128-3.57,2.273-4.669,4.092-.133.22-.467,0-.334-.219,1.911-3.165,5.763-4.225,8.176-6.891a5.471,5.471,0,0,0,1.6-4.543,14.172,14.172,0,0,0-1.814-4.106,9.416,9.416,0,0,1-1.205-4.381,14.226,14.226,0,0,1,.889-4.723,34.662,34.662,0,0,1,5.164-9.523,36.362,36.362,0,0,1,9.02-8.436C873,477.74,873.182,478.1,872.968,478.239Z" transform="translate(-420.457 -196.043)" fill="#fff"/>
    <path id="Path_17065" data-name="Path 17065" d="M862.026,495.976a5.36,5.36,0,0,1-2.493-6.478c.086-.242.467-.12.381.122a4.963,4.963,0,0,0,2.331,6.021C862.472,495.763,862.251,496.1,862.026,495.976Z" transform="translate(-422.556 -198.956)" fill="#fff"/>
    <path id="Path_17066" data-name="Path 17066" d="M861.358,511.246a10.331,10.331,0,0,0,5.993-4.558c.134-.22.468,0,.334.219a10.747,10.747,0,0,1-6.245,4.731C861.192,511.708,861.112,511.316,861.358,511.246Z" transform="translate(-423.056 -203.313)" fill="#fff"/>
    <path id="Path_17067" data-name="Path 17067" d="M871.711,485.365a3.034,3.034,0,0,0,2.816.6c.247-.073.327.319.082.391a3.4,3.4,0,0,1-3.116-.658.207.207,0,0,1-.058-.277.2.2,0,0,1,.277-.058Z" transform="translate(-425.634 -197.936)" fill="#fff"/>
  </g>
</svg>
