<svg xmlns="http://www.w3.org/2000/svg" width="73.441" height="73.441" viewBox="0 0 73.441 73.441">
  <g id="Group_9396" data-name="Group 9396" transform="translate(1.5 1.5)">
    <path id="Path_16753" data-name="Path 16753" d="M19.258,67.51A35.216,35.216,0,1,0,2,37.22,37.43,37.43,0,0,0,6.579,54.83L3.55,66.474a3.522,3.522,0,0,0,4.378,4.272Z" transform="translate(-2 -2)" fill="none" stroke="#128a7c" stroke-linecap="round" stroke-linejoin="round" stroke-miterlimit="10" stroke-width="3"/>
    <path id="Path_16754" data-name="Path 16754" d="M39.2,33.38a4.018,4.018,0,0,1-.4,1.729,6.538,6.538,0,0,1-1.078,1.617,7.16,7.16,0,0,1-2.606,1.87,7.936,7.936,0,0,1-3.092.6,13.29,13.29,0,0,1-5.177-1.155A27.9,27.9,0,0,1,21.387,34.9a45.6,45.6,0,0,1-5.206-4.438,45.043,45.043,0,0,1-4.427-5.181,28.241,28.241,0,0,1-3.113-5.4A13.4,13.4,0,0,1,7.5,14.7a8.19,8.19,0,0,1,.571-3.057A7.28,7.28,0,0,1,9.9,8.99,4.638,4.638,0,0,1,13.2,7.5a2.992,2.992,0,0,1,1.286.285,2.611,2.611,0,0,1,1.064.888l3.684,5.184a5.461,5.461,0,0,1,.634,1.109,2.529,2.529,0,0,1,.222.965,2.149,2.149,0,0,1-.335,1.127,5.388,5.388,0,0,1-.888,1.124l-1.208,1.254a.845.845,0,0,0-.254.634,1.45,1.45,0,0,0,.049.363c.046.127.1.222.127.317a12.64,12.64,0,0,0,1.476,2.029c.715.824,1.476,1.666,2.3,2.5.859.842,1.684,1.617,2.525,2.332a12.315,12.315,0,0,0,2.046,1.455l.289.13a1.1,1.1,0,0,0,.394.063.874.874,0,0,0,.652-.271l1.2-1.19a5.02,5.02,0,0,1,1.145-.888,2.116,2.116,0,0,1,1.127-.331,2.532,2.532,0,0,1,.969.208,5.852,5.852,0,0,1,1.109.616l5.255,3.726a2.4,2.4,0,0,1,.873,1.011A3.248,3.248,0,0,1,39.2,33.38Z" transform="translate(11.871 11.871)" fill="none" stroke="#128a7c" stroke-miterlimit="10" stroke-width="2.5"/>
  </g>
</svg>
